<?xml version="1.0" encoding="UTF-8"?>
<svg id="Layer_1" data-name="Layer 1" xmlns="http://www.w3.org/2000/svg" viewBox="0 0 729.13 729.13">
  <defs>
    <style>
      .cls-1 {
        fill: #f6921e;
      }

      .cls-2 {
        fill: #f1f2f2;
      }

      .cls-3 {
        fill: #3f3f3e;
      }
    </style>
  </defs>
  <g>
    <path class="cls-3" d="M405.72,96.02H91.18c-10.31,0-18.69,8.38-18.69,18.69v116.58c0,26.57,21.62,48.19,48.19,48.19h255.54c26.57,0,48.19-21.62,48.19-48.19v-116.58c0-10.31-8.38-18.69-18.69-18.69ZM113.12,106.94h269.84v44.19c0,9.1-7.4,16.51-16.51,16.51h-236.81c-9.1,0-16.51-7.41-16.51-16.51v-44.19ZM413.49,231.29c0,20.54-16.71,37.27-37.27,37.27h-10.41v-15.91c0-12.43-10.12-22.55-22.55-22.55h-70.39c-3.02,0-5.46,2.44-5.46,5.46s2.44,5.46,5.46,5.46h70.39c6.42,0,11.63,5.22,11.63,11.63v15.91H120.68c-20.55,0-37.27-16.72-37.27-37.27v-116.58c0-4.28,3.49-7.77,7.77-7.77h11.02v44.19c0,15.13,12.3,27.43,27.43,27.43h236.81c15.13,0,27.43-12.3,27.43-27.43v-44.19h11.83c4.28,0,7.77,3.49,7.77,7.77v116.58Z"/>
    <path class="cls-1" d="M113.12,106.94v44.19c0,9.1,7.41,16.51,16.51,16.51h236.81c9.11,0,16.51-7.41,16.51-16.51v-44.19H113.12ZM365.44,158.03h-236.86c-2.32,0-4.2-1.88-4.2-4.2s1.88-4.2,4.2-4.2h236.86c2.32,0,4.2,1.88,4.2,4.2s-1.88,4.2-4.2,4.2ZM365.44,141.22h-236.86c-2.32,0-4.2-1.88-4.2-4.2s1.88-4.2,4.2-4.2h236.86c2.32,0,4.2,1.88,4.2,4.2s-1.88,4.2-4.2,4.2ZM365.44,123.27h-236.86c-2.32,0-4.2-1.88-4.2-4.2s1.88-4.2,4.2-4.2h236.86c2.32,0,4.2,1.88,4.2,4.2s-1.88,4.2-4.2,4.2Z"/>
    <path class="cls-2" d="M405.72,106.94h-11.83v44.19c0,15.13-12.3,27.43-27.43,27.43h-236.81c-15.13,0-27.43-12.3-27.43-27.43v-44.19h-11.02c-4.28,0-7.77,3.49-7.77,7.77v116.58c0,20.54,16.71,37.27,37.27,37.27h234.21v-15.91c0-6.41-5.22-11.63-11.63-11.63h-70.39c-3.02,0-5.46-2.44-5.46-5.46s2.44-5.46,5.46-5.46h70.39c12.43,0,22.55,10.12,22.55,22.55v15.91h10.41c20.55,0,37.27-16.72,37.27-37.27v-116.58c0-4.28-3.49-7.77-7.77-7.77ZM133.44,245.27c-5.37,0-9.72-4.35-9.72-9.72s4.35-9.71,9.72-9.71,9.71,4.35,9.71,9.71-4.35,9.72-9.71,9.72ZM163.05,245.27c-5.36,0-9.71-4.35-9.71-9.72s4.35-9.71,9.71-9.71,9.72,4.35,9.72,9.71-4.35,9.72-9.72,9.72ZM370.31,203.67H123.72v-8.4h246.58v8.4Z"/>
    <path class="cls-3" d="M143.15,235.55c0,5.37-4.35,9.72-9.71,9.72s-9.72-4.35-9.72-9.72,4.35-9.71,9.72-9.71,9.71,4.35,9.71,9.71Z"/>
    <path class="cls-3" d="M172.77,235.55c0,5.37-4.35,9.72-9.72,9.72s-9.71-4.35-9.71-9.72,4.35-9.71,9.71-9.71,9.72,4.35,9.72,9.71Z"/>
    <path class="cls-3" d="M369.64,119.07c0,2.32-1.88,4.2-4.2,4.2h-236.86c-2.32,0-4.2-1.88-4.2-4.2s1.88-4.2,4.2-4.2h236.86c2.32,0,4.2,1.88,4.2,4.2Z"/>
    <path class="cls-3" d="M369.64,137.02c0,2.32-1.88,4.2-4.2,4.2h-236.86c-2.32,0-4.2-1.88-4.2-4.2s1.88-4.2,4.2-4.2h236.86c2.32,0,4.2,1.88,4.2,4.2Z"/>
    <path class="cls-3" d="M369.64,153.83c0,2.32-1.88,4.2-4.2,4.2h-236.86c-2.32,0-4.2-1.88-4.2-4.2s1.88-4.2,4.2-4.2h236.86c2.32,0,4.2,1.88,4.2,4.2Z"/>
    <rect class="cls-3" x="123.72" y="195.27" width="246.58" height="8.4"/>
  </g>
  <path class="cls-3" d="M81.6,438.41h79.98v-116.81l-79.98,116.81ZM149.58,426.41h-45.22l45.22-66.04v66.04ZM81.6,438.41h79.98v-116.81l-79.98,116.81ZM149.58,426.41h-45.22l45.22-66.04v66.04ZM212.04,426.41v-175.27h-60.79L30.45,430.58v56.01h119.13v55.77h62.46v-55.77h24.28v-60.18h-24.28ZM224.32,474.59h-24.28v55.77h-38.46v-55.77H42.45v-40.35l115.18-171.1h42.41v175.27h24.28v36.18ZM161.58,438.41v-116.81l-79.98,116.81h79.98ZM149.58,426.41h-45.22l45.22-66.04v66.04Z"/>
  <path class="cls-2" d="M200.04,438.41v-175.27h-42.41l-115.18,171.1v40.35h119.13v55.77h38.46v-55.77h24.28v-36.18h-24.28ZM161.58,438.41h-79.98l79.98-116.81v116.81Z"/>
  <path class="cls-3" d="M386.46,327.73c-8.33-17.85-21.29-26.89-38.54-26.89-43.62,0-49.63,49.56-49.63,103.12,0,31.57,3.71,54.71,11.35,70.73,8.33,17.46,21.33,26.32,38.66,26.32,11.63,0,27.67-4.69,38.07-27.04,7.67-16.49,11.56-41.06,11.56-73.05s-3.75-56.65-11.47-73.19ZM348.3,489.01c-9.4,0-38.01,0-38.01-85.05,0-75.63,15.04-91.12,37.63-91.12,12.52,0,21.31,6.34,27.66,19.96,6.87,14.71,10.35,37.63,10.35,68.12,0,58.45-12.66,88.09-37.63,88.09ZM386.46,327.73c-8.33-17.85-21.29-26.89-38.54-26.89-43.62,0-49.63,49.56-49.63,103.12,0,31.57,3.71,54.71,11.35,70.73,8.33,17.46,21.33,26.32,38.66,26.32,11.63,0,27.67-4.69,38.07-27.04,7.67-16.49,11.56-41.06,11.56-73.05s-3.75-56.65-11.47-73.19ZM348.3,489.01c-9.4,0-38.01,0-38.01-85.05,0-75.63,15.04-91.12,37.63-91.12,12.52,0,21.31,6.34,27.66,19.96,6.87,14.71,10.35,37.63,10.35,68.12,0,58.45-12.66,88.09-37.63,88.09ZM424.09,289.47c-16.97-25.43-42.98-38.33-77.31-38.33-29.24,0-53.94,11.39-71.41,32.93-20.36,24.88-29.43,61.5-29.43,118.75,0,54.07,8.05,86.57,27.85,112.23,18.27,23.03,41.94,33.76,74.51,33.76s59.43-12.84,76.14-38.17c16.37-24.79,24.33-60.93,24.33-110.47s-8.08-85.82-24.68-110.7ZM414.43,504.03c-14.56,22.06-36.19,32.78-66.13,32.78s-49.08-9.01-65.05-29.15c-17.98-23.3-25.31-53.68-25.31-104.84,0-54.29,8.24-88.57,26.73-111.17,15.13-18.65,36.61-28.51,62.11-28.51,30.49,0,52.52,10.79,67.33,32.99,15.03,22.53,22.66,57.53,22.66,104.04s-7.52,81.4-22.34,103.86ZM347.92,300.84c-43.62,0-49.63,49.56-49.63,103.12,0,31.57,3.71,54.71,11.35,70.73,8.33,17.46,21.33,26.32,38.66,26.32,11.63,0,27.67-4.69,38.07-27.04,7.67-16.49,11.56-41.06,11.56-73.05s-3.75-56.65-11.47-73.19c-8.33-17.85-21.29-26.89-38.54-26.89ZM348.3,489.01c-9.4,0-38.01,0-38.01-85.05,0-75.63,15.04-91.12,37.63-91.12,12.52,0,21.31,6.34,27.66,19.96,6.87,14.71,10.35,37.63,10.35,68.12,0,58.45-12.66,88.09-37.63,88.09Z"/>
  <path class="cls-1" d="M414.11,296.13c-14.81-22.2-36.84-32.99-67.33-32.99-25.5,0-46.98,9.86-62.11,28.51-18.49,22.6-26.73,56.88-26.73,111.17,0,51.16,7.33,81.54,25.31,104.84,15.97,20.14,36.05,29.15,65.05,29.15s51.57-10.72,66.13-32.78c14.82-22.46,22.34-57.4,22.34-103.86s-7.63-81.51-22.66-104.04ZM386.37,473.97c-10.4,22.35-26.44,27.04-38.07,27.04-17.33,0-30.33-8.86-38.66-26.32-7.64-16.02-11.35-39.16-11.35-70.73,0-53.56,6.01-103.12,49.63-103.12,17.25,0,30.21,9.04,38.54,26.89,7.72,16.54,11.47,40.48,11.47,73.19s-3.89,56.56-11.56,73.05Z"/>
  <path class="cls-3" d="M506.5,438.41h79.98v-116.81l-79.98,116.81ZM574.48,426.41h-45.22l45.22-66.04v66.04ZM506.5,438.41h79.98v-116.81l-79.98,116.81ZM574.48,426.41h-45.22l45.22-66.04v66.04ZM636.93,426.41v-175.27h-60.78l-120.8,179.44v56.01h119.13v55.77h62.45v-55.77h24.28v-60.18h-24.28ZM649.21,474.59h-24.28v55.77h-38.45v-55.77h-119.13v-40.35l115.18-171.1h42.4v175.27h24.28v36.18ZM586.48,438.41v-116.81l-79.98,116.81h79.98ZM574.48,426.41h-45.22l45.22-66.04v66.04Z"/>
  <path class="cls-2" d="M624.93,438.41v-175.27h-42.4l-115.18,171.1v40.35h119.13v55.77h38.45v-55.77h24.28v-36.18h-24.28ZM586.48,438.41h-79.98l79.98-116.81v116.81Z"/>
  <path class="cls-3" d="M541.22,115.55c-1,8.95-5.43,39.33-11.56,81.39-11.42,78.31-28.67,196.64-35.84,260.81-1.1,9.89-7.08,16.28-15.21,16.28-3.96,0-8.12-2-11.12-5.36-3.08-3.44-4.58-7.91-4.09-12.25,1-8.94,5.43-39.33,11.56-81.39,11.42-78.3,28.67-196.64,35.84-260.81,1.1-9.89,7.08-16.28,15.21-16.28,3.96,0,8.12,2.01,11.12,5.36,3.08,3.45,4.58,7.92,4.09,12.25Z"/>
  <path class="cls-3" d="M550.6,617.79c-1.94-.78-3.89-1.48-5.79-2.15-5.04-1.81-9.82-3.51-13.34-6.48-5.54-4.68-8.08-12.53-10-20.31-2.15-8.71-3.74-17.68-4.74-26.66-.13-1.12-.24-2.24-.36-3.34,3.74,1.01,7.16.7,10.22-.95,10.91-5.85,10.82-25.4,9.79-44.92l-.06-1.25c-.7-13.52,1.29-28.05,3.22-42.1,2.01-14.6,4.08-29.7,3.33-44.35-.61-11.73-5.43-18.94-9.68-25.3-4.21-6.28-7.53-11.25-6.75-20.25,4.2-48.96,12.18-103.31,19.89-155.87,4.87-33.16,9.47-64.48,13.17-94.42l.07-.56c2.07-16.81,4.22-34.19-5.22-45.64-5.44-6.58-13.73-10.17-25.36-10.96-31.75-2.16-36.02,26.94-38.07,40.92-6.07,41.35-12.23,84.51-18.2,126.25-5.66,39.6-11.51,80.56-17.27,119.9-.1.72-.21,1.62-.33,2.62-.27,2.33-.99,8.44-2.06,10.13-23.06,19.73-34.83,39.19-35.99,59.48-.54,9.65-.8,19.66-1.05,29.35-.64,24.73-1.29,50.29-6.77,73.56-2.02,8.55.1,19.86,9.51,24.49,6.37,3.12,14.16,1.73,19.38-3.48,3.19-3.17,5.12-6.74,6.24-10.51.36,1.62.52,3.26.47,4.89-.14,4.42-1.68,8.94-3.31,13.73-.43,1.26-.85,2.52-1.26,3.79-2.66,8.27-4.9,18.99,1.35,28.54,3.89,5.94,10.68,9.19,17.31,8.26,11.77-1.64,16.23-13.72,15.39-24.25-.21-2.54-.62-4.99-1.01-7.36-.7-4.18-1.36-8.14-.69-11.62.49-2.52,2.75-5.25,4.85-5.83.62-.17,1.25-.24,2.22.83.56.62,1.02,1.53,1.32,2.63,3.43,12.4,1.06,26.17-6.33,36.83-6.83,9.85-17.98,16.78-29.83,18.55-3.38.5-6.86.63-10.55.77-5.54.2-11.25.41-17,1.94-11,2.92-22.02,12.71-20.78,25.11,1.16,11.57,11.23,19.4,29.93,23.28,22.98,4.77,46.74,9.69,70.96,9.7h.05c14.42,0,28.83-1.75,42.82-5.2,9.29-2.3,18.79-5.58,25.3-13.98,2.41-3.12,4.01-6.73,4.61-10.42,1.88-11.61-5.26-21.6-19.6-27.39ZM558.35,643.25c-.28,1.73-1.06,3.46-2.25,5.01-4.02,5.19-10.38,7.62-18.69,9.67-13.05,3.22-26.49,4.85-39.93,4.85h-.06c-22.98-.01-46.13-4.81-68.52-9.45-8.92-1.85-19.71-5.56-20.43-12.73-.55-5.5,5.76-10.68,11.92-12.31,4.45-1.18,9.26-1.36,14.36-1.55,3.86-.14,7.85-.29,11.88-.89,15.06-2.25,29.24-11.07,37.92-23.58,9.4-13.55,12.4-31.07,8.04-46.86-.81-2.94-2.15-5.45-3.99-7.49-3.83-4.23-9.06-5.82-14.34-4.34-6.54,1.82-12.05,8.04-13.41,15.12-1.08,5.6-.17,11.06.63,15.87.37,2.21.72,4.31.89,6.34.32,4.09-.77,10.8-5.09,11.41-2.05.28-4.25-.87-5.61-2.95-2.74-4.2-2.73-9.67.03-18.3.39-1.2.8-2.4,1.2-3.6,1.84-5.41,3.75-11,3.94-17.21.31-9.71-3.92-19.37-11.31-25.83-2.14-1.87-5.19-2.28-7.75-1.04-2.58,1.24-4.16,3.89-4.03,6.74.34,7.57-.23,13.04-4.07,16.87-1.6,1.59-3.86,2.07-5.63,1.21-3.32-1.64-4.09-6.87-3.12-10.97,5.76-24.47,6.43-50.67,7.09-76,.24-9.6.5-19.52,1.04-28.98.96-16.9,11.42-33.64,31.97-51.18,4.03-3.44,5.11-10.06,6.01-17.71.1-.87.19-1.65.28-2.28,5.76-39.36,11.62-80.33,17.28-119.95,5.96-41.72,12.13-84.87,18.2-126.19,3.05-20.82,8.02-31.89,25.38-30.7,8.16.56,13.69,2.73,16.91,6.63,6.16,7.46,4.33,22.24,2.57,36.53l-.07.56c-3.68,29.81-8.27,61.06-13.13,94.15-7.74,52.74-15.74,107.27-19.98,156.58-1.13,13.2,4.11,21.04,8.73,27.96,3.89,5.8,7.24,10.81,7.67,19.24.7,13.52-1.29,28.04-3.22,42.1-2.01,14.6-4.08,29.7-3.33,44.35l.07,1.26c.3,5.68.75,14.26.11,21.61-.93,10.56-3.49,12.05-3.59,12.11-.41.22-2.14.17-5.6-2.12-.58-10.29-.65-19.55-.59-27,.05-11.37.12-18.6-1.56-18.93-1.57-.31-4.61,6.45-6.89,18.09-2.29,11.59-3.5,28.11-1.48,46.15,1.06,9.49,2.75,18.98,5.02,28.21,2.29,9.27,5.73,19.69,13.91,26.6,5.18,4.38,11.22,6.53,17.06,8.61,1.85.66,3.61,1.29,5.31,1.98,6.25,2.52,13.44,7.05,12.25,14.33Z"/>
  <path class="cls-1" d="M546.1,628.92c-1.7-.69-3.46-1.32-5.31-1.98-5.84-2.08-11.88-4.23-17.06-8.61-8.18-6.91-11.62-17.33-13.91-26.6-2.27-9.23-3.96-18.72-5.02-28.21-2.02-18.04-.81-34.56,1.48-46.15,2.28-11.64,5.32-18.4,6.89-18.09,1.68.33,1.61,7.56,1.56,18.93-.06,7.45.01,16.71.59,27,3.46,2.29,5.19,2.34,5.6,2.12.1-.06,2.66-1.55,3.59-12.11.64-7.35.19-15.93-.11-21.61l-.07-1.26c-.75-14.65,1.32-29.75,3.33-44.35,1.93-14.06,3.92-28.58,3.22-42.1-.43-8.43-3.78-13.44-7.67-19.24-4.62-6.92-9.86-14.76-8.73-27.96,4.24-49.31,12.24-103.84,19.98-156.58,4.86-33.09,9.45-64.34,13.13-94.15l.07-.56c1.76-14.29,3.59-29.07-2.57-36.53-3.22-3.9-8.75-6.07-16.91-6.63-17.36-1.19-22.33,9.88-25.38,30.7-6.07,41.32-12.24,84.47-18.2,126.19-5.66,39.62-11.52,80.59-17.28,119.95-.09.63-.18,1.41-.28,2.28-.9,7.65-1.98,14.27-6.01,17.71-20.55,17.54-31.01,34.28-31.97,51.18-.54,9.46-.8,19.38-1.04,28.98-.66,25.33-1.33,51.53-7.09,76-.97,4.1-.2,9.33,3.12,10.97,1.77.86,4.03.38,5.63-1.21,3.84-3.83,4.41-9.3,4.07-16.87-.13-2.85,1.45-5.5,4.03-6.74,2.56-1.24,5.61-.83,7.75,1.04,7.39,6.46,11.62,16.12,11.31,25.83-.19,6.21-2.1,11.8-3.94,17.21-.4,1.2-.81,2.4-1.2,3.6-2.76,8.63-2.77,14.1-.03,18.3,1.36,2.08,3.56,3.23,5.61,2.95,4.32-.61,5.41-7.32,5.09-11.41-.17-2.03-.52-4.13-.89-6.34-.8-4.81-1.71-10.27-.63-15.87,1.36-7.08,6.87-13.3,13.41-15.12,5.28-1.48,10.51.11,14.34,4.34,1.84,2.04,3.18,4.55,3.99,7.49,4.36,15.79,1.36,33.31-8.04,46.86-8.68,12.51-22.86,21.33-37.92,23.58-4.03.6-8.02.75-11.88.89-5.1.19-9.91.37-14.36,1.55-6.16,1.63-12.47,6.81-11.92,12.31.72,7.17,11.51,10.88,20.43,12.73,22.39,4.64,45.54,9.44,68.52,9.45h.06c13.44,0,26.88-1.63,39.93-4.85,8.31-2.05,14.67-4.48,18.69-9.67,1.19-1.55,1.97-3.28,2.25-5.01,1.19-7.28-6-11.81-12.25-14.33ZM424.94,645.41c-.27.75-1.43,1.22-3.08.61-1.59-.56-3.55-2.38-4.1-5.17-.54-2.8.6-5.22,1.87-6.34,1.3-1.17,2.55-1.17,3.08-.58.57.62.57,1.62.63,2.64.04,1.03.11,2.13.31,3.13.19,1.01.53,2.06.88,3.03.33.97.7,1.89.41,2.68ZM493.82,457.75c-1.1,9.89-7.08,16.28-15.21,16.28-3.96,0-8.12-2-11.12-5.36-3.08-3.44-4.58-7.91-4.09-12.25,1-8.94,5.43-39.33,11.56-81.39,11.42-78.3,28.67-196.64,35.84-260.81,1.1-9.89,7.08-16.28,15.21-16.28,3.96,0,8.12,2.01,11.12,5.36,3.08,3.45,4.58,7.92,4.09,12.25-1,8.95-5.43,39.33-11.56,81.39-11.42,78.31-28.67,196.64-35.84,260.81ZM508.15,619.32c-1.41-1.65-2.79-3.63-3.96-5.86-1.15-2.24-1.97-4.5-2.5-6.61-.51-2.12-.75-4.08-.73-5.73.03-3.32.91-5.35,1.98-5.45,1.12-.11,2.25,1.63,3.55,4.24.64,1.31,1.38,2.84,2.16,4.51.81,1.67,1.68,3.48,2.64,5.36.98,1.87,1.96,3.63,2.86,5.25.91,1.61,1.74,3.09,2.44,4.37,1.38,2.57,2.15,4.49,1.41,5.34-.7.82-2.86.37-5.58-1.52-1.37-.94-2.83-2.26-4.27-3.9ZM551.92,644.83c-.04.17-.12.38-.23.6-.12.2-.26.43-.45.67-.73.97-2,2.07-3.68,3.13-1.68,1.06-3.76,2.11-6.13,3.08-2.39.97-4.98,1.87-8,2.56-5.78,1.25-11.14,1.52-14.99,1.24-3.87-.27-6.22-1.05-6.22-1.86.01-1.7,9.11-2.88,19.93-5.24,2.57-.59,5.19-1.31,7.5-1.93,2.31-.65,4.4-1.23,6.15-1.71,1.74-.5,3.11-.91,4.08-1.16.24-.07.47-.12.68-.16.19-.04.36-.08.52-.09.32-.03.57.01.73.14.15.14.19.38.11.73Z"/>
  <path class="cls-3" d="M429.83,101.88c10.69,8.56,21.39,17.12,32.08,25.68,3.19,2.55,7.49,3.05,10.61,0,2.65-2.59,3.16-8.08,0-10.61-10.69-8.56-21.39-17.12-32.08-25.68-3.19-2.55-7.49-3.05-10.61,0-2.65,2.59-3.16,8.08,0,10.61Z"/>
  <path class="cls-3" d="M481.65,73.18c6.49,7.17,17.07-3.46,10.61-10.61-8.3-9.18-16.61-18.36-24.91-27.53-6.49-7.17-17.07,3.46-10.61,10.61,8.3,9.18,16.61,18.36,24.91,27.53Z"/>
  <path class="cls-3" d="M541.68,52.99l2.41-32.02c.72-9.63-14.28-9.58-15,0l-2.41,32.02c-.72,9.63,14.28,9.58,15,0Z"/>
  <path class="cls-3" d="M603.8,59.79c7.02-6.66-3.6-17.25-10.61-10.61-8.36,7.93-16.73,15.86-25.09,23.79-7.02,6.66,3.6,17.25,10.61,10.61,8.36-7.93,16.73-15.86,25.09-23.79Z"/>
  <path class="cls-3" d="M627.47,110.04c-.99-3.54-5.44-6.79-9.23-5.24-11.66,4.79-23.31,9.58-34.97,14.37-3.73,1.53-6.42,4.99-5.24,9.23.99,3.54,5.44,6.79,9.23,5.24,11.66-4.79,23.31-9.58,34.97-14.37,3.73-1.53,6.42-4.99,5.24-9.23Z"/>
  <path class="cls-3" d="M424.94,645.41c-.27.75-1.43,1.22-3.08.61-1.59-.56-3.55-2.38-4.1-5.17-.54-2.8.6-5.22,1.87-6.34,1.3-1.17,2.55-1.17,3.08-.58.57.62.57,1.62.63,2.64.04,1.03.11,2.13.31,3.13.19,1.01.53,2.06.88,3.03.33.97.7,1.89.41,2.68Z"/>
  <path class="cls-3" d="M551.92,644.83c-.04.17-.12.38-.23.6-.12.2-.26.43-.45.67-.73.97-2,2.07-3.68,3.13-1.68,1.06-3.76,2.11-6.13,3.08-2.39.97-4.98,1.87-8,2.56-5.78,1.25-11.14,1.52-14.99,1.24-3.87-.27-6.22-1.05-6.22-1.86.01-1.7,9.11-2.88,19.93-5.24,2.57-.59,5.19-1.31,7.5-1.93,2.31-.65,4.4-1.23,6.15-1.71,1.74-.5,3.11-.91,4.08-1.16.24-.07.47-.12.68-.16.19-.04.36-.08.52-.09.32-.03.57.01.73.14.15.14.19.38.11.73Z"/>
  <path class="cls-3" d="M518,624.74c-.7.82-2.86.37-5.58-1.52-1.37-.94-2.83-2.26-4.27-3.9-1.41-1.65-2.79-3.63-3.96-5.86-1.15-2.24-1.97-4.5-2.5-6.61-.51-2.12-.75-4.08-.73-5.73.03-3.32.91-5.35,1.98-5.45,1.12-.11,2.25,1.63,3.55,4.24.64,1.31,1.38,2.84,2.16,4.51.81,1.67,1.68,3.48,2.64,5.36.98,1.87,1.96,3.63,2.86,5.25.91,1.61,1.74,3.09,2.44,4.37,1.38,2.57,2.15,4.49,1.41,5.34Z"/>
  <path class="cls-2" d="M535.26,114.89c-2.64,23.69-30.83,207.72-44.03,313.85-1.27,10.25-2.41,19.77-3.37,28.35-.66,5.88-3.71,10.94-9.25,10.94-4.53,0-9.9-5.07-9.25-10.94.52-4.65,2.02-15.45,4.2-30.63,9.99-69.7,34.26-231.54,43.2-311.57.66-5.89,3.71-10.95,9.25-10.95,4.53,0,9.9,5.08,9.25,10.95Z"/>
  <path class="cls-3" d="M513.36,461.51c0,19.49-15.85,35.34-35.33,35.34s-35.34-15.85-35.34-35.34c0-17.97,13.48-32.84,30.87-35.05-2.18,15.18-3.68,25.98-4.2,30.63-.65,5.87,4.72,10.94,9.25,10.94,5.54,0,8.59-5.06,9.25-10.94.96-8.58,2.1-18.1,3.37-28.35,12.96,5.24,22.13,17.95,22.13,32.77Z"/>
  <circle class="cls-2" cx="478.03" cy="461.52" r="29.33"/>
</svg>