<svg xmlns="http://www.w3.org/2000/svg" width="220.558" height="44.105" viewBox="0 0 220.558 44.105">
  <path id="Path_46" data-name="Path 46" d="M605.1,21.435a10.663,10.663,0,0,0-4.629,1.218V36.568a30.019,30.019,0,0,0,3.334.126c4.533,0,5.153-2.025,5.153-4.851V25.2c0-2.084-.709-3.761-3.858-3.761M575,20.675c-3.145,0-3.86,1.684-3.86,3.768v1.17h7.718v-1.17c0-2.084-.717-3.768-3.857-3.768m-58.3,14.488c0,1.647.8,2.5,2.558,2.5a9.554,9.554,0,0,0,4.386-1.218v-3.3H519.52c-1.955,0-2.813.353-2.813,2.013M634.373,21.435c-3.149,0-4.239,1.676-4.239,3.761v7.617c0,2.091,1.09,3.771,4.239,3.771s4.24-1.68,4.24-3.771V25.2c0-2.084-1.1-3.761-4.24-3.761M501.273,43.7h-9.257V21.848H487.39V14.317h4.626V9.8c0-6.143,2.612-9.8,10.031-9.8h6.178V7.531h-3.86c-2.888,0-3.08,1.053-3.08,3.016l-.012,3.77h7l-.819,7.531h-6.178Zm31.639.057H525.2l-.333-1.9a18.054,18.054,0,0,1-8.742,2.213c-5.66,0-8.671-3.686-8.671-8.785,0-6.014,3.514-8.16,9.8-8.16h6.4v-1.3c0-3.072-.361-3.972-5.2-3.972h-7.916l.774-7.531h8.652c10.623,0,12.952,3.274,12.952,11.564ZM559.149,22.4a45.359,45.359,0,0,0-8.49-.98c-4.15,0-5.4.9-5.4,4.329v6.5c0,3.438,1.254,4.332,5.4,4.332a45.061,45.061,0,0,0,8.49-.984v7.343a41.8,41.8,0,0,1-9.26,1.163c-9.94,0-13.889-5.1-13.889-12.461V26.369c0-7.37,3.949-12.476,13.889-12.476a41.9,41.9,0,0,1,9.26,1.165Zm28.97,9.244H571.144v.606c0,3.438,1.254,4.332,5.4,4.332a55.248,55.248,0,0,0,10.8-.984v7.343A49.721,49.721,0,0,1,575.779,44.1c-9.94,0-13.893-5.1-13.893-12.461V25.613c0-6.441,2.935-11.72,13.118-11.72s13.114,5.216,13.114,11.72Zm30.094.138c0,7.118-2.085,12.309-14.721,12.309a71.564,71.564,0,0,1-12.277-1.149V2.261l9.254-1.5V14.985a21.478,21.478,0,0,1,6.945-1.093c9.259,0,10.8,4.048,10.8,10.55Zm29.666.156c0,6.14-2.6,12.094-13.474,12.094s-13.53-5.954-13.53-12.094V26.01c0-6.141,2.648-12.1,13.53-12.1s13.474,5.955,13.474,12.1Zm29.643,0c0,6.14-2.6,12.094-13.473,12.094s-13.53-5.954-13.53-12.094V26.01c0-6.141,2.649-12.1,13.53-12.1s13.473,5.955,13.473,12.1ZM707.948,43.7H697.914L689.43,29.89V43.7h-9.257V2.261l9.257-1.5V27.432l8.483-13.115h10.034l-9.263,14.312ZM664.017,21.435c-3.144,0-4.235,1.676-4.235,3.761v7.617c0,2.091,1.091,3.771,4.235,3.771s4.25-1.68,4.25-3.771V25.2c0-2.084-1.111-3.761-4.25-3.761" transform="translate(-487.39)" fill="#00549e"/>
</svg>
