<svg id="Group_14" data-name="Group 14" xmlns="http://www.w3.org/2000/svg" width="170.025" height="53.123" viewBox="0 0 170.025 53.123">
  <path id="Path_40" data-name="Path 40" d="M21.236,22.241v5.685H34.912A12.008,12.008,0,0,1,31.8,35.087a14.045,14.045,0,0,1-10.559,4.16,14.96,14.96,0,0,1-15-15.112,14.96,14.96,0,0,1,15-15.111,14.594,14.594,0,0,1,10.3,4.067l4.024-4A19.82,19.82,0,0,0,21.236,3.316C9.7,3.316,0,12.651,0,24.112s9.7,20.8,21.236,20.8c6.234,0,10.933-2.034,14.607-5.822C39.611,35.343,40.8,30.05,40.8,25.8a18.106,18.106,0,0,0-.3-3.559Z" transform="translate(0 -3.316)" fill="#4285f4"/>
  <path id="Path_41" data-name="Path 41" d="M61.308,18.823A13.426,13.426,0,1,0,74.868,32.248,13.274,13.274,0,0,0,61.308,18.823m0,21.559a7.789,7.789,0,0,1-7.63-8.134c0-4.83,3.537-8.134,7.63-8.134s7.628,3.3,7.628,8.134a7.787,7.787,0,0,1-7.628,8.134" transform="translate(-3.416 -4.52)" fill="#ea4335"/>
  <path id="Path_42" data-name="Path 42" d="M132.412,21.827H132.2a9.4,9.4,0,0,0-7.118-3c-6.744,0-12.629,5.847-12.629,13.425,0,7.533,5.885,13.425,12.629,13.425a9.255,9.255,0,0,0,7.118-3.05h.209v1.872c0,5.129-2.768,7.879-7.21,7.879a7.49,7.49,0,0,1-6.815-4.783l-5.163,2.126A12.87,12.87,0,0,0,125.2,57.642c6.955,0,12.84-4.066,12.84-13.98V19.517h-5.629ZM125.6,40.382c-4.093,0-7.21-3.466-7.21-8.134,0-4.737,3.117-8.134,7.21-8.134,4.048,0,7.21,3.465,7.21,8.18.023,4.691-3.163,8.087-7.21,8.087" transform="translate(-8.044 -4.52)" fill="#4285f4"/>
  <path id="Path_43" data-name="Path 43" d="M93.874,18.823a13.426,13.426,0,1,0,13.559,13.425A13.274,13.274,0,0,0,93.874,18.823m0,21.559a7.788,7.788,0,0,1-7.629-8.134c0-4.83,3.535-8.134,7.629-8.134s7.629,3.3,7.629,8.134a7.787,7.787,0,0,1-7.629,8.134" transform="translate(-5.745 -4.52)" fill="#fbbc05"/>
  <rect id="Rectangle_62" data-name="Rectangle 62" width="5.838" height="40.599" transform="translate(134.648 0.555)" fill="#34a853"/>
  <path id="Path_44" data-name="Path 44" d="M169.692,40.382a6.882,6.882,0,0,1-6.559-4.067L181.206,28.9l-.605-1.525c-1.116-3-4.559-8.55-11.559-8.55-6.954,0-12.746,5.43-12.746,13.425a13.167,13.167,0,0,0,13.4,13.425,13.5,13.5,0,0,0,11.257-5.939l-4.605-3.05a7.749,7.749,0,0,1-6.652,3.7m-.418-16.522a5.347,5.347,0,0,1,5.117,2.958L162.18,31.832c0-5.639,4.024-7.972,7.094-7.972" transform="translate(-11.18 -4.52)" fill="#ea4335"/>
</svg>
