<svg xmlns="http://www.w3.org/2000/svg" width="228.713" height="36.7" viewBox="0 0 228.713 36.7">
  <path id="Path_45" data-name="Path 45" d="M342.652,13.9a9.615,9.615,0,0,1,7.632,3.395V4.335a.629.629,0,0,1,.413-.584.605.605,0,0,1,.25-.05h5.96a.639.639,0,0,1,.6.394.576.576,0,0,1,.053.24V39.209a.644.644,0,0,1-.653.625h-5.763a.841.841,0,0,1-.859-.822V37a9.615,9.615,0,0,1-7.632,3.4c-7.06,0-12.473-6.06-12.473-13.258S335.591,13.9,342.652,13.9M337.5,27.143a6.692,6.692,0,1,0,13.377,0,6.692,6.692,0,1,0-13.377,0m-17.574,2.433v-8.4a.59.59,0,0,1,.188-.445.677.677,0,0,1,.467-.189h5.107a.645.645,0,0,0,.653-.634V15.084a.65.65,0,0,0-.653-.628h-5.107a.644.644,0,0,1-.656-.634V8.03a.655.655,0,0,0-.653-.634H313.3a.646.646,0,0,0-.6.393.564.564,0,0,0-.053.241c0,6.049-.163,6.4-4.511,6.417a.869.869,0,0,0-.6.242.879.879,0,0,0-.25.582v4.45a.833.833,0,0,0,.527.761,1.03,1.03,0,0,0,.322.062H312a.634.634,0,0,1,.656.634v9.761c0,6.205,4.508,9.189,10.136,9.189a16.593,16.593,0,0,0,4.117-.421.637.637,0,0,0,.5-.616V34.273a.651.651,0,0,0-.526-.61.72.72,0,0,0-.3,0,9.4,9.4,0,0,1-2.148.224c-3.132,0-4.511-1.217-4.511-4.311m-70.64-2.433c0-7.517,5.887-13.244,13.956-13.244,6.952,0,13.048,4.262,13.063,12.5,0,.487,0,1.036-.053,1.79a.667.667,0,0,1-.661.593H256.35c.421,3.4,3.552,5.278,7.062,5.278a8.324,8.324,0,0,0,6.477-2.716.649.649,0,0,1,.875-.1l4.368,3.094a.616.616,0,0,1,.24.669.545.545,0,0,1-.107.221c-2.5,3.112-6.629,5.179-11.918,5.179-7.909,0-14.064-5.246-14.064-13.258m13.751-7.508c-2.719,0-5.743,1.309-6.433,4.412h12.429c-.637-3-3.285-4.412-6-4.412m34-5.179h7.007a.668.668,0,0,1,.581.336.615.615,0,0,1-.036.651L296.509,27.03a.591.591,0,0,0,0,.72l8.248,11.073a.633.633,0,0,1-.527,1h-7.015a.673.673,0,0,1-.527-.265l-5.342-7.251L286,39.561a.684.684,0,0,1-.538.265h-7.06a.669.669,0,0,1-.589-.351.615.615,0,0,1,.053-.652l8.266-11.073a.62.62,0,0,0,0-.72l-8.088-11.587a.629.629,0,0,1,.207-.9.7.7,0,0,1,.339-.086h6.954a.668.668,0,0,1,.546.284l5.2,7.481,5.2-7.481a.666.666,0,0,1,.546-.284m140.1-.307a7.056,7.056,0,0,0-6.576,4.362V15.084a.644.644,0,0,0-.653-.628h-5.96a.647.647,0,0,0-.662.628V39.192a.646.646,0,0,0,.662.625h5.96a.643.643,0,0,0,.653-.625v-11.5c0-4.158,2.281-6.747,5.727-6.747a9.877,9.877,0,0,1,2.469.318.652.652,0,0,0,.751-.327.576.576,0,0,0,.074-.274V14.946a.648.648,0,0,0-.529-.625,9.409,9.409,0,0,0-1.915-.171M361.164,27.143c0-7.415,6.265-13.244,13.958-13.244s13.95,5.822,13.95,13.244S382.817,40.4,375.122,40.4s-13.958-5.854-13.958-13.258m7.321,0a6.609,6.609,0,1,0,13.214,0,6.606,6.606,0,1,0-13.208-.009ZM405.732,13.9c-7.693,0-13.956,5.83-13.956,13.244S398.039,40.4,405.732,40.4s13.95-5.839,13.95-13.258S413.429,13.9,405.732,13.9m0,19.988a6.492,6.492,0,0,1-6.637-6.744,6.609,6.609,0,1,1,13.214-.009,6.445,6.445,0,0,1-6.577,6.753M220.891,19.068a13.743,13.743,0,0,1,11.391-5.476c7.559,0,13.393,5.185,13.393,11.776V39.192a.643.643,0,0,1-.653.625H239.01a.631.631,0,0,1-.653-.625V26.326a6.127,6.127,0,0,0-6.075-6.1,6,6,0,0,0-6.077,6.1V39.184a.647.647,0,0,1-.662.633h-6a.652.652,0,0,1-.607-.385.728.728,0,0,1-.046-.24V26.747a.841.841,0,0,0-.653-.8c-5.281-1.389-7.23-5.264-7.365-10.808a.635.635,0,0,1,.4-.592.685.685,0,0,1,.259-.051h4.732v.036H217.7a.653.653,0,0,1,.656.607c.071,2.271.535,3.488,1.654,4.131a.665.665,0,0,0,.877-.206" transform="translate(-210.87 -3.701)" fill="#8ed500" fill-rule="evenodd"/>
</svg>
