<?xml version="1.0" encoding="UTF-8" standalone="no"?>
<!DOCTYPE svg PUBLIC "-//W3C//DTD SVG 1.1//EN" "http://www.w3.org/Graphics/SVG/1.1/DTD/svg11.dtd">
<svg width="100%" height="100%" viewBox="0 0 652 171" version="1.1" xmlns="http://www.w3.org/2000/svg" xmlns:xlink="http://www.w3.org/1999/xlink" xml:space="preserve" xmlns:serif="http://www.serif.com/" style="fill-rule:evenodd;clip-rule:evenodd;stroke-linejoin:round;stroke-miterlimit:2;">
    <g>
        <path d="M68.293,83.947L163.524,83.1C163.527,82.827 163.53,82.554 163.53,82.281C163.53,79.958 163.432,77.661 163.244,75.388L71.749,74.423C71.314,74.423 70.967,74.073 70.967,73.641C70.967,73.21 71.314,72.859 71.749,72.859L162.889,72.012C162.562,69.396 162.111,66.819 161.541,64.284L75.165,63.336C74.734,63.336 74.383,62.985 74.383,62.553C74.383,62.122 74.734,61.771 75.165,61.771L160.715,60.938C160.007,58.301 159.167,55.721 158.206,53.199L78.618,52.245C78.187,52.245 77.836,51.898 77.836,51.466C77.836,51.034 78.187,50.684 78.618,50.684L156.843,49.847C144.289,20.823 115.399,0.512 81.764,0.512C41.73,0.512 8.416,29.287 1.372,67.282L118.707,65.653L117.146,70.673L1.099,68.839C0.583,71.945 0.249,75.108 0.097,78.322L115.264,76.683L113.706,81.704L0.036,79.87C0.016,80.673 0,81.471 0,82.281C0,84.659 0.101,87.015 0.3,89.339L111.825,87.716L110.267,92.738L0.451,90.927C0.789,94.124 1.308,97.263 2.003,100.339L108.422,98.748L106.864,103.768L2.397,102.004C3.19,105.211 4.178,108.344 5.338,111.389L104.969,109.78L103.411,114.802L5.989,113.038C7.303,116.282 8.828,119.425 10.534,122.446L101.567,120.811L100.009,125.832L11.478,124.069C13.451,127.38 15.653,130.539 18.061,133.528L97.627,131.845L96.066,136.866L19.346,135.082C34.342,152.796 56.737,164.042 81.764,164.042C117.699,164.042 148.217,140.865 159.183,108.641L61.383,107.687C60.951,107.687 60.601,107.336 60.601,106.904C60.601,106.473 60.951,106.122 61.383,106.122L160.249,105.282C160.988,102.753 161.608,100.173 162.104,97.547L64.836,96.599C64.405,96.599 64.054,96.249 64.054,95.817C64.054,95.385 64.405,95.035 64.836,95.035L162.67,94.165C163.038,91.638 163.294,89.073 163.423,86.476L68.293,85.511C67.861,85.511 67.511,85.161 67.511,84.729C67.511,84.298 67.861,83.947 68.293,83.947Z" style="fill:rgb(238,55,35);fill-rule:nonzero;"/>
        <path d="M350.759,51.462L326.341,51.462L292.626,108.538L315.587,108.538L320.822,98.248L335.069,98.248L335.656,108.538L355.447,108.538L350.759,51.462ZM326.661,84.87L334.233,68.687L334.579,84.87L326.661,84.87Z" style="fill:rgb(238,55,35);fill-rule:nonzero;"/>
        <path d="M290.479,70.251C289.646,72.941 287.926,73.548 284.308,73.592L279.486,73.592L281.775,66.173L286.274,66.173C289.383,66.173 291.227,67.839 290.479,70.251ZM309.663,68.251C310.985,62.305 308.564,51.461 289.13,51.461L264.718,51.461L246.614,108.537L268.381,108.537L275.509,85.544L282.756,108.537L304.965,108.537L294.336,84.99C304.379,81.887 307.798,76.677 309.663,68.251Z" style="fill:rgb(238,55,35);fill-rule:nonzero;"/>
        <path d="M261.523,51.462L208.709,51.462L203.162,68.994L219.976,68.994L207.441,108.538L229.036,108.538L241.571,68.994L255.974,68.994L261.523,51.462Z" style="fill:rgb(238,55,35);fill-rule:nonzero;"/>
        <path d="M465.643,67.803L470.806,51.462L429.48,51.462L411.378,108.538L452.765,108.538L457.681,93.061L437.121,93.061L438.878,87.513L459.367,87.513L463.953,73.03L443.471,73.03L445.126,67.803L465.643,67.803Z" style="fill:rgb(238,55,35);fill-rule:nonzero;"/>
        <path d="M386.267,108.538L406.642,108.538L424.743,51.461L403.145,51.461L395.584,76.743L389.191,51.461L368.627,51.461L350.522,108.538L372.12,108.538L379.785,82.89L386.267,108.538Z" style="fill:rgb(238,55,35);fill-rule:nonzero;"/>
        <path d="M480.51,54.362L480.51,52.322L481.869,52.322C482.564,52.322 483.302,52.474 483.302,53.29C483.302,54.301 482.547,54.362 481.703,54.362L480.51,54.362ZM480.51,55.209L481.657,55.209L483.394,58.061L484.513,58.061L482.638,55.161C483.606,55.04 484.348,54.527 484.348,53.35C484.348,52.052 483.575,51.479 482.021,51.479L479.512,51.479L479.512,58.061L480.51,58.061L480.51,55.209ZM481.717,60.476C484.83,60.476 487.488,58.061 487.488,54.754C487.488,51.479 484.83,49.061 481.717,49.061C478.577,49.061 475.92,51.479 475.92,54.754C475.92,58.061 478.577,60.476 481.717,60.476ZM477.067,54.754C477.067,52.052 479.104,50.012 481.717,50.012C484.3,50.012 486.337,52.052 486.337,54.754C486.337,57.502 484.3,59.525 481.717,59.525C479.104,59.525 477.067,57.502 477.067,54.754Z" style="fill:rgb(238,55,35);fill-rule:nonzero;"/>
        <path d="M200.714,163.593L206.631,136.741L212.347,136.741L206.43,163.593L200.714,163.593Z" style="fill:rgb(124,136,143);fill-rule:nonzero;"/>
        <path d="M213.233,159.849C213.233,159.608 213.273,159.003 213.395,158.52L215.568,148.618L212.347,148.618L213.355,144.149L216.574,144.149L217.741,138.836L222.855,138.836L221.687,144.149L225.633,144.149L224.625,148.618L220.68,148.618L218.789,157.153C218.749,157.393 218.749,157.595 218.749,157.836C218.749,158.883 219.353,159.528 220.64,159.528C221.163,159.528 221.807,159.325 222.049,159.123L222.211,163.231C221.486,163.754 220.279,164.076 219.031,164.076C215.568,164.076 213.233,162.747 213.233,159.849Z" style="fill:rgb(124,136,143);fill-rule:nonzero;"/>
        <path d="M229.857,147.691L228.046,145.76C229.455,145.114 231.306,143.827 231.991,142.378C231.869,142.418 231.669,142.418 231.548,142.418C230.22,142.418 229.051,141.532 229.051,139.801C229.051,137.908 230.824,136.339 232.635,136.339C234.285,136.339 235.775,137.467 235.775,139.64C235.775,142.699 233.199,146.041 229.857,147.691Z" style="fill:rgb(124,136,143);fill-rule:nonzero;"/>
        <path d="M232.393,160.572L235.251,156.99C236.418,158.36 239.237,160.051 242.055,160.051C243.786,160.051 244.871,159.123 244.871,158.038C244.871,155.42 234.97,156.066 234.97,150.227C234.97,146.847 237.787,143.665 242.981,143.665C246.281,143.665 249.381,144.914 251.234,146.805L248.575,150.227C247.65,149.02 245.236,147.691 242.859,147.691C241.048,147.691 240.042,148.496 240.042,149.503C240.042,151.878 249.945,151.355 249.945,157.273C249.945,160.977 246.844,164.076 241.532,164.076C237.988,164.076 234.566,162.867 232.393,160.572Z" style="fill:rgb(124,136,143);fill-rule:nonzero;"/>
        <path d="M280.337,163.593L282.834,152.279L270.153,152.279L267.658,163.593L261.941,163.593L267.858,136.741L273.574,136.741L271.28,147.289L283.919,147.289L286.256,136.741L292.012,136.741L286.094,163.593L280.337,163.593Z" style="fill:rgb(124,136,143);fill-rule:nonzero;"/>
        <path d="M303.886,159.003L304.409,156.629C303.644,155.501 301.952,154.777 300.02,154.777C297.766,154.777 296.317,156.146 296.317,158.038C296.317,159.728 297.686,160.614 299.82,160.614C301.591,160.614 302.918,159.969 303.886,159.003ZM302.878,163.593L303.282,161.62C301.832,163.11 299.98,164.076 297.484,164.076C294.184,164.076 291.083,162.224 291.083,158.44C291.083,154.013 294.425,151.355 298.289,151.355C301.108,151.355 303.2,152.159 304.973,153.971L305.494,151.758C305.536,151.596 305.576,151.112 305.576,150.831C305.576,149.06 303.684,147.893 301.028,147.893C299.015,147.893 297.202,148.578 295.633,149.745L294.425,146.041C296.68,144.431 299.336,143.665 302.115,143.665C306.703,143.665 310.81,145.396 310.81,149.825C310.81,150.267 310.69,151.395 310.568,151.918L307.991,163.593L302.878,163.593Z" style="fill:rgb(124,136,143);fill-rule:nonzero;"/>
        <path d="M312.298,163.593L316.606,144.149L321.719,144.149L321.155,146.685C322.846,144.832 324.939,143.665 328.038,143.665L326.911,148.737C326.59,148.658 325.866,148.496 325.061,148.496C323.168,148.496 321.357,149.543 320.23,150.831L317.411,163.593L312.298,163.593Z" style="fill:rgb(124,136,143);fill-rule:nonzero;"/>
        <path d="M332.424,154.978C332.424,157.756 334.278,159.528 336.732,159.528C338.544,159.528 340.154,158.52 341.201,157.193L342.69,150.469C341.845,149.142 340.196,148.214 338.141,148.214C334.801,148.214 332.424,151.395 332.424,154.978ZM343.535,146.725L345.71,136.741L350.863,136.741L344.905,163.593L339.752,163.593L340.316,161.178C338.664,163.11 336.814,164.076 334.479,164.076C330.09,164.076 327.072,161.178 327.072,156.026C327.072,150.147 330.734,143.665 337.337,143.665C339.953,143.665 342.248,144.792 343.535,146.725Z" style="fill:rgb(124,136,143);fill-rule:nonzero;"/>
        <path d="M365.836,163.593L370.667,141.775L362.818,141.775L363.905,136.741L385.321,136.741L384.235,141.775L376.383,141.775L371.593,163.593L365.836,163.593Z" style="fill:rgb(124,136,143);fill-rule:nonzero;"/>
        <path d="M394.901,152.764C394.901,149.945 393.209,148.214 390.391,148.214C386.971,148.214 384.595,151.476 384.595,154.978C384.595,157.796 386.325,159.528 389.144,159.528C392.566,159.528 394.901,156.266 394.901,152.764ZM379.322,155.22C379.322,149.182 383.991,143.665 390.553,143.665C396.753,143.665 400.215,147.409 400.215,152.522C400.215,158.56 395.544,164.076 388.942,164.076C382.743,164.076 379.322,160.332 379.322,155.22Z" style="fill:rgb(124,136,143);fill-rule:nonzero;"/>
        <path d="M410.881,159.043L414.423,154.817C416.276,157.313 419.778,159.003 423.481,159.003C426.379,159.003 427.546,157.353 427.546,155.984C427.546,152.199 414.463,152.925 414.463,145.074C414.463,140.647 418.368,136.339 424.97,136.339C429.238,136.339 433.263,137.908 435.678,140.687L432.096,144.792C430.083,142.458 426.823,141.37 424.084,141.37C422.032,141.37 420.501,142.579 420.501,144.028C420.501,147.53 433.625,147.087 433.625,154.857C433.625,159.769 429.681,164.076 423.037,164.076C417.765,164.076 413.135,162.024 410.881,159.043Z" style="fill:rgb(124,136,143);fill-rule:nonzero;"/>
        <path d="M436.483,159.849C436.483,159.608 436.523,159.003 436.645,158.52L438.818,148.618L435.598,148.618L436.605,144.149L439.824,144.149L440.992,138.836L446.105,138.836L444.938,144.149L448.883,144.149L447.876,148.618L443.931,148.618L442.039,157.153C441.999,157.393 441.999,157.595 441.999,157.836C441.999,158.883 442.603,159.528 443.891,159.528C444.414,159.528 445.058,159.325 445.299,159.123L445.461,163.231C444.736,163.754 443.529,164.076 442.282,164.076C438.818,164.076 436.483,162.747 436.483,159.849Z" style="fill:rgb(124,136,143);fill-rule:nonzero;"/>
        <path d="M463.978,152.764C463.978,149.945 462.287,148.214 459.469,148.214C456.049,148.214 453.672,151.476 453.672,154.978C453.672,157.796 455.404,159.528 458.222,159.528C461.644,159.528 463.978,156.266 463.978,152.764ZM448.4,155.22C448.4,149.182 453.069,143.665 459.631,143.665C465.83,143.665 469.292,147.409 469.292,152.522C469.292,158.56 464.621,164.076 458.02,164.076C451.822,164.076 448.4,160.332 448.4,155.22Z" style="fill:rgb(124,136,143);fill-rule:nonzero;"/>
        <path d="M487.165,152.764C487.165,149.986 485.353,148.214 482.859,148.214C481.087,148.214 479.477,149.222 478.429,150.549L476.9,157.273C477.745,158.602 479.397,159.528 481.449,159.528C484.831,159.528 487.165,156.347 487.165,152.764ZM476.095,161.017L473.88,171L468.769,171L474.726,144.149L479.838,144.149L479.275,146.565C480.926,144.632 482.819,143.665 485.153,143.665C489.54,143.665 492.519,146.565 492.519,151.718C492.519,157.555 488.897,164.076 482.295,164.076C479.678,164.076 477.384,162.949 476.095,161.017Z" style="fill:rgb(124,136,143);fill-rule:nonzero;"/>
        <path d="M519.611,142.458L512.887,154.013L521.261,154.013L519.611,142.458ZM522.388,163.593L521.703,159.043L510.19,159.043L507.533,163.593L500.73,163.593L516.992,136.741L524.159,136.741L528.587,163.593L522.388,163.593Z" style="fill:rgb(124,136,143);fill-rule:nonzero;"/>
        <path d="M546.821,163.593L551.651,141.775L543.802,141.775L544.889,136.741L566.304,136.741L565.218,141.775L557.367,141.775L552.576,163.593L546.821,163.593Z" style="fill:rgb(124,136,143);fill-rule:nonzero;"/>
        <path d="M560.789,163.593L565.097,144.149L570.209,144.149L569.646,146.685C571.337,144.832 573.43,143.665 576.53,143.665L575.403,148.737C575.08,148.658 574.357,148.496 573.551,148.496C571.658,148.496 569.848,149.543 568.72,150.831L565.903,163.593L560.789,163.593Z" style="fill:rgb(124,136,143);fill-rule:nonzero;"/>
        <path d="M587.921,159.003L588.445,156.629C587.679,155.501 585.989,154.777 584.056,154.777C581.801,154.777 580.352,156.146 580.352,158.038C580.352,159.728 581.721,160.614 583.856,160.614C585.626,160.614 586.953,159.969 587.921,159.003ZM586.913,163.593L587.318,161.62C585.868,163.11 584.016,164.076 581.519,164.076C578.219,164.076 575.119,162.224 575.119,158.44C575.119,154.013 578.461,151.355 582.324,151.355C585.143,151.355 587.236,152.159 589.008,153.971L589.531,151.758C589.572,151.596 589.612,151.112 589.612,150.831C589.612,149.06 587.719,147.893 585.063,147.893C583.05,147.893 581.238,148.578 579.668,149.745L578.461,146.041C580.715,144.431 583.371,143.665 586.15,143.665C590.74,143.665 594.845,145.396 594.845,149.825C594.845,150.267 594.725,151.395 594.603,151.918L592.027,163.593L586.913,163.593Z" style="fill:rgb(124,136,143);fill-rule:nonzero;"/>
        <path d="M609.457,163.593L612.074,151.798C612.156,151.436 612.236,151.032 612.236,150.671C612.236,148.9 610.786,148.214 608.894,148.214C607.163,148.214 605.472,149.382 604.345,150.469L601.447,163.593L596.334,163.593L600.641,144.149L605.754,144.149L605.191,146.645C606.721,145.196 608.814,143.665 611.672,143.665C615.416,143.665 617.75,145.598 617.75,148.618C617.75,148.98 617.63,149.825 617.549,150.227L614.611,163.593L609.457,163.593Z" style="fill:rgb(124,136,143);fill-rule:nonzero;"/>
        <path d="M635.382,152C635.422,151.918 635.422,151.676 635.422,151.596C635.422,149.623 633.973,147.853 630.912,147.853C628.135,147.853 626.081,149.865 625.68,152L635.382,152ZM620.003,155.34C620.003,149.02 624.754,143.665 631.235,143.665C636.227,143.665 639.971,146.887 639.971,152.321C639.971,153.488 639.729,154.938 639.568,155.541L625.116,155.541L625.116,156.026C625.116,157.675 626.847,159.889 630.469,159.889C632.201,159.889 634.173,159.405 635.382,158.48L636.951,162.064C635.06,163.351 632.484,164.076 630.068,164.076C623.948,164.076 620.003,160.775 620.003,155.34Z" style="fill:rgb(124,136,143);fill-rule:nonzero;"/>
        <path d="M639.446,161.057C639.446,159.123 641.097,157.515 643.03,157.515C644.679,157.515 646.008,158.883 646.008,160.532C646.008,162.465 644.357,164.076 642.426,164.076C640.775,164.076 639.446,162.707 639.446,161.057Z" style="fill:rgb(124,136,143);fill-rule:nonzero;"/>
        <path d="M647.676,141.007L646.435,141.007L645.999,142.937L647.423,142.937C648.227,142.937 648.662,142.408 648.662,141.811C648.662,141.375 648.411,141.007 647.676,141.007ZM647.745,145.876L646.78,143.672L645.838,143.672L645.356,145.876L644.506,145.876L645.723,140.296L647.883,140.296C648.962,140.296 649.559,141.007 649.559,141.766C649.559,142.799 648.662,143.65 647.721,143.65L648.733,145.876L647.745,145.876ZM646.986,139.009C644.737,139.009 642.945,140.801 642.945,143.074C642.945,145.303 644.737,147.14 646.986,147.14C649.238,147.14 651.075,145.303 651.075,143.074C651.075,140.801 649.238,139.009 646.986,139.009ZM646.986,147.944C644.299,147.944 642.141,145.761 642.141,143.074C642.141,140.365 644.323,138.205 647.01,138.205C649.719,138.205 651.879,140.365 651.879,143.074C651.879,145.761 649.697,147.944 646.986,147.944Z" style="fill:rgb(124,136,143);fill-rule:nonzero;"/>
    </g>
</svg>
