<?xml version="1.0" encoding="UTF-8"?>
<svg id="Layer_1" data-name="Layer 1" xmlns="http://www.w3.org/2000/svg" viewBox="0 0 460 460">
  <defs>
    <style>
      .cls-1 {
        fill: #f6921e;
      }

      .cls-2 {
        fill: #f1f2f2;
      }

      .cls-3 {
        fill: #3f3f3e;
      }
    </style>
  </defs>
  <path class="cls-3" d="M395.66,133.37H64.34c-10.86,0-19.69,8.83-19.69,19.69v122.81c0,27.99,22.77,50.76,50.76,50.76h269.18c27.99,0,50.76-22.77,50.76-50.76v-122.81c0-10.86-8.83-19.69-19.69-19.69ZM87.45,144.88h284.25v46.55c0,9.59-7.79,17.39-17.39,17.39H104.84c-9.59,0-17.39-7.8-17.39-17.39v-46.55ZM403.85,275.87c0,21.64-17.61,39.26-39.26,39.26h-10.96v-16.76c0-13.09-10.66-23.76-23.76-23.76h-74.15c-3.18,0-5.75,2.57-5.75,5.75s2.57,5.75,5.75,5.75h74.15c6.76,0,12.25,5.5,12.25,12.25v16.76H95.41c-21.65,0-39.26-17.62-39.26-39.26v-122.81c0-4.51,3.67-8.18,8.18-8.18h11.61v46.55c0,15.93,12.96,28.9,28.9,28.9h249.46c15.93,0,28.9-12.96,28.9-28.9v-46.55h12.47c4.51,0,8.18,3.67,8.18,8.18v122.81Z"/>
  <path class="cls-1" d="M87.45,144.88v46.55c0,9.59,7.8,17.39,17.39,17.39h249.46c9.6,0,17.39-7.8,17.39-17.39v-46.55H87.45ZM353.24,198.7H103.73c-2.44,0-4.42-1.98-4.42-4.42s1.98-4.42,4.42-4.42h249.51c2.44,0,4.42,1.98,4.42,4.42s-1.98,4.42-4.42,4.42ZM353.24,180.99H103.73c-2.44,0-4.42-1.98-4.42-4.42s1.98-4.42,4.42-4.42h249.51c2.44,0,4.42,1.98,4.42,4.42s-1.98,4.42-4.42,4.42ZM353.24,162.08H103.73c-2.44,0-4.42-1.98-4.42-4.42s1.98-4.42,4.42-4.42h249.51c2.44,0,4.42,1.98,4.42,4.42s-1.98,4.42-4.42,4.42Z"/>
  <path class="cls-2" d="M395.66,144.88h-12.47v46.55c0,15.93-12.96,28.9-28.9,28.9H104.84c-15.93,0-28.9-12.96-28.9-28.9v-46.55h-11.61c-4.51,0-8.18,3.67-8.18,8.18v122.81c0,21.64,17.61,39.26,39.26,39.26h246.72v-16.76c0-6.75-5.49-12.25-12.25-12.25h-74.15c-3.18,0-5.75-2.57-5.75-5.75s2.57-5.75,5.75-5.75h74.15c13.09,0,23.76,10.66,23.76,23.76v16.76h10.96c21.65,0,39.26-17.62,39.26-39.26v-122.81c0-4.51-3.67-8.18-8.18-8.18ZM108.85,290.6c-5.65,0-10.24-4.58-10.24-10.24s4.58-10.23,10.24-10.23,10.23,4.58,10.23,10.23-4.58,10.24-10.23,10.24ZM140.04,290.6c-5.64,0-10.23-4.58-10.23-10.24s4.58-10.23,10.23-10.23,10.24,4.58,10.24,10.23-4.58,10.24-10.24,10.24ZM358.36,246.78H98.61v-8.85h259.75v8.85Z"/>
  <path class="cls-3" d="M119.08,280.36c0,5.65-4.58,10.24-10.23,10.24s-10.24-4.58-10.24-10.24,4.58-10.23,10.24-10.23,10.23,4.58,10.23,10.23Z"/>
  <path class="cls-3" d="M150.27,280.36c0,5.65-4.58,10.24-10.24,10.24s-10.23-4.58-10.23-10.24,4.58-10.23,10.23-10.23,10.24,4.58,10.24,10.23Z"/>
  <path class="cls-3" d="M357.66,157.66c0,2.44-1.98,4.42-4.42,4.42H103.73c-2.44,0-4.42-1.98-4.42-4.42s1.98-4.42,4.42-4.42h249.51c2.44,0,4.42,1.98,4.42,4.42Z"/>
  <path class="cls-3" d="M357.66,176.57c0,2.44-1.98,4.42-4.42,4.42H103.73c-2.44,0-4.42-1.98-4.42-4.42s1.98-4.42,4.42-4.42h249.51c2.44,0,4.42,1.98,4.42,4.42Z"/>
  <path class="cls-3" d="M357.66,194.27c0,2.44-1.98,4.42-4.42,4.42H103.73c-2.44,0-4.42-1.98-4.42-4.42s1.98-4.42,4.42-4.42h249.51c2.44,0,4.42,1.98,4.42,4.42Z"/>
  <rect class="cls-3" x="98.61" y="237.93" width="259.75" height="8.85"/>
</svg>