<?xml version="1.0" encoding="UTF-8"?>
<svg id="Layer_1" data-name="Layer 1" xmlns="http://www.w3.org/2000/svg" viewBox="0 0 460 460">
  <defs>
    <style>
      .cls-1 {
        fill: #f6921e;
      }

      .cls-2 {
        fill: #f1f2f2;
      }

      .cls-3 {
        fill: #3f3f3e;
      }
    </style>
  </defs>
  <path class="cls-3" d="M292.42,94.13c-11.77,0-21.67,8.19-24.28,19.17h-89.14c-28.51,0-54.93,9.08-76.54,24.51-3.45-1.8-7.3-2.75-11.3-2.75-6.52,0-12.67,2.54-17.27,7.16l-.14.13c-4.62,4.62-7.16,10.76-7.16,17.28,0,4.21,1.06,8.25,3.05,11.84-14.28,21.09-22.63,46.5-22.63,73.83v86.5c-8.76,3.74-14.91,12.44-14.91,22.56,0,13.53,11.01,24.53,24.53,24.53h117.48c13.52,0,24.53-11.01,24.53-24.53,0-9.7-5.66-18.1-13.84-22.07v-51.92c.88.11,1.78.15,2.68.15,6.52,0,12.67-2.55,17.27-7.16l.14-.14c4.62-4.61,7.16-10.75,7.16-17.27,0-1.65-.16-3.27-.47-4.86h58.5c4.09,8.2,12.57,13.84,22.35,13.84,13.76,0,24.96-11.19,24.96-24.96v-120.88c0-13.76-11.19-24.97-24.96-24.97ZM58.59,245.3c0-23.78,6.93-45.97,18.88-64.66l92.73,92.73c.94.94,1.94,1.79,3,2.55v.33H58.59v-30.95ZM58.59,287.83h114.61v42H58.59v-42ZM187.05,354.36c0,7.14-5.8,12.94-12.94,12.94H56.62c-7.14,0-12.94-5.8-12.94-12.94s5.8-12.94,12.94-12.94h117.48c7.14,0,12.94,5.8,12.94,12.94ZM196.7,265.03l-.14.13c-2.42,2.43-5.65,3.77-9.08,3.77-.7,0-1.39-.05-2.07-.17-2.65-.42-5.08-1.67-7.01-3.6l-3.06-3.06-91.07-91.06-2.34-2.34c-2.29-2.29-3.62-5.3-3.74-8.53-.02-.19-.02-.37-.02-.55,0-3.43,1.34-6.66,3.76-9.08l.14-.14c2.42-2.42,5.65-3.76,9.08-3.76.07,0,.15,0,.22,0,3.35.05,6.49,1.38,8.86,3.75l96.46,96.46c1.58,1.58,2.69,3.49,3.28,5.59.31,1.12.48,2.3.48,3.49,0,3.43-1.34,6.66-3.76,9.08ZM206.22,239.54c-.16,0-.32,0-.48.03-.28-.3-.55-.6-.85-.89l-93.19-93.19c19.23-13,42.39-20.6,67.29-20.6h27.22v114.65ZM267.45,239.51h-49.65v-114.61h49.65v114.61ZM305.79,239.98c0,7.37-6,13.37-13.37,13.37s-13.38-6-13.38-13.37v-120.88c0-7.37,6-13.38,13.38-13.38s13.37,6.01,13.37,13.38v120.88Z"/>
  <path class="cls-1" d="M187.05,354.36c0,7.14-5.8,12.94-12.94,12.94H56.62c-7.14,0-12.94-5.8-12.94-12.94s5.8-12.94,12.94-12.94h117.48c7.14,0,12.94,5.8,12.94,12.94Z"/>
  <rect class="cls-2" x="58.59" y="287.83" width="114.61" height="42"/>
  <path class="cls-2" d="M173.2,275.92v.33H58.59v-30.95c0-23.78,6.93-45.97,18.88-64.66l92.73,92.73c.94.94,1.94,1.79,3,2.55Z"/>
  <path class="cls-1" d="M200.46,255.95c0,3.43-1.34,6.66-3.76,9.08l-.14.13c-2.42,2.43-5.65,3.77-9.08,3.77-.7,0-1.39-.05-2.07-.17-2.65-.42-5.08-1.67-7.01-3.6l-3.06-3.06-91.07-91.06-2.34-2.34c-2.29-2.29-3.62-5.3-3.74-8.53-.02-.19-.02-.37-.02-.55,0-3.43,1.34-6.66,3.76-9.08l.14-.14c2.42-2.42,5.65-3.76,9.08-3.76.07,0,.15,0,.22,0,3.35.05,6.49,1.38,8.86,3.75l96.46,96.46c1.58,1.58,2.69,3.49,3.28,5.59.31,1.12.48,2.3.48,3.49Z"/>
  <path class="cls-2" d="M206.22,124.89v114.65c-.16,0-.32,0-.48.03-.28-.3-.55-.6-.85-.89l-93.19-93.19c19.23-13,42.39-20.6,67.29-20.6h27.22Z"/>
  <path class="cls-1" d="M305.79,119.1v120.88c0,7.37-6,13.37-13.37,13.37s-13.38-6-13.38-13.37v-120.88c0-7.37,6-13.38,13.38-13.38s13.37,6.01,13.37,13.38Z"/>
  <rect class="cls-2" x="217.81" y="124.89" width="49.65" height="114.61"/>
  <g>
    <path class="cls-3" d="M414.31,142.4h-74.62c-3.2,0-5.79-2.59-5.79-5.79s2.59-5.79,5.79-5.79h74.62c10.51,0,19.06-8.55,19.06-19.06s-8.55-19.06-19.06-19.06h-13.61c-3.2,0-5.79-2.59-5.79-5.79s2.59-5.79,5.79-5.79h13.61c16.9,0,30.64,13.75,30.64,30.64s-13.75,30.64-30.64,30.64Z"/>
    <path class="cls-3" d="M423.58,201.52h-7.63c-3.2,0-5.79-2.59-5.79-5.79s2.59-5.79,5.79-5.79h7.63c5.4,0,9.79-4.39,9.79-9.79s-4.39-9.79-9.79-9.79h-30.84c-3.2,0-5.79-2.59-5.79-5.79s2.59-5.79,5.79-5.79h30.84c11.79,0,21.38,9.59,21.38,21.38s-9.59,21.38-21.38,21.38Z"/>
    <path class="cls-3" d="M394.73,267.09h-11.94c-3.2,0-5.79-2.59-5.79-5.79s2.59-5.79,5.79-5.79h11.94c6.31,0,11.45-5.14,11.45-11.45s-5.14-11.45-11.45-11.45h-57.69c-3.2,0-5.79-2.59-5.79-5.79s2.59-5.79,5.79-5.79h57.69c12.7,0,23.04,10.33,23.04,23.04s-10.33,23.04-23.04,23.04Z"/>
    <path class="cls-3" d="M389.43,200.43h-43.77c-3.2,0-5.79-2.59-5.79-5.79s2.59-5.79,5.79-5.79h43.77c3.2,0,5.79,2.59,5.79,5.79s-2.59,5.79-5.79,5.79Z"/>
  </g>
</svg>