<?xml version="1.0" encoding="UTF-8"?>
<svg id="Layer_1" data-name="Layer 1" xmlns="http://www.w3.org/2000/svg" viewBox="0 0 460 460">
  <defs>
    <style>
      .cls-1 {
        fill: #f6921e;
      }

      .cls-2 {
        fill: #f1f2f2;
      }

      .cls-3 {
        fill: #3f3f3e;
      }
    </style>
  </defs>
  <path class="cls-3" d="M136.37,60.36c-1.09-.9-2.49-1.43-4-1.43h-32.3c-3.47,0-6.3,2.83-6.3,6.3v329.54c0,3.47,2.83,6.3,6.3,6.3h32.3c1.27,0,2.46-.38,3.45-1.03,1.72-1.13,2.85-3.08,2.85-5.28V65.23c0-1.96-.9-3.71-2.3-4.87ZM126.66,389.06h-20.88V70.94h20.88v318.12Z"/>
  <rect class="cls-2" x="105.78" y="70.94" width="20.88" height="318.12"/>
  <polygon class="cls-3" points="225.95 132.9 225.95 343.14 135.87 400.14 135.81 400.04 129.45 389.99 138.67 384.15 213.93 336.52 213.93 138.62 138.67 77.54 128.88 69.59 136.37 60.36 136.44 60.27 225.95 132.9"/>
  <path class="cls-3" d="M185.15,145.69c-12.78,0-23.17,10.39-23.17,23.17s10.39,23.17,23.17,23.17,23.17-10.39,23.17-23.17-10.39-23.17-23.17-23.17ZM185.15,182.8c-7.69,0-13.93-6.25-13.93-13.93s6.25-13.93,13.93-13.93,13.93,6.26,13.93,13.93-6.26,13.93-13.93,13.93Z"/>
  <path class="cls-3" d="M280.86,232.55c-12.08,0-21.9,9.82-21.9,21.91s9.82,21.9,21.9,21.9,21.91-9.82,21.91-21.9-9.82-21.91-21.91-21.91ZM280.86,267.11c-6.98,0-12.66-5.68-12.66-12.66s5.68-12.67,12.66-12.67,12.67,5.68,12.67,12.67-5.68,12.66-12.67,12.66Z"/>
  <path class="cls-2" d="M293.52,254.46c0,6.98-5.68,12.66-12.67,12.66s-12.66-5.68-12.66-12.66,5.68-12.67,12.66-12.67,12.67,5.68,12.67,12.67Z"/>
  <circle class="cls-2" cx="169.97" cy="214.82" r="9.49"/>
  <circle class="cls-1" cx="238.7" cy="207.65" r="9.49"/>
  <circle class="cls-1" cx="254.09" cy="301.67" r="9.49"/>
  <path class="cls-3" d="M366.11,158.54l-1.84,3.62c-.28.54-.94.75-1.48.48l-25.26-12.86h-.01l-22.64,7.36,13.19,18.17,29.93,4.74c.59.09,1,.65.92,1.25l-.64,4.01c-.1.6-.66,1.02-1.27.92l-23.72-3.75,12.65,17.4c.35.49.25,1.18-.25,1.54l-3.29,2.39c-.49.35-1.18.24-1.54-.25l-11.84-16.3-3.46,21.82c-.09.6-.65,1-1.25.92l-4.02-.64c-.6-.1-1-.66-.92-1.25l4.44-28.01-14.01-19.27-13.19,18.17,4.74,29.92c.09.6-.31,1.15-.92,1.25l-4.02.64c-.6.09-1.17-.31-1.25-.92l-3.76-23.72-12.65,17.4c-.35.49-1.04.6-1.53.25l-3.3-2.39c-.49-.36-.6-1.05-.24-1.54l11.84-16.3-21.8,3.46c-.6.09-1.17-.31-1.27-.92l-.64-4.02c-.09-.6.31-1.17.92-1.25l28.01-4.44,14.01-19.27h-.01l-21.33-6.95-27.01,13.75c-.54.28-1.2.06-1.48-.48l-1.84-3.62c-.28-.54-.06-1.2.48-1.48l21.4-10.91-4.81-1.57-15.66-5.09c-.58-.19-.89-.8-.7-1.38l.55-1.69.71-2.18c.19-.58.8-.89,1.38-.7l14.69,4.78,4.48,1.45-.74-1.45-9.29-18.23c-.28-.54-.06-1.2.48-1.48l3.64-1.84c.54-.28,1.2-.06,1.48.48l10.73,21.08,2.13,4.19,6.39,2.08,16.26,5.29v-22.47l-21.42-21.42c-.43-.43-.43-1.13,0-1.55l2.87-2.87c.44-.44,1.13-.44,1.55,0l16.99,16.98v-21.52c0-.61.49-1.1,1.1-1.1h4.06c.61,0,1.1.49,1.1,1.1v20.15l15.62-15.61c.43-.44,1.12-.44,1.55,0l2.87,2.87c.44.43.44,1.13,0,1.55l-20.05,20.05v23.84l16.27-5.29,5.07-1.64,2.36-4.63,11.41-22.38c.28-.54.94-.75,1.48-.48l3.64,1.84c.54.28.75.94.48,1.48l-9.96,19.53-.95,1.88,5.77-1.88,14.71-4.78c.58-.19,1.19.13,1.38.7l1.29,3.99c.16.51-.11,1.07-.63,1.23l-15.77,5.13-3.51,1.14,19.69,10.03c.54.28.75.94.48,1.48Z"/>
  <path class="cls-1" d="M138.67,77.54v306.61l75.27-47.63v-197.9l-75.27-61.08ZM206.64,287.37l-.99,1.94c-.15.29-.51.41-.79.26l-13.56-6.91h0l-12.15,3.95,7.08,9.75,16.07,2.55c.31.05.54.35.49.67l-.34,2.15c-.06.32-.36.54-.68.49l-12.73-2.01,6.79,9.34c.18.27.14.64-.14.83l-1.76,1.28c-.27.18-.64.13-.83-.14l-6.36-8.75-1.86,11.72c-.05.32-.35.54-.67.49l-2.15-.34c-.32-.06-.55-.36-.5-.67l2.38-15.03-7.51-10.35-7.09,9.76,2.55,16.06c.05.32-.18.62-.5.66l-2.15.35c-.32.05-.63-.18-.67-.5l-2.02-12.73-6.79,9.34c-.18.27-.55.32-.82.14l-1.76-1.28c-.27-.19-.32-.56-.13-.83l6.36-8.75-11.71,1.86c-.32.05-.63-.17-.68-.49l-.34-2.16c-.05-.32.17-.62.49-.67l15.04-2.37,7.51-10.35-11.45-3.73-14.5,7.38c-.3.16-.65.04-.79-.25l-1-1.95c-.15-.29-.03-.65.26-.79l11.49-5.85-2.59-.84-8.41-2.73c-.3-.1-.48-.43-.38-.74l.3-.91.39-1.16c.1-.31.42-.48.74-.38l7.89,2.56,2.4.79-.4-.79-4.99-9.78c-.15-.29-.04-.65.26-.79l1.95-.99c.29-.15.65-.03.79.26l5.76,11.31,1.15,2.25,3.44,1.12,8.73,2.84v-12.06l-11.5-11.5c-.22-.22-.22-.6,0-.83l1.54-1.54c.24-.23.61-.23.84,0l9.12,9.12v-11.55c0-.33.26-.59.59-.59h2.18c.32,0,.59.26.59.59v10.81l8.38-8.38c.23-.23.6-.23.84,0l1.54,1.54c.23.23.23.61,0,.83l-10.76,10.76v12.8l8.73-2.84,2.73-.89,1.26-2.49,6.13-12.01c.15-.29.51-.41.79-.26l1.96.99c.29.16.4.51.25.79l-5.34,10.49-.52,1.02,3.1-1.02,7.89-2.56c.31-.1.64.06.74.38l.69,2.13c.09.28-.06.57-.33.67l-8.47,2.75-1.88.61,10.57,5.39c.29.15.41.5.26.79ZM160.48,214.82c0-5.24,4.25-9.49,9.49-9.49s9.49,4.25,9.49,9.49-4.25,9.49-9.49,9.49-9.49-4.25-9.49-9.49ZM185.15,192.04c-12.78,0-23.17-10.39-23.17-23.17s10.39-23.17,23.17-23.17,23.17,10.39,23.17,23.17-10.39,23.17-23.17,23.17Z"/>
  <path class="cls-2" d="M199.09,168.86c0,7.69-6.26,13.93-13.93,13.93s-13.93-6.25-13.93-13.93,6.25-13.93,13.93-13.93,13.93,6.26,13.93,13.93Z"/>
  <path class="cls-2" d="M206.64,287.37l-.99,1.94c-.15.29-.51.41-.79.26l-13.56-6.91h0l-12.15,3.95,7.08,9.75,16.07,2.55c.31.05.54.35.49.67l-.34,2.15c-.06.32-.36.54-.68.49l-12.73-2.01,6.79,9.34c.18.27.14.64-.14.83l-1.76,1.28c-.27.18-.64.13-.83-.14l-6.36-8.75-1.86,11.72c-.05.32-.35.54-.67.49l-2.15-.34c-.32-.06-.55-.36-.5-.67l2.38-15.03-7.51-10.35-7.09,9.76,2.55,16.06c.05.32-.18.62-.5.66l-2.15.35c-.32.05-.63-.18-.67-.5l-2.02-12.73-6.79,9.34c-.18.27-.55.32-.82.14l-1.76-1.28c-.27-.19-.32-.56-.13-.83l6.36-8.75-11.71,1.86c-.32.05-.63-.17-.68-.49l-.34-2.16c-.05-.32.17-.62.49-.67l15.04-2.37,7.51-10.35-11.45-3.73-14.5,7.38c-.3.16-.65.04-.79-.25l-1-1.95c-.15-.29-.03-.65.26-.79l11.49-5.85-2.59-.84-8.41-2.73c-.3-.1-.48-.43-.38-.74l.3-.91.39-1.16c.1-.31.42-.48.74-.38l7.89,2.56,2.4.79-.4-.79-4.99-9.78c-.15-.29-.04-.65.26-.79l1.95-.99c.29-.15.65-.03.79.26l5.76,11.31,1.15,2.25,3.44,1.12,8.73,2.84v-12.06l-11.5-11.5c-.22-.22-.22-.6,0-.83l1.54-1.54c.24-.23.61-.23.84,0l9.12,9.12v-11.55c0-.33.26-.59.59-.59h2.18c.32,0,.59.26.59.59v10.81l8.38-8.38c.23-.23.6-.23.84,0l1.54,1.54c.23.23.23.61,0,.83l-10.76,10.76v12.8l8.73-2.84,2.73-.89,1.26-2.49,6.13-12.01c.15-.29.51-.41.79-.26l1.96.99c.29.16.4.51.25.79l-5.34,10.49-.52,1.02,3.1-1.02,7.89-2.56c.31-.1.64.06.74.38l.69,2.13c.09.28-.06.57-.33.67l-8.47,2.75-1.88.61,10.57,5.39c.29.15.41.5.26.79Z"/>
</svg>