<?xml version="1.0" encoding="UTF-8"?>
<svg id="Layer_1" data-name="Layer 1" xmlns="http://www.w3.org/2000/svg" viewBox="0 0 460 460">
  <defs>
    <style>
      .cls-1 {
        fill: #f6921e;
      }

      .cls-2 {
        fill: #f1f2f2;
      }

      .cls-3 {
        fill: #333;
      }
    </style>
  </defs>
  <path class="cls-3" d="M389.86,341.37l-86.72-36.28c-4.81-2-10.12-2.03-14.94-.04-2.32.95-4.4,2.33-6.17,4.03.35-1.44.53-2.94.53-4.49,0-10.76-8.75-19.51-19.51-19.51h-8.22l60.02-60.02c5.07-5.07,7.86-11.8,7.86-18.97v-98.15c0-14.79-12.03-26.82-26.82-26.82h-96.49c-7.17,0-13.89,2.79-18.97,7.86l-114.42,114.42c-5.07,5.07-7.86,11.8-7.86,18.97s2.79,13.9,7.86,18.97l84.52,84.52c-.65,1.93-.99,3.99-.99,6.13,0,5.34,2.16,10.17,5.63,13.7-3.47,3.53-5.63,8.38-5.63,13.7,0,10.76,8.75,19.51,19.51,19.51h139.71c10.76,0,19.53-8.75,19.53-19.51,0-.5-.03-.99-.07-1.48l46.6,19.49c2.46,1.02,4.99,1.51,7.5,1.51,7.64,0,14.91-4.52,18.03-11.99,4.16-9.92-.55-21.37-10.48-25.53ZM271.8,117.48c6.32,0,11.46,5.14,11.46,11.47s-5.14,11.46-11.46,11.46-11.47-5.14-11.47-11.46,5.14-11.47,11.47-11.47Z"/>
  <g>
    <path class="cls-1" d="M152.12,161.34c-15.01,0-20.45,7.68-20.45,23.53v5.79c0,15.24,5.67,23.87,20.45,23.87s20.56-8.27,20.56-23.63v-6.5c0-15.61-5.55-23.05-20.56-23.05ZM158.99,190.42c0,7.67-.72,13.11-6.86,13.11s-6.73-5.32-6.73-13v-5.67c0-7.8.59-12.42,6.73-12.42s6.86,4.62,6.86,12.3v5.67Z"/>
    <polygon class="cls-1" points="226.25 161.34 167.15 266.27 148.01 266.27 207.2 161.34 226.25 161.34"/>
    <path class="cls-1" d="M228.62,213.19c-15.01,0-20.46,7.8-20.46,23.41v5.79c0,15.37,5.68,23.87,20.46,23.87s20.56-8.15,20.56-23.64v-6.38c0-15.6-5.55-23.05-20.56-23.05ZM235.47,242.28c0,7.56-.72,13-6.85,13s-6.74-5.32-6.74-13v-5.67c0-7.68.59-12.42,6.74-12.42s6.85,4.62,6.85,12.42v5.67Z"/>
  </g>
  <path class="cls-1" d="M389.62,362.41c-1.68,4.02-6.32,5.9-10.32,4.23l-86.72-36.27c-4.02-1.68-5.91-6.3-4.23-10.32.81-1.94,2.33-3.44,4.27-4.25,1.94-.81,4.09-.79,6.03.03l86.73,36.27c4,1.67,5.9,6.29,4.23,10.3Z"/>
  <path class="cls-1" d="M316.64,359.37c0,4.35-3.53,7.89-7.89,7.89h-27.86c1.08-2.4,1.67-5.08,1.67-7.89s-.59-5.47-1.67-7.89h27.86c4.36,0,7.89,3.54,7.89,7.89Z"/>
  <path class="cls-1" d="M270.93,359.37c0,4.35-3.54,7.89-7.89,7.89h-94c-4.35,0-7.89-3.54-7.89-7.89s3.54-7.89,7.89-7.89h94c4.35,0,7.89,3.54,7.89,7.89Z"/>
  <path class="cls-1" d="M270.93,331.97c0,4.35-3.54,7.89-7.89,7.89h-94c-4.35,0-7.89-3.54-7.89-7.89,0-3.22,1.94-5.99,4.73-7.21.96-.43,2.03-.66,3.15-.66h94c4.35,0,7.89,3.54,7.89,7.87Z"/>
  <path class="cls-1" d="M270.93,304.59c0,4.35-3.54,7.89-7.89,7.89h-94c-4.35,0-7.89-3.54-7.89-7.89s3.54-7.89,7.89-7.89h94c4.35,0,7.89,3.54,7.89,7.89Z"/>
  <path class="cls-2" d="M295.89,92.75h-96.49c-4.06,0-7.87,1.57-10.74,4.45l-114.42,114.42c-2.88,2.86-4.46,6.68-4.46,10.74s1.58,7.87,4.46,10.74l75.78,75.78c-.33-1.38-.49-2.81-.49-4.29,0-10.76,8.75-19.51,19.51-19.51h69.34l68.24-68.24c2.86-2.88,4.45-6.69,4.45-10.75v-98.15c0-8.38-6.81-15.18-15.18-15.18ZM131.67,190.66v-5.79c0-15.84,5.44-23.53,20.45-23.53s20.56,7.44,20.56,23.05v6.5c0,15.36-5.67,23.63-20.56,23.63s-20.45-8.63-20.45-23.87ZM167.15,266.27h-19.14l59.19-104.92h19.05l-59.1,104.92ZM249.19,242.62c0,15.5-5.68,23.64-20.56,23.64s-20.46-8.51-20.46-23.87v-5.79c0-15.61,5.45-23.41,20.46-23.41s20.56,7.45,20.56,23.05v6.38ZM271.8,152.03c-12.75,0-23.11-10.36-23.11-23.08s10.36-23.11,23.11-23.11,23.1,10.36,23.1,23.11-10.36,23.08-23.1,23.08Z"/>
  <path class="cls-2" d="M158.99,184.75v5.67c0,7.67-.72,13.11-6.86,13.11s-6.73-5.32-6.73-13v-5.67c0-7.8.59-12.42,6.73-12.42s6.86,4.62,6.86,12.3Z"/>
  <path class="cls-2" d="M235.47,236.61v5.67c0,7.56-.72,13-6.85,13s-6.74-5.32-6.74-13v-5.67c0-7.68.59-12.42,6.74-12.42s6.85,4.62,6.85,12.42Z"/>
</svg>