<svg id="Group_59" data-name="Group 59" xmlns="http://www.w3.org/2000/svg" xmlns:xlink="http://www.w3.org/1999/xlink" width="200.71" height="173.892" viewBox="0 0 200.71 173.892">
  <defs>
    <clipPath id="clip-path">
      <rect id="Rectangle_85" data-name="Rectangle 85" width="200.71" height="173.892" fill="none"/>
    </clipPath>
  </defs>
  <g id="Group_58" data-name="Group 58" clip-path="url(#clip-path)">
    <path id="Path_176" data-name="Path 176" d="M193.708,151.983,143.067,130.8a11.333,11.333,0,0,0-8.723-.025,11.532,11.532,0,0,0-3.605,2.353,11.2,11.2,0,0,0,.311-2.622,11.405,11.405,0,0,0-11.4-11.4h-4.8l35.052-35.052A15.561,15.561,0,0,0,154.5,72.979V15.665A15.68,15.68,0,0,0,138.831,0H82.484A15.576,15.576,0,0,0,71.407,4.588L4.588,71.407a15.663,15.663,0,0,0,0,22.153l49.356,49.356a11.215,11.215,0,0,0-.58,3.58,11.38,11.38,0,0,0,3.286,8,11.392,11.392,0,0,0,8.11,19.4h81.584a11.412,11.412,0,0,0,11.4-11.4c0-.294-.017-.58-.042-.866l27.212,11.379a11.395,11.395,0,1,0,8.79-21.026M124.763,21.236a6.694,6.694,0,1,1-6.7,6.7,6.7,6.7,0,0,1,6.7-6.7" fill="#333"/>
    <path id="Path_177" data-name="Path 177" d="M63.032,55.75c-8.765,0-11.942,4.488-11.942,13.74v3.378c0,8.9,3.311,13.942,11.942,13.942,8.7,0,12.009-4.832,12.009-13.8v-3.8c0-9.118-3.244-13.463-12.009-13.463M67.04,72.734c0,4.479-.42,7.656-4.009,7.656-3.521,0-3.933-3.109-3.933-7.589V69.49c0-4.555.345-7.252,3.933-7.252,3.664,0,4.009,2.7,4.009,7.185Z" transform="translate(-8.155 -8.899)" fill="#f6921e"/>
    <path id="Path_178" data-name="Path 178" d="M108.132,55.75,73.617,117.022H62.44L97,55.75Z" transform="translate(-9.966 -8.899)" fill="#f6921e"/>
    <path id="Path_179" data-name="Path 179" d="M116.19,91.78c-8.765,0-11.95,4.555-11.95,13.673v3.378c0,8.975,3.32,13.942,11.95,13.942,8.69,0,12.009-4.757,12.009-13.808v-3.723c0-9.11-3.244-13.463-12.009-13.463m4,16.984c0,4.412-.42,7.589-4,7.589-3.521,0-3.933-3.109-3.933-7.589v-3.311c0-4.488.345-7.253,3.933-7.253,3.656,0,4,2.7,4,7.253Z" transform="translate(-16.638 -14.65)" fill="#f6921e"/>
    <path id="Path_180" data-name="Path 180" d="M219.03,190.236A4.616,4.616,0,0,1,213,192.706l-50.641-21.178a4.6,4.6,0,0,1,.025-8.5,4.53,4.53,0,0,1,3.521.017l50.65,21.178a4.608,4.608,0,0,1,2.471,6.017" transform="translate(-25.464 -25.966)" fill="#f6921e"/>
    <path id="Path_181" data-name="Path 181" d="M175.655,192.485a4.607,4.607,0,0,1-4.605,4.605H154.78a11.365,11.365,0,0,0,0-9.211h16.27a4.607,4.607,0,0,1,4.605,4.605" transform="translate(-24.705 -29.989)" fill="#f6921e"/>
    <path id="Path_182" data-name="Path 182" d="M135.684,192.485a4.612,4.612,0,0,1-4.605,4.605H76.185a4.605,4.605,0,1,1,0-9.211h54.894a4.612,4.612,0,0,1,4.605,4.605" transform="translate(-11.425 -29.989)" fill="#f6921e"/>
    <path id="Path_183" data-name="Path 183" d="M135.684,173.447a4.612,4.612,0,0,1-4.605,4.605H76.185a4.6,4.6,0,0,1-1.84-8.816,4.485,4.485,0,0,1,1.84-.387h54.894a4.611,4.611,0,0,1,4.605,4.6" transform="translate(-11.425 -26.951)" fill="#f6921e"/>
    <path id="Path_184" data-name="Path 184" d="M135.684,154.415a4.612,4.612,0,0,1-4.605,4.605H76.185a4.605,4.605,0,0,1,0-9.211h54.894a4.612,4.612,0,0,1,4.605,4.605" transform="translate(-11.425 -23.912)" fill="#f6921e"/>
    <path id="Path_185" data-name="Path 185" d="M140.121,8.09H83.773a8.776,8.776,0,0,0-6.269,2.6L10.685,77.506a8.846,8.846,0,0,0,0,12.539L54.94,134.3a10.694,10.694,0,0,1-.286-2.5,11.405,11.405,0,0,1,11.4-11.4h40.49L146.39,80.548a8.844,8.844,0,0,0,2.6-6.278V16.956a8.873,8.873,0,0,0-8.866-8.866m-95.9,57.171V61.883c0-9.253,3.177-13.74,11.942-13.74s12.009,4.345,12.009,13.463v3.8c0,8.967-3.311,13.8-12.009,13.8-8.631,0-11.942-5.042-11.942-13.942M64.94,109.415H53.763L88.328,48.143H99.455Zm47.91-13.808c0,9.051-3.32,13.808-12.009,13.808-8.631,0-11.95-4.967-11.95-13.942V92.095c0-9.118,3.185-13.673,11.95-13.673s12.009,4.353,12.009,13.463Zm13.2-52.9a13.488,13.488,0,1,1,13.488-13.48,13.5,13.5,0,0,1-13.488,13.48" transform="translate(-1.29 -1.291)" fill="#f1f2f2"/>
    <path id="Path_186" data-name="Path 186" d="M68.562,70.655v3.311c0,4.479-.42,7.656-4.009,7.656-3.521,0-3.933-3.109-3.933-7.589V70.723c0-4.555.345-7.253,3.933-7.253,3.664,0,4.009,2.7,4.009,7.185" transform="translate(-9.676 -10.131)" fill="#f1f2f2"/>
    <path id="Path_187" data-name="Path 187" d="M121.713,106.673v3.311c0,4.412-.42,7.589-4,7.589-3.521,0-3.933-3.109-3.933-7.589v-3.311c0-4.488.345-7.253,3.933-7.253,3.656,0,4,2.7,4,7.253" transform="translate(-18.161 -15.869)" fill="#f1f2f2"/>
  </g>
</svg>
