<?xml version="1.0" encoding="UTF-8"?>
<svg id="Layer_1" data-name="Layer 1" xmlns="http://www.w3.org/2000/svg" viewBox="0 0 460 460">
  <defs>
    <style>
      .cls-1 {
        fill: #f6921e;
      }

      .cls-2 {
        fill: #f1f2f2;
      }

      .cls-3 {
        fill: #3f3f3e;
      }
    </style>
  </defs>
  <path class="cls-3" d="M335.39,333.73c28.16-27.96,44.04-65.76,44.04-105.94,0-82.41-67.04-149.44-149.43-149.44S80.57,145.39,80.57,227.8c0,40.17,15.89,77.98,44.04,105.94-9.03,3.74-15.39,12.65-15.39,23.01,0,13.73,11.18,24.9,24.91,24.9h191.74c13.73,0,24.91-11.17,24.91-24.9,0-10.37-6.37-19.27-15.39-23.01ZM94.5,227.8c0-74.72,60.79-135.51,135.5-135.51s135.5,60.79,135.5,135.51c0,40.41-17.73,78.17-48.71,104.04h-25.47c.26-.15.53-.29.78-.45,33.1-19.87,54.86-54.61,58.19-92.92.32-3.45.48-7.04.48-10.67,0-21.22-5.58-42.09-16.15-60.36-18.87-32.65-52.38-54.9-89.65-59.5-4.89-.61-9.93-.92-14.97-.92-21.01,0-41.7,5.48-59.82,15.83l-3.51,2.02v.09c-32.82,20.22-54.07,54.81-57.08,93.31-.25,3.13-.38,6.33-.38,9.54,0,22.35,6.16,44.18,17.81,63.15,10.39,16.91,24.84,30.92,41.71,40.89h-25.53c-30.98-25.86-48.71-63.63-48.71-104.04ZM214.89,189.82c-10.12,4.04-18.27,12.01-22.52,22.02h-68.01c4.54-30.28,21.91-57.16,47.75-73.84l42.78,51.83ZM184.49,131.11c14.15-6.67,29.72-10.16,45.51-10.16,2.39,0,4.78.09,7.15.24v66.36c-2.14-.39-4.34-.6-6.59-.62l-46.07-55.81ZM189.16,225.77c-.03.66-.04,1.34-.04,2.03,0,2.48.23,4.9.65,7.25l-54.68,41.85c-7.82-15.1-11.94-31.92-11.94-49.09,0-.68.03-1.35.04-2.03h65.96ZM194.87,248.69c4.14,6.92,10.26,12.53,17.58,16.02v67.12h-6.81c-25.52-5.96-48.25-21.44-63.3-42.95l52.52-40.2ZM203.05,227.8c0-14.87,12.09-26.96,26.95-26.96s26.95,12.09,26.95,26.96-12.09,26.95-26.95,26.95-26.95-12.09-26.95-26.95ZM270.83,225.58l55.51-43.98c6.88,14.34,10.5,30.15,10.5,46.2,0,1.03-.04,2.05-.08,3.07h-66.02c.09-1.01.13-2.04.13-3.07,0-.75-.02-1.49-.05-2.22ZM267.13,210.72c-3.44-7.46-9.06-13.72-16.05-17.94v-69.73c27.85,5.61,52.66,22.37,68.33,46.25l-52.29,41.42ZM226.39,268.51c1.19.11,2.39.17,3.61.17,1.54,0,3.07-.1,4.57-.26l43.38,54.86c-7.5,3.78-15.41,6.65-23.6,8.55h-27.96v-63.33ZM248.88,264.05c8.03-4.2,14.49-10.99,18.29-19.25h68.31c-4.64,28.87-21.12,54.81-45.41,71.35l-41.19-52.09ZM325.87,367.71h-191.74c-6.05,0-10.98-4.92-10.98-10.97s4.93-10.98,10.98-10.98h191.74c6.05,0,10.98,4.92,10.98,10.98s-4.93,10.97-10.98,10.97Z"/>
  <path class="cls-1" d="M336.85,356.75c0,6.05-4.93,10.97-10.98,10.97h-191.74c-6.05,0-10.98-4.92-10.98-10.97s4.93-10.98,10.98-10.98h191.74c6.05,0,10.98,4.92,10.98,10.98Z"/>
  <path class="cls-1" d="M365.5,227.8c0,40.41-17.73,78.17-48.71,104.04h-25.47c.26-.15.53-.29.78-.45,33.1-19.87,54.86-54.61,58.19-92.92.32-3.45.48-7.04.48-10.67,0-21.22-5.58-42.09-16.15-60.36-18.87-32.65-52.38-54.9-89.65-59.5-4.89-.61-9.93-.92-14.97-.92-21.01,0-41.7,5.48-59.82,15.83l-3.51,2.02v.09c-32.82,20.22-54.07,54.81-57.08,93.31-.25,3.13-.38,6.33-.38,9.54,0,22.35,6.16,44.18,17.81,63.15,10.39,16.91,24.84,30.92,41.71,40.89h-25.53c-30.98-25.86-48.71-63.63-48.71-104.04,0-74.72,60.79-135.51,135.5-135.51s135.5,60.79,135.5,135.51Z"/>
  <path class="cls-2" d="M189.77,235.04l-54.68,41.85c-7.82-15.1-11.94-31.92-11.94-49.09,0-.68.03-1.35.04-2.03h65.96c-.03.66-.04,1.34-.04,2.03,0,2.48.23,4.9.65,7.25Z"/>
  <path class="cls-2" d="M212.45,264.71v67.12h-6.81c-25.52-5.96-48.25-21.44-63.3-42.95l52.52-40.2c4.14,6.92,10.26,12.53,17.58,16.02Z"/>
  <path class="cls-2" d="M277.95,323.28c-7.5,3.78-15.41,6.65-23.6,8.55h-27.96v-63.33c1.19.11,2.39.17,3.61.17,1.54,0,3.07-.1,4.57-.26l43.38,54.86Z"/>
  <path class="cls-2" d="M335.47,244.8c-4.64,28.87-21.12,54.81-45.41,71.35l-41.19-52.09c8.03-4.2,14.49-10.99,18.29-19.25h68.31Z"/>
  <path class="cls-2" d="M336.85,227.8c0,1.03-.04,2.05-.08,3.07h-66.02c.09-1.01.13-2.04.13-3.07,0-.75-.02-1.49-.05-2.22l55.51-43.98c6.88,14.34,10.5,30.15,10.5,46.2Z"/>
  <path class="cls-2" d="M319.42,169.3l-52.29,41.42c-3.44-7.46-9.06-13.72-16.05-17.94v-69.73c27.85,5.61,52.66,22.37,68.33,46.25Z"/>
  <path class="cls-2" d="M237.15,121.19v66.36c-2.14-.39-4.34-.6-6.59-.62l-46.07-55.81c14.15-6.67,29.72-10.16,45.51-10.16,2.39,0,4.78.09,7.15.24Z"/>
  <path class="cls-2" d="M214.89,189.82c-10.12,4.04-18.27,12.01-22.52,22.02h-68.01c4.54-30.28,21.91-57.16,47.75-73.84l42.78,51.83Z"/>
</svg>