<?xml version="1.0" encoding="UTF-8"?>
<svg id="Layer_1" data-name="Layer 1" xmlns="http://www.w3.org/2000/svg" viewBox="0 0 460 460">
  <defs>
    <style>
      .cls-1 {
        fill: #f6921e;
      }

      .cls-2 {
        fill: #f1f2f2;
      }

      .cls-3 {
        fill: #3f3f3e;
      }
    </style>
  </defs>
  <path class="cls-3" d="M353.07,81.11c-12.31,0-22.66,8.57-25.39,20.05h-93.22c-29.82,0-57.44,9.5-80.04,25.63-3.61-1.88-7.63-2.88-11.82-2.88-6.82,0-13.24,2.66-18.06,7.48l-.15.14c-4.83,4.83-7.48,11.25-7.48,18.07,0,4.4,1.11,8.63,3.19,12.38-14.93,22.05-23.67,48.63-23.67,77.2v90.46c-9.16,3.91-15.59,13.01-15.59,23.59,0,14.15,11.51,25.65,25.65,25.65h122.86c14.14,0,25.65-11.51,25.65-25.65,0-10.14-5.92-18.93-14.48-23.08v-54.29c.92.11,1.86.16,2.81.16,6.82,0,13.24-2.67,18.06-7.48l.15-.15c4.83-4.82,7.48-11.24,7.48-18.06,0-1.72-.17-3.42-.49-5.08h61.17c4.28,8.58,13.14,14.47,23.37,14.47,14.39,0,26.1-11.71,26.1-26.1v-126.41c0-14.39-11.71-26.11-26.1-26.11ZM108.55,239.19c0-24.87,7.24-48.08,19.74-67.62l96.97,96.97c.99.98,2.03,1.87,3.14,2.67v.34h-119.85v-32.36ZM108.55,283.67h119.85v43.92h-119.85v-43.92ZM242.88,353.24c0,7.47-6.07,13.53-13.53,13.53h-122.86c-7.47,0-13.53-6.07-13.53-13.53s6.07-13.53,13.53-13.53h122.86c7.47,0,13.53,6.07,13.53,13.53ZM252.97,259.83l-.15.14c-2.54,2.54-5.91,3.94-9.5,3.94-.74,0-1.45-.06-2.16-.18-2.77-.44-5.31-1.74-7.34-3.77l-3.2-3.2-95.23-95.22-2.44-2.44c-2.4-2.4-3.78-5.55-3.91-8.92-.02-.2-.02-.38-.02-.58,0-3.59,1.4-6.96,3.93-9.5l.15-.15c2.54-2.54,5.91-3.93,9.5-3.93.07,0,.16,0,.23,0,3.5.06,6.79,1.44,9.26,3.92l100.87,100.87c1.65,1.65,2.81,3.65,3.43,5.84.33,1.17.5,2.4.5,3.65,0,3.59-1.4,6.96-3.93,9.5ZM262.93,233.17c-.17,0-.34,0-.5.03-.29-.32-.58-.62-.89-.93l-97.45-97.45c20.1-13.59,44.33-21.54,70.37-21.54h28.47v119.89ZM326.96,233.13h-51.92v-119.85h51.92v119.85ZM367.05,233.63c0,7.71-6.27,13.98-13.98,13.98s-13.99-6.27-13.99-13.98v-126.41c0-7.71,6.27-13.99,13.99-13.99s13.98,6.28,13.98,13.99v126.41Z"/>
  <path class="cls-1" d="M242.88,353.24c0,7.47-6.07,13.53-13.53,13.53h-122.86c-7.47,0-13.53-6.07-13.53-13.53s6.07-13.53,13.53-13.53h122.86c7.47,0,13.53,6.07,13.53,13.53Z"/>
  <rect class="cls-2" x="108.55" y="283.67" width="119.85" height="43.92"/>
  <path class="cls-2" d="M228.4,271.21v.34h-119.85v-32.36c0-24.87,7.24-48.08,19.74-67.62l96.97,96.97c.99.98,2.03,1.87,3.14,2.67Z"/>
  <path class="cls-1" d="M256.9,250.33c0,3.59-1.4,6.96-3.93,9.5l-.15.14c-2.54,2.54-5.91,3.94-9.5,3.94-.74,0-1.45-.06-2.16-.18-2.77-.44-5.31-1.74-7.34-3.77l-3.2-3.2-95.23-95.22-2.44-2.44c-2.4-2.4-3.78-5.55-3.91-8.92-.02-.2-.02-.38-.02-.58,0-3.59,1.4-6.96,3.93-9.5l.15-.15c2.54-2.54,5.91-3.93,9.5-3.93.07,0,.16,0,.23,0,3.5.06,6.79,1.44,9.26,3.92l100.87,100.87c1.65,1.65,2.81,3.65,3.43,5.84.33,1.17.5,2.4.5,3.65Z"/>
  <path class="cls-2" d="M262.93,113.28v119.89c-.17,0-.34,0-.5.03-.29-.32-.58-.62-.89-.93l-97.45-97.45c20.1-13.59,44.33-21.54,70.37-21.54h28.47Z"/>
  <path class="cls-1" d="M367.05,107.22v126.41c0,7.71-6.27,13.98-13.98,13.98s-13.99-6.27-13.99-13.98v-126.41c0-7.71,6.27-13.99,13.99-13.99s13.98,6.28,13.98,13.99Z"/>
  <rect class="cls-2" x="275.04" y="113.28" width="51.92" height="119.85"/>
</svg>