<?xml version="1.0" encoding="UTF-8"?>
<svg id="Layer_1" data-name="Layer 1" xmlns="http://www.w3.org/2000/svg" viewBox="0 0 460 460">
  <defs>
    <style>
      .cls-1 {
        fill: #f6921e;
      }

      .cls-2 {
        fill: #f1f2f2;
      }

      .cls-3 {
        fill: #3f3f3e;
      }
    </style>
  </defs>
  <path class="cls-3" d="M384.38,109.95H78.06c-10.04,0-18.2,8.16-18.2,18.2v113.54c0,25.87,21.06,46.93,46.93,46.93h248.87c25.87,0,46.93-21.05,46.93-46.93v-113.54c0-10.04-8.16-18.2-18.2-18.2ZM99.42,120.59h262.8v43.03c0,8.87-7.21,16.08-16.08,16.08H115.5c-8.87,0-16.08-7.21-16.08-16.08v-43.03ZM391.94,241.69c0,20.01-16.28,36.29-36.29,36.29h-10.13v-15.49c0-12.11-9.86-21.96-21.96-21.96h-68.56c-2.94,0-5.32,2.38-5.32,5.32s2.38,5.32,5.32,5.32h68.56c6.25,0,11.33,5.09,11.33,11.33v15.49H106.78c-20.02,0-36.29-16.29-36.29-36.29v-113.54c0-4.17,3.39-7.57,7.57-7.57h10.73v43.03c0,14.73,11.98,26.72,26.72,26.72h230.63c14.73,0,26.72-11.98,26.72-26.72v-43.03h11.53c4.17,0,7.57,3.39,7.57,7.57v113.54Z"/>
  <path class="cls-1" d="M99.42,120.59v43.03c0,8.87,7.21,16.08,16.08,16.08h230.63c8.88,0,16.08-7.21,16.08-16.08v-43.03H99.42ZM345.15,170.34H114.48c-2.26,0-4.09-1.83-4.09-4.09s1.83-4.09,4.09-4.09h230.67c2.26,0,4.09,1.83,4.09,4.09s-1.83,4.09-4.09,4.09ZM345.15,153.98H114.48c-2.26,0-4.09-1.83-4.09-4.09s1.83-4.09,4.09-4.09h230.67c2.26,0,4.09,1.83,4.09,4.09s-1.83,4.09-4.09,4.09ZM345.15,136.5H114.48c-2.26,0-4.09-1.83-4.09-4.09s1.83-4.09,4.09-4.09h230.67c2.26,0,4.09,1.83,4.09,4.09s-1.83,4.09-4.09,4.09Z"/>
  <path class="cls-2" d="M384.38,120.59h-11.53v43.03c0,14.73-11.98,26.72-26.72,26.72H115.5c-14.73,0-26.72-11.98-26.72-26.72v-43.03h-10.73c-4.17,0-7.57,3.39-7.57,7.57v113.54c0,20.01,16.28,36.29,36.29,36.29h228.1v-15.49c0-6.24-5.08-11.33-11.33-11.33h-68.56c-2.94,0-5.32-2.38-5.32-5.32s2.38-5.32,5.32-5.32h68.56c12.11,0,21.96,9.86,21.96,21.96v15.49h10.13c20.02,0,36.29-16.29,36.29-36.29v-113.54c0-4.17-3.39-7.57-7.57-7.57ZM119.21,255.31c-5.23,0-9.46-4.24-9.46-9.46s4.24-9.46,9.46-9.46,9.46,4.24,9.46,9.46-4.24,9.46-9.46,9.46ZM148.04,255.31c-5.22,0-9.46-4.24-9.46-9.46s4.24-9.46,9.46-9.46,9.46,4.24,9.46,9.46-4.24,9.46-9.46,9.46ZM349.89,214.79H109.75v-8.18h240.15v8.18Z"/>
  <path class="cls-3" d="M128.67,245.84c0,5.23-4.24,9.46-9.46,9.46s-9.46-4.24-9.46-9.46,4.24-9.46,9.46-9.46,9.46,4.24,9.46,9.46Z"/>
  <path class="cls-3" d="M157.51,245.84c0,5.23-4.24,9.46-9.46,9.46s-9.46-4.24-9.46-9.46,4.24-9.46,9.46-9.46,9.46,4.24,9.46,9.46Z"/>
  <path class="cls-3" d="M349.24,132.41c0,2.26-1.83,4.09-4.09,4.09H114.48c-2.26,0-4.09-1.83-4.09-4.09s1.83-4.09,4.09-4.09h230.67c2.26,0,4.09,1.83,4.09,4.09Z"/>
  <path class="cls-3" d="M349.24,149.89c0,2.26-1.83,4.09-4.09,4.09H114.48c-2.26,0-4.09-1.83-4.09-4.09s1.83-4.09,4.09-4.09h230.67c2.26,0,4.09,1.83,4.09,4.09Z"/>
  <path class="cls-3" d="M349.24,166.25c0,2.26-1.83,4.09-4.09,4.09H114.48c-2.26,0-4.09-1.83-4.09-4.09s1.83-4.09,4.09-4.09h230.67c2.26,0,4.09,1.83,4.09,4.09Z"/>
  <rect class="cls-3" x="109.75" y="206.61" width="240.15" height="8.18"/>
  <path class="cls-3" d="M135.24,258.51h-29.98v-29.99c0-6.6-5.37-11.98-11.98-11.98h-25.64c-6.6,0-11.98,5.37-11.98,11.98v29.99h-29.99c-6.6,0-11.97,5.37-11.97,11.97v25.64c0,6.6,5.37,11.98,11.97,11.98h29.99v29.98c0,6.6,5.37,11.98,11.98,11.98h25.64c6.6,0,11.98-5.37,11.98-11.98v-29.98h29.98c6.61,0,11.98-5.37,11.98-11.98v-25.64c0-6.6-5.37-11.97-11.98-11.97ZM136.58,296.12c0,.74-.6,1.34-1.34,1.34h-40.61v40.61c0,.74-.61,1.34-1.34,1.34h-25.64c-.74,0-1.34-.6-1.34-1.34v-40.61H25.69c-.74,0-1.33-.61-1.33-1.34v-25.64c0-.74.6-1.33,1.33-1.33h40.62v-40.62c0-.74.6-1.34,1.34-1.34h25.64c.74,0,1.34.61,1.34,1.34v40.62h40.61c.74,0,1.34.6,1.34,1.33v25.64Z"/>
  <path class="cls-1" d="M136.58,270.47v25.64c0,.74-.6,1.34-1.34,1.34h-40.61v40.61c0,.74-.61,1.34-1.34,1.34h-25.64c-.74,0-1.34-.6-1.34-1.34v-40.61H25.69c-.74,0-1.33-.61-1.33-1.34v-25.64c0-.74.6-1.33,1.33-1.33h40.62v-40.62c0-.74.6-1.34,1.34-1.34h25.64c.74,0,1.34.61,1.34,1.34v40.62h40.61c.74,0,1.34.6,1.34,1.33Z"/>
</svg>