<?xml version="1.0" encoding="UTF-8"?>
<svg id="Layer_1" data-name="Layer 1" xmlns="http://www.w3.org/2000/svg" viewBox="0 0 460 460">
  <defs>
    <style>
      .cls-1 {
        fill: #f6921e;
      }

      .cls-2 {
        fill: #f1f2f2;
      }

      .cls-3 {
        fill: #3f3f3e;
      }
    </style>
  </defs>
  <path class="cls-3" d="M236.91,125.97v34.37c0,2.73-2.21,4.94-4.94,4.94s-4.94-2.21-4.94-4.94v-34.37c0-2.73,2.21-4.94,4.94-4.94s4.94,2.21,4.94,4.94Z"/>
  <path class="cls-3" d="M168.08,227.45c0,2.73-2.21,4.94-4.94,4.94h-32.65c-2.73,0-4.94-2.21-4.94-4.94s2.21-4.94,4.94-4.94h32.65c2.73,0,4.94,2.21,4.94,4.94Z"/>
  <path class="cls-3" d="M236.91,296.28v32.65c0,2.73-2.21,4.94-4.94,4.94s-4.94-2.21-4.94-4.94v-32.65c0-2.73,2.21-4.94,4.94-4.94s4.94,2.21,4.94,4.94Z"/>
  <path class="cls-3" d="M338.39,227.45c0,2.73-2.21,4.94-4.94,4.94h-32.64c-2.73,0-4.94-2.21-4.94-4.94s2.21-4.94,4.94-4.94h32.64c2.73,0,4.94,2.21,4.94,4.94Z"/>
  <path class="cls-3" d="M320.58,191l-73.58,46.79c.16,1.99-.06,4.02-.69,6.04-2.67,8.37-11.61,13-19.99,10.33-8.37-2.66-13-11.61-10.34-19.99.65-2.05,1.69-3.87,3-5.43l-17.01-70.54c-.83-3.45,1.29-6.92,4.74-7.76,3.45-.83,6.92,1.3,7.75,4.74l16.38,67.91c1.7-.03,3.42.2,5.13.74,1.84.58,3.49,1.48,4.93,2.61l72.78-46.29c3-1.91,6.97-1.02,8.87,1.97,1.91,3,1.03,6.97-1.97,8.88Z"/>
  <path class="cls-3" d="M425.76,293.37c-1.61-3.51-5-5.68-8.85-5.68h-42.46c6.56-15.46,10.68-32.19,11.85-49.71l10.12-35.37c1.28-4.45-.68-9.08-4.77-11.27-2.99-1.59-6.44-1.51-9.24.03-16.3-67.96-77.57-118.61-150.45-118.61-85.3,0-154.7,69.39-154.7,154.7s69.4,154.7,154.7,154.7c31.79,0,61.38-9.64,85.97-26.15l-20.72,66.39c-1.39,4.45.48,9.13,4.56,11.41,1.51.84,3.14,1.25,4.76,1.25,2.74,0,5.42-1.18,7.33-3.4l110.41-127.87c2.52-2.92,3.08-6.91,1.48-10.41ZM231.97,369.3c-78.21,0-141.85-63.64-141.85-141.85s63.64-141.85,141.85-141.85c69.9,0,128.14,50.8,139.75,117.42l-10.02,11.84c-6.35-65.97-62.1-117.74-129.72-117.74-71.85,0-130.32,58.47-130.32,130.32s58.46,130.32,130.32,130.32c22.98,0,44.59-5.98,63.36-16.46h21.14c-23.62,17.59-52.88,27.99-84.51,27.99ZM266.86,335.67c.58,1.25,1.38,2.33,2.36,3.18-11.71,3.93-24.24,6.06-37.26,6.06-64.77,0-117.46-52.7-117.46-117.46s52.7-117.47,117.46-117.47,117.47,52.7,117.47,117.47c0,.64,0,1.29-.03,1.92l-81.15,95.92c-2.47,2.93-3.01,6.9-1.4,10.38ZM313.95,411.89l21.8-69.81.86-2.75c.79-2.53.32-5.32-1.26-7.45-1.07-1.45-2.59-2.52-4.28-3.04-.79-.25-1.62-.38-2.46-.38h-46.19l64.34-76.06,15.35-18.15,11.54-13.63c.11,2.26.17,4.54.17,6.83,0,2.79-.08,5.56-.25,8.3l-15.48,54.1c-.29.99-.38,2.02-.28,3.01.13,1.56.68,3.06,1.64,4.33,1.58,2.09,4.07,3.33,6.69,3.33h43.95l-96.14,111.36Z"/>
  <path class="cls-1" d="M336.61,339.33c.79-2.53.32-5.32-1.26-7.45-1.07-1.45-2.59-2.52-4.28-3.04-.79-.25-1.62-.38-2.46-.38h-46.19l64.34-76.06,15.35-18.15,11.54-13.63c.11,2.26.17,4.54.17,6.83,0,2.79-.08,5.56-.25,8.3l-15.48,54.1c-.29.99-.38,2.02-.28,3.01.13,1.56.68,3.06,1.64,4.33,1.58,2.09,4.07,3.33,6.69,3.33h43.95l-96.14,111.36,21.8-69.81.86-2.75Z"/>
  <path class="cls-1" d="M371.71,203.03l-10.02,11.84c-6.35-65.97-62.1-117.74-129.72-117.74-71.85,0-130.32,58.47-130.32,130.32s58.46,130.32,130.32,130.32c22.98,0,44.59-5.98,63.36-16.46h21.14c-23.62,17.59-52.88,27.99-84.51,27.99-78.21,0-141.85-63.64-141.85-141.85s63.64-141.85,141.85-141.85c69.9,0,128.14,50.8,139.75,117.42Z"/>
  <path class="cls-2" d="M349.41,229.37c.02-.63.03-1.28.03-1.92,0-64.78-52.7-117.47-117.47-117.47s-117.46,52.7-117.46,117.47,52.7,117.46,117.46,117.46c13.02,0,25.54-2.13,37.26-6.06-.98-.85-1.78-1.94-2.36-3.18-1.61-3.48-1.07-7.45,1.4-10.38l81.15-95.92ZM338.39,227.45c0,2.73-2.21,4.94-4.94,4.94h-32.64c-2.73,0-4.94-2.21-4.94-4.94s2.21-4.94,4.94-4.94h32.64c2.73,0,4.94,2.21,4.94,4.94ZM227.02,125.97c0-2.73,2.21-4.94,4.94-4.94s4.94,2.21,4.94,4.94v34.37c0,2.73-2.21,4.94-4.94,4.94s-4.94-2.21-4.94-4.94v-34.37ZM163.14,232.39h-32.65c-2.73,0-4.94-2.21-4.94-4.94s2.21-4.94,4.94-4.94h32.65c2.73,0,4.94,2.21,4.94,4.94s-2.21,4.94-4.94,4.94ZM236.91,328.93c0,2.73-2.21,4.94-4.94,4.94s-4.94-2.21-4.94-4.94v-32.65c0-2.73,2.21-4.94,4.94-4.94s4.94,2.21,4.94,4.94v32.65ZM246.3,243.82c-2.67,8.37-11.61,13-19.99,10.33-8.37-2.66-13-11.61-10.34-19.99.65-2.05,1.69-3.87,3-5.43l-17.01-70.54c-.83-3.45,1.29-6.92,4.74-7.76,3.45-.83,6.92,1.3,7.75,4.74l16.38,67.91c1.7-.03,3.42.2,5.13.74,1.84.58,3.49,1.48,4.93,2.61l72.78-46.29c3-1.91,6.97-1.02,8.87,1.97,1.91,3,1.03,6.97-1.97,8.88l-73.58,46.79c.16,1.99-.06,4.02-.69,6.04Z"/>
</svg>