<?xml version="1.0" encoding="UTF-8"?>
<svg id="Layer_1" data-name="Layer 1" xmlns="http://www.w3.org/2000/svg" viewBox="0 0 244.55 243.06">
  <defs>
    <style>
      .cls-1 {
        fill: #f79520;
      }
    </style>
  </defs>
  <path class="cls-1" d="M244.55,120.78c-.29-23.3-7.23-46.04-20-65.53s-30.85-34.93-52.11-44.49C151.19,1.2,127.65-2.08,104.59,1.29c-23.06,3.37-44.67,13.26-62.3,28.51-17.63,15.24-30.53,35.21-37.19,57.54-6.66,22.33-6.8,46.1-.4,68.51,6.4,22.41,19.06,42.52,36.51,57.97,17.45,15.45,38.94,25.6,61.96,29.24v-86.67h-30.57v-35.61h30.57v-27.05c-.71-6.29-.03-12.66,2-18.66,2.02-6,5.34-11.48,9.71-16.06,4.37-4.58,9.7-8.14,15.6-10.43,5.9-2.29,12.23-3.27,18.55-2.85,9.17.13,18.31.94,27.36,2.45v30.57h-15.29c-2.64-.33-5.31-.07-7.83.77-2.52.84-4.82,2.24-6.73,4.09-1.91,1.85-3.37,4.1-4.29,6.59-.92,2.49-1.27,5.16-1.02,7.8v23.08h33.93l-5.5,35.61h-28.28v85.6c28.89-4.57,55.18-19.34,74.11-41.64,18.93-22.29,29.24-50.63,29.06-79.88Z"/>
</svg>