<?xml version="1.0" encoding="UTF-8"?>
<svg id="Layer_1" data-name="Layer 1" xmlns="http://www.w3.org/2000/svg" viewBox="0 0 243.06 243.06">
  <defs>
    <style>
      .cls-1 {
        fill: #f79520;
      }
    </style>
  </defs>
  <circle class="cls-1" cx="121.56" cy="121.56" r="24.31" transform="translate(-37.27 55.77) rotate(-22.5)"/>
  <path class="cls-1" d="M178.37,78.52c-1.32-3.4-2.9-5.83-5.45-8.38-2.55-2.55-4.98-4.13-8.38-5.45-2.57-1-6.43-2.19-13.54-2.51-7.69-.35-10-.42-29.46-.42s-21.78.07-29.46.42c-7.11.32-10.97,1.51-13.54,2.51-3.4,1.32-5.83,2.9-8.38,5.45-2.55,2.55-4.13,4.98-5.45,8.38-1,2.57-2.19,6.43-2.51,13.54-.35,7.69-.42,10-.42,29.46s.07,21.78.42,29.47c.32,7.11,1.51,10.97,2.51,13.54,1.32,3.4,2.9,5.83,5.45,8.38,2.55,2.55,4.98,4.13,8.38,5.45,2.57,1,6.43,2.19,13.54,2.51,7.69.35,9.99.43,29.46.43s21.78-.07,29.46-.43c7.11-.32,10.97-1.51,13.54-2.51,3.4-1.32,5.83-2.9,8.38-5.45,2.55-2.55,4.13-4.98,5.45-8.38,1-2.57,2.19-6.43,2.51-13.54.35-7.69.42-10,.42-29.47s-.07-21.78-.42-29.46c-.32-7.11-1.51-10.97-2.51-13.54ZM121.56,159.01c-20.68,0-37.44-16.76-37.44-37.44s16.76-37.44,37.44-37.44,37.44,16.76,37.44,37.44-16.76,37.44-37.44,37.44ZM160.48,91.37c-4.83,0-8.75-3.92-8.75-8.75s3.92-8.75,8.75-8.75,8.75,3.92,8.75,8.75-3.92,8.75-8.75,8.75Z"/>
  <path class="cls-1" d="M121.53,0C54.41,0,0,54.41,0,121.53s54.41,121.53,121.53,121.53,121.53-54.41,121.53-121.53S188.65,0,121.53,0ZM194.01,151.59c-.35,7.76-1.59,13.06-3.39,17.7-1.86,4.79-4.36,8.86-8.41,12.92-4.05,4.05-8.12,6.55-12.91,8.41-4.64,1.8-9.94,3.04-17.7,3.39-7.78.35-10.26.44-30.06.44s-22.29-.08-30.06-.44c-7.76-.35-13.06-1.59-17.7-3.39-4.79-1.86-8.86-4.36-12.91-8.41-4.05-4.05-6.55-8.12-8.41-12.92-1.8-4.64-3.04-9.94-3.39-17.7-.35-7.78-.44-10.26-.44-30.06s.08-22.29.44-30.06c.35-7.76,1.59-13.06,3.39-17.7,1.86-4.79,4.36-8.86,8.41-12.91,4.05-4.05,8.12-6.55,12.91-8.41,4.64-1.8,9.94-3.04,17.7-3.39,7.78-.35,10.26-.44,30.06-.44s22.29.08,30.06.44c7.76.35,13.06,1.59,17.7,3.39,4.79,1.86,8.86,4.36,12.91,8.41,4.05,4.05,6.55,8.12,8.41,12.91,1.8,4.64,3.04,9.94,3.39,17.7.35,7.78.44,10.26.44,30.06s-.08,22.29-.44,30.06Z"/>
</svg>