<?xml version="1.0" encoding="UTF-8"?>
<svg id="Layer_1" data-name="Layer 1" xmlns="http://www.w3.org/2000/svg" viewBox="0 0 460 460">
  <defs>
    <style>
      .cls-1 {
        fill: #f6921e;
      }
    </style>
  </defs>
  <circle class="cls-1" cx="230.04" cy="230.04" r="29.78" transform="translate(-70.52 105.54) rotate(-22.5)"/>
  <path class="cls-1" d="M299.64,177.31c-1.62-4.17-3.56-7.15-6.68-10.27-3.13-3.13-6.1-5.06-10.27-6.68-3.15-1.22-7.88-2.68-16.59-3.08-9.42-.43-12.25-.52-36.1-.52s-26.68.09-36.1.52c-8.71.4-13.44,1.85-16.59,3.08-4.17,1.62-7.15,3.56-10.27,6.68-3.13,3.13-5.06,6.1-6.68,10.27-1.22,3.15-2.68,7.88-3.08,16.59-.43,9.42-.52,12.25-.52,36.1s.09,26.68.52,36.1c.4,8.71,1.85,13.44,3.08,16.59,1.62,4.17,3.56,7.15,6.68,10.27,3.13,3.13,6.1,5.06,10.27,6.68,3.15,1.22,7.88,2.68,16.59,3.08,9.42.43,12.24.52,36.1.52s26.68-.09,36.1-.52c8.71-.4,13.44-1.85,16.59-3.08,4.17-1.62,7.15-3.56,10.27-6.68,3.13-3.13,5.06-6.1,6.68-10.27,1.22-3.15,2.68-7.88,3.08-16.59.43-9.42.52-12.25.52-36.1s-.09-26.68-.52-36.1c-.4-8.71-1.85-13.44-3.08-16.59ZM230.04,275.91c-25.34,0-45.87-20.54-45.87-45.87s20.54-45.87,45.87-45.87,45.87,20.54,45.87,45.87-20.54,45.87-45.87,45.87ZM277.72,193.05c-5.92,0-10.72-4.8-10.72-10.72s4.8-10.72,10.72-10.72,10.72,4.8,10.72,10.72-4.8,10.72-10.72,10.72Z"/>
  <path class="cls-1" d="M230,81.11c-82.23,0-148.89,66.66-148.89,148.89s66.66,148.89,148.89,148.89,148.89-66.66,148.89-148.89-66.66-148.89-148.89-148.89ZM318.8,266.83c-.43,9.51-1.94,16-4.15,21.68-2.28,5.87-5.34,10.86-10.3,15.82-4.97,4.97-9.95,8.02-15.82,10.3-5.68,2.21-12.18,3.72-21.68,4.15-9.53.43-12.57.54-36.83.54s-27.3-.1-36.83-.54c-9.51-.43-16-1.94-21.68-4.15-5.87-2.28-10.86-5.34-15.82-10.3-4.97-4.97-8.02-9.95-10.3-15.82-2.21-5.68-3.72-12.18-4.15-21.68-.43-9.53-.54-12.57-.54-36.83s.1-27.3.54-36.83c.43-9.51,1.94-16,4.15-21.68,2.28-5.87,5.34-10.86,10.3-15.82,4.97-4.97,9.95-8.02,15.82-10.3,5.68-2.21,12.18-3.72,21.68-4.15,9.53-.43,12.57-.54,36.83-.54s27.3.1,36.83.54c9.51.43,16,1.94,21.68,4.15,5.87,2.28,10.86,5.34,15.82,10.3,4.97,4.97,8.02,9.95,10.3,15.82,2.21,5.68,3.72,12.18,4.15,21.68.43,9.53.54,12.57.54,36.83s-.1,27.3-.54,36.83Z"/>
</svg>