<?xml version="1.0" encoding="UTF-8"?>
<svg id="Layer_1" data-name="Layer 1" xmlns="http://www.w3.org/2000/svg" viewBox="0 0 460 460">
  <defs>
    <style>
      .cls-1 {
        fill: #f6921e;
      }

      .cls-2 {
        fill: #f1f2f2;
      }

      .cls-3 {
        fill: #3f3f3e;
      }
    </style>
  </defs>
  <path class="cls-3" d="M305.33,263.63c1.19.56,2.46.84,3.7.84,1.99,0,3.94-.69,5.54-2.03l29.94-24.96c1.99-1.66,3.12-4.09,3.12-6.68,0-2.58-1.14-5.02-3.12-6.67l-29.94-24.96c-2.62-2.18-6.16-2.63-9.25-1.19-3.09,1.45-5.01,4.46-5.01,7.87v7.03c-4.92,1.41-9.83,2.48-14.69,3.17v-33c4.88-.62,9.78-1.57,14.69-2.84v.54c0,3.41,1.92,6.42,5.01,7.86,1.19.56,2.46.84,3.7.84,1.99,0,3.94-.69,5.54-2.03l29.94-24.96c1.99-1.66,3.12-4.09,3.12-6.68s-1.14-5.02-3.12-6.67l-29.94-24.96c-2.61-2.19-6.16-2.64-9.25-1.2-3.09,1.45-5.01,4.46-5.01,7.87v8.4c-4.92,1.41-9.83,2.47-14.69,3.16v-9.47l-89.49-72.63-.07.09h0c-1.09-.9-2.49-1.44-4-1.44h-32.29c-3.47,0-6.3,2.83-6.3,6.3v53.29c-12.2,3.67-24.77,10.1-37.62,19.25-2.18,1.55-3.48,4.08-3.48,6.76v22.97c0,3.08,1.69,5.89,4.42,7.33,2.73,1.44,6.01,1.25,8.56-.5,9.65-6.62,19.05-11.5,28.13-14.64v32.5c-12.2,3.67-24.76,10.09-37.62,19.25-2.18,1.56-3.48,4.09-3.48,6.77v22.97c0,3.08,1.69,5.89,4.42,7.33,2.73,1.43,6.01,1.25,8.56-.5,9.65-6.61,19.05-11.49,28.13-14.64v32.5c-12.2,3.67-24.77,10.1-37.62,19.25-2.18,1.56-3.48,4.08-3.48,6.77v22.96c0,3.09,1.69,5.89,4.42,7.33,2.73,1.44,6.01,1.26,8.56-.49,9.65-6.62,19.05-11.5,28.13-14.65v87.74c0,3.47,2.83,6.3,6.3,6.3h32.29c1.28,0,2.46-.38,3.45-1.03l.06.09,90.06-57v-12.76c4.88-.62,9.78-1.56,14.69-2.83v3.23c0,3.41,1.92,6.42,5.01,7.86,1.19.56,2.46.83,3.7.83,1.99,0,3.94-.68,5.54-2.02l29.94-24.96c1.99-1.65,3.12-4.08,3.12-6.67s-1.14-5.02-3.12-6.67l-29.94-24.96c-2.61-2.18-6.16-2.63-9.25-1.19-3.09,1.45-5.01,4.46-5.01,7.87v5.68c-4.92,1.41-9.83,2.48-14.69,3.17v-33c4.88-.62,9.78-1.57,14.69-2.84v1.88c0,3.41,1.92,6.42,5.01,7.86ZM153.46,294.41c-9.49,2.85-19.2,7.37-29.09,13.55v-14.15c10-6.95,19.72-12.07,29.09-15.32v15.92ZM153.46,220.74c-9.49,2.86-19.2,7.37-29.09,13.55v-14.15c10-6.95,19.72-12.06,29.09-15.32v15.92ZM153.46,147.06c-9.49,2.85-19.2,7.37-29.09,13.55v-14.15c10-6.95,19.72-12.06,29.09-15.31v15.91ZM186.34,389.06h-20.87V70.94h20.87v318.12ZM300.32,151.67c2.94-.75,9.06-2.76,12.01-3.74v-10.01l21.43,17.86-21.43,17.87v-9.98c-1.67.55-10.34,3.62-12.01,4.09-4.92,1.41-9.83,2.47-14.69,3.16-4.04.58-8.04.91-12.01,1.01-5.16.1-10.26-.19-15.28-.91-13-1.85-22.53-6.08-31.21-10.66v-15.09c8.12,3.9,17.53,7.4,29.52,9.1,5.59.79,11.25,1.14,16.97,1.02,3.98-.07,7.98-.37,12.01-.89,4.87-.62,9.78-1.56,14.69-2.83ZM273.62,336.52l-75.26,47.63V77.55l75.26,61.08v4.76c-5.16.1-10.26-.19-15.28-.91-16.04-2.28-26.8-8.2-37.22-13.92-1.98-1.08-3.96-2.17-6-3.24h0s0,42.2,0,42.2c.07.04.15.08.22.12,3.7,2.03,7.57,4.16,11.79,6.19,8.12,3.89,17.53,7.39,29.52,9.1,4.91.69,9.87,1.04,14.87,1.04.7,0,1.4,0,2.11-.03v33.12c-5.16.11-10.26-.18-15.28-.91-13-1.85-22.53-6.09-31.21-10.67-2.04-1.07-4.03-2.16-6.01-3.25-1.98-1.09-3.97-2.18-6.01-3.25v42.2c.07.04.15.08.22.12,3.7,2.03,7.57,4.16,11.79,6.18,8.12,3.9,17.53,7.4,29.52,9.1,4.91.7,9.87,1.05,14.87,1.05.7,0,1.4,0,2.11-.03v33.12c-5.16.11-10.26-.19-15.28-.91-13-1.85-22.53-6.09-31.21-10.67-2.04-1.07-4.03-2.16-6.01-3.25-1.98-1.09-3.97-2.18-6.01-3.25v42.32l.51.16c10.75,5.92,22.96,12.56,41.02,15.13,4.91.7,9.87,1.04,14.87,1.04.7,0,1.4,0,2.11-.03v5.26ZM300.32,299c2.94-.75,9.06-2.76,12.01-3.74v-7.3l21.43,17.86-21.43,17.87v-12.69c-1.67.56-10.34,3.62-12.01,4.09-4.92,1.41-9.82,2.48-14.69,3.17-4.03.58-8.04.91-12.01,1.01-5.16.1-10.26-.19-15.28-.91-13-1.85-22.53-6.08-31.21-10.67v-15.08c8.12,3.89,17.53,7.39,29.52,9.1,5.59.79,11.25,1.14,16.97,1.02,3.98-.07,7.98-.37,12.01-.89,4.87-.62,9.78-1.57,14.69-2.84ZM285.63,244.59c-4.04.58-8.04.91-12.01,1.01-5.16.1-10.26-.19-15.28-.91-13-1.85-22.53-6.08-31.21-10.67v-15.08c8.12,3.89,17.53,7.39,29.52,9.1,5.59.79,11.25,1.14,16.97,1.02,3.98-.07,7.99-.37,12.01-.89,4.88-.62,9.78-1.56,14.69-2.83,2.94-.76,9.06-2.76,12.01-3.74v-8.66l21.43,17.86-21.43,17.87v-11.33c-1.67.55-10.34,3.62-12.01,4.09-4.92,1.41-9.83,2.47-14.69,3.16Z"/>
  <path class="cls-1" d="M312.33,173.65v-9.98c-1.67.55-10.34,3.62-12.01,4.09-4.92,1.41-9.83,2.47-14.69,3.16-4.04.58-8.04.91-12.01,1.01-5.16.1-10.26-.19-15.28-.91-13-1.85-22.53-6.08-31.21-10.66v-15.09c8.12,3.9,17.53,7.4,29.52,9.1,5.59.79,11.25,1.14,16.97,1.02,3.98-.07,7.98-.37,12.01-.89,4.87-.62,9.78-1.56,14.69-2.83,2.94-.75,9.06-2.76,12.01-3.74v-10.01l21.43,17.86-21.43,17.87Z"/>
  <path class="cls-1" d="M312.33,248.67v-11.33c-1.67.55-10.34,3.62-12.01,4.09-4.92,1.41-9.83,2.47-14.69,3.16-4.04.58-8.04.91-12.01,1.01-5.16.1-10.26-.19-15.28-.91-13-1.85-22.53-6.08-31.21-10.67v-15.08c8.12,3.89,17.53,7.39,29.52,9.1,5.59.79,11.25,1.14,16.97,1.02,3.98-.07,7.99-.37,12.01-.89,4.88-.62,9.78-1.56,14.69-2.83,2.94-.76,9.06-2.76,12.01-3.74v-8.66l21.43,17.86-21.43,17.87Z"/>
  <path class="cls-1" d="M312.33,323.69v-12.69c-1.67.56-10.34,3.62-12.01,4.09-4.92,1.41-9.82,2.48-14.69,3.17-4.03.58-8.04.91-12.01,1.01-5.16.1-10.26-.19-15.28-.91-13-1.85-22.53-6.08-31.21-10.67v-15.08c8.12,3.89,17.53,7.39,29.52,9.1,5.59.79,11.25,1.14,16.97,1.02,3.98-.07,7.98-.37,12.01-.89,4.87-.62,9.78-1.57,14.69-2.84,2.94-.75,9.06-2.76,12.01-3.74v-7.3l21.43,17.86-21.43,17.87Z"/>
  <path class="cls-1" d="M153.46,278.49v15.92c-9.49,2.85-19.2,7.37-29.09,13.55v-14.15c10-6.95,19.72-12.07,29.09-15.32Z"/>
  <path class="cls-1" d="M153.46,204.82v15.92c-9.49,2.86-19.2,7.37-29.09,13.55v-14.15c10-6.95,19.72-12.06,29.09-15.32Z"/>
  <path class="cls-1" d="M153.46,131.15v15.91c-9.49,2.85-19.2,7.37-29.09,13.55v-14.15c10-6.95,19.72-12.06,29.09-15.31Z"/>
  <rect class="cls-1" x="165.47" y="70.94" width="20.87" height="318.12"/>
  <path class="cls-2" d="M215.12,167.5c.07.04.15.08.22.12,3.7,2.03,7.57,4.16,11.79,6.19,8.12,3.89,17.53,7.39,29.52,9.1,4.91.69,9.87,1.04,14.87,1.04.7,0,1.4,0,2.11-.03v33.12c-5.16.11-10.26-.18-15.28-.91-13-1.85-22.53-6.09-31.21-10.67-2.04-1.07-4.03-2.16-6.01-3.25-1.98-1.09-3.97-2.18-6.01-3.25v42.2c.07.04.15.08.22.12,3.7,2.03,7.57,4.16,11.79,6.18,8.12,3.9,17.53,7.4,29.52,9.1,4.91.7,9.87,1.05,14.87,1.05.7,0,1.4,0,2.11-.03v33.12c-5.16.11-10.26-.19-15.28-.91-13-1.85-22.53-6.09-31.21-10.67-2.04-1.07-4.03-2.16-6.01-3.25-1.98-1.09-3.97-2.18-6.01-3.25v42.32l.51.16c10.75,5.92,22.96,12.56,41.02,15.13,4.91.7,9.87,1.04,14.87,1.04.7,0,1.4,0,2.11-.03v5.26l-75.26,47.63V77.55l75.26,61.08v4.76c-5.16.1-10.26-.19-15.28-.91-16.04-2.28-26.8-8.2-37.22-13.92-1.98-1.08-3.96-2.17-6-3.24h0s0,42.2,0,42.2Z"/>
</svg>