<?xml version="1.0" encoding="UTF-8"?>
<svg id="Layer_1" data-name="Layer 1" xmlns="http://www.w3.org/2000/svg" viewBox="0 0 460 460">
  <defs>
    <style>
      .cls-1 {
        fill: #f6921e;
      }

      .cls-2 {
        fill: #f1f2f2;
      }

      .cls-3 {
        fill: #3f3f3e;
      }
    </style>
  </defs>
  <path class="cls-3" d="M206.45,59.27l-.08.09c-1.09-.91-2.49-1.45-4.02-1.45h-32.48c-3.5,0-6.34,2.85-6.34,6.34v331.48c0,3.49,2.83,6.34,6.34,6.34h32.48c1.28,0,2.47-.38,3.47-1.02l.06.09,90.61-57.35v-211.47l-90.03-73.06ZM196.6,390h-21.01V70.01h21.01v319.99ZM284.4,337.16l-75.72,47.9V76.64l75.72,61.44v199.08Z"/>
  <polygon class="cls-2" points="284.4 138.08 284.4 337.16 208.68 385.06 208.68 76.64 284.4 138.08"/>
  <rect class="cls-1" x="175.6" y="70.01" width="21.01" height="319.99"/>
</svg>