<?xml version="1.0" encoding="UTF-8"?>
<svg id="Layer_1" data-name="Layer 1" xmlns="http://www.w3.org/2000/svg" viewBox="0 0 460 460">
  <defs>
    <style>
      .cls-1 {
        fill: #f6921e;
      }

      .cls-2 {
        fill: #f1f2f2;
      }

      .cls-3 {
        fill: #3f3f3e;
      }
    </style>
  </defs>
  <path class="cls-3" d="M343.18,237.62c-.15-3.02-2.06-5.68-4.88-6.77-2.82-1.1-6.03-.42-8.17,1.72l-9.2,9.21-36.74-36.74,29.65-29.65c1.77-1.76,2.74-4.11,2.74-6.61s-.97-4.85-2.74-6.61l-20.29-20.3c-3.65-3.64-9.57-3.64-13.22,0l-29.64,29.65-9.41-9.41v-9.11l54.4-54.4c1.77-1.77,2.74-4.11,2.74-6.61s-.98-4.84-2.74-6.61l-20.29-20.29c-3.64-3.65-9.57-3.65-13.22,0l-45.08,45.08-61.49-49.9-.03.04c-1.05-.86-2.41-1.38-3.87-1.38h-31.23c-3.37,0-6.12,2.74-6.12,6.12v315.49c0,3.37,2.74,6.12,6.12,6.12h31.23c1.21,0,2.35-.35,3.3-.97l.03.04,76.82-48.62,40.06,40.06-8.38,8.38c-2.14,2.13-2.82,5.34-1.73,8.16,1.09,2.83,3.75,4.74,6.77,4.88l52.84,2.48c.12,0,.24,0,.36,0,2.01,0,3.97-.81,5.41-2.25,1.52-1.52,2.33-3.61,2.23-5.76l-2.47-52.84c-.14-3.03-2.06-5.68-4.88-6.77-2.82-1.1-6.03-.42-8.17,1.72l-8.47,8.47-64.15-64.14v-31.55l9.4-9.4,36.74,36.74-7.65,7.65c-2.13,2.14-2.81,5.34-1.72,8.17,1.09,2.82,3.75,4.73,6.77,4.87l52.84,2.48c.12,0,.24,0,.35,0,2.02,0,3.97-.81,5.42-2.25,1.52-1.52,2.33-3.61,2.23-5.76l-2.47-52.84ZM145.79,374.64h-19.43V70.94h19.43v303.69ZM217.91,126.33l8.54-8.54,42.32-42.32,16.52,16.52-65.57,65.57,21.54,21.54.91.91-12.92,12.92-3.6,3.6-38.97-38.98,31.24-31.24ZM157.81,369.73V77.54l50.73,41.18-38.84,38.84,47.46,47.47-58.68,58.68,64.66,64.66-65.33,41.35ZM208.5,263.72l32.76,32.76,55.65,55.65,8.5,8.5,8.49-8.5,1.48-1.48.15,3.11.1,2.3,1.53,32.77-32.77-1.53-2.48-.11-2.93-.14,1.4-1.4,8.5-8.49-8.5-8.5-39.13-39.13-12.01-12.01-53.79-53.79,50.19-50.19,3.6-3.6,4.89-4.89,7.13-7.13,9.4-9.4,8.5-8.49,27.75-27.76,16.52,16.52-27.75,27.76-8.5,8.49-58.68,58.68ZM229.25,259.96v7.52l-3.76-3.76,3.76-3.76ZM299.9,284.67l-3.27-.16-1.39-.06.67-.67,8.49-8.48-8.5-8.5-36.74-36.74,16.52-16.52,45.25,45.25,8.49-8.5,2.22-2.22.22,4.66,1.56,33.52-33.52-1.56Z"/>
  <polygon class="cls-2" points="229.25 259.96 229.25 267.48 225.49 263.72 229.25 259.96"/>
  <polygon class="cls-1" points="333.42 286.23 299.9 284.67 296.63 284.52 295.25 284.45 295.91 283.79 304.4 275.3 295.9 266.8 259.16 230.06 275.68 213.53 320.93 258.78 329.42 250.28 331.64 248.06 331.86 252.72 333.42 286.23"/>
  <polygon class="cls-1" points="241.27 179.11 242.17 180.02 229.25 192.94 225.65 196.55 186.68 157.57 217.91 126.33 226.45 117.79 268.77 75.47 285.29 92 219.72 157.57 241.27 179.11"/>
  <polygon class="cls-1" points="317.18 388.83 284.41 387.3 281.93 387.19 279 387.05 280.39 385.65 288.9 377.16 280.39 368.66 241.27 329.53 229.25 317.52 175.46 263.72 225.65 213.53 229.25 209.93 234.14 205.04 241.27 197.91 250.66 188.51 259.17 180.02 286.92 152.26 303.44 168.78 275.69 196.55 267.19 205.04 208.5 263.72 241.27 296.48 296.92 352.14 305.42 360.64 313.91 352.14 315.39 350.66 315.54 353.76 315.64 356.06 317.18 388.83"/>
  <polygon class="cls-2" points="223.13 328.38 157.81 369.73 157.81 77.54 208.53 118.72 169.69 157.57 217.15 205.04 158.47 263.72 223.13 328.38"/>
  <rect class="cls-1" x="126.36" y="70.94" width="19.43" height="303.69"/>
</svg>