<?xml version="1.0" encoding="UTF-8"?>
<svg id="Layer_1" data-name="Layer 1" xmlns="http://www.w3.org/2000/svg" viewBox="0 0 460 460">
  <defs>
    <style>
      .cls-1 {
        fill: #f6921e;
      }

      .cls-2 {
        fill: #f1f2f2;
      }

      .cls-3 {
        fill: #3f3f3e;
      }
    </style>
  </defs>
  <path class="cls-3" d="M281.96,85.43h-16.87v-7.47c0-11.05-9-20.04-20.05-20.04h-61.3c-11.05,0-20.05,8.99-20.05,20.04v7.47h-15.11c-17.93,0-32.51,14.58-32.51,32.51v218.32c0,12.76,7.38,23.81,18.1,29.14v18.09c0,10.25,8.34,18.59,18.59,18.59h18.91c10.24,0,18.59-8.34,18.59-18.59v-14.71h46.23v14.71c0,10.25,8.34,18.59,18.59,18.59h18.9c10.25,0,18.6-8.34,18.6-18.59v-16.5c12.72-4.42,21.88-16.51,21.88-30.72V117.94c0-17.93-14.58-32.51-32.51-32.51ZM176.75,77.96c0-3.85,3.13-6.98,6.99-6.98h61.3c3.86,0,6.99,3.13,6.99,6.98v7.47h-75.28v-7.47ZM177.21,383.49c0,3.05-2.48,5.53-5.53,5.53h-18.91c-3.05,0-5.53-2.48-5.53-5.53v-14.74c.45.02.9.03,1.36.03h28.62v14.71ZM279.54,383.49c0,3.05-2.48,5.53-5.54,5.53h-18.9c-3.05,0-5.53-2.48-5.53-5.53v-14.71h29.98v14.71ZM301.41,336.26c0,10.73-8.72,19.45-19.45,19.45h-133.37c-10.73,0-19.45-8.73-19.45-19.45V117.94c0-10.73,8.73-19.45,19.45-19.45h133.37c10.74,0,19.45,8.73,19.45,19.45v218.32Z"/>
  <path class="cls-2" d="M279.54,368.78v14.71c0,3.05-2.48,5.53-5.54,5.53h-18.9c-3.05,0-5.53-2.48-5.53-5.53v-14.71h29.98Z"/>
  <path class="cls-2" d="M177.21,368.78v14.71c0,3.05-2.48,5.53-5.53,5.53h-18.91c-3.05,0-5.53-2.48-5.53-5.53v-14.74c.45.02.9.03,1.36.03h28.62Z"/>
  <path class="cls-1" d="M252.02,77.96v7.47h-75.28v-7.47c0-3.85,3.13-6.98,6.99-6.98h61.3c3.86,0,6.99,3.13,6.99,6.98Z"/>
  <path class="cls-2" d="M281.96,98.49h-133.37c-10.73,0-19.45,8.73-19.45,19.45v218.32c0,10.73,8.73,19.45,19.45,19.45h133.37c10.74,0,19.45-8.73,19.45-19.45V117.94c0-10.73-8.72-19.45-19.45-19.45ZM265.08,313.26c0,8.52-6.94,15.46-15.46,15.46h-70.48c-8.52,0-15.46-6.94-15.46-15.46v-38.62c0-8.53,6.94-15.46,15.46-15.46h70.48c8.52,0,15.46,6.93,15.46,15.46v38.62ZM264.54,234.6h-99.83c-3.61,0-6.53-2.92-6.53-6.53s2.92-6.53,6.53-6.53h99.83c3.61,0,6.53,2.92,6.53,6.53s-2.92,6.53-6.53,6.53ZM264.54,202.26h-99.83c-3.61,0-6.53-2.92-6.53-6.53s2.92-6.53,6.53-6.53h99.83c3.61,0,6.53,2.92,6.53,6.53s-2.92,6.53-6.53,6.53ZM264.54,169.92h-99.83c-3.61,0-6.53-2.92-6.53-6.53s2.92-6.53,6.53-6.53h99.83c3.61,0,6.53,2.92,6.53,6.53s-2.92,6.53-6.53,6.53ZM264.54,137.58h-99.83c-3.61,0-6.53-2.92-6.53-6.53s2.92-6.53,6.53-6.53h99.83c3.61,0,6.53,2.92,6.53,6.53s-2.92,6.53-6.53,6.53Z"/>
  <path class="cls-3" d="M249.62,259.19h-70.48c-8.52,0-15.46,6.93-15.46,15.46v38.62c0,8.52,6.94,15.46,15.46,15.46h70.48c8.52,0,15.46-6.94,15.46-15.46v-38.62c0-8.53-6.94-15.46-15.46-15.46ZM252.02,313.26c0,1.32-1.08,2.4-2.4,2.4h-70.48c-1.32,0-2.4-1.08-2.4-2.4v-38.62c0-1.33,1.08-2.4,2.4-2.4h70.48c1.32,0,2.4,1.07,2.4,2.4v38.62Z"/>
  <path class="cls-1" d="M252.02,274.64v38.62c0,1.32-1.08,2.4-2.4,2.4h-70.48c-1.32,0-2.4-1.08-2.4-2.4v-38.62c0-1.33,1.08-2.4,2.4-2.4h70.48c1.32,0,2.4,1.07,2.4,2.4Z"/>
  <path class="cls-3" d="M271.07,131.05c0,3.61-2.92,6.53-6.53,6.53h-99.83c-3.61,0-6.53-2.92-6.53-6.53s2.92-6.53,6.53-6.53h99.83c3.61,0,6.53,2.92,6.53,6.53Z"/>
  <path class="cls-3" d="M271.07,163.39c0,3.61-2.92,6.53-6.53,6.53h-99.83c-3.61,0-6.53-2.92-6.53-6.53s2.92-6.53,6.53-6.53h99.83c3.61,0,6.53,2.92,6.53,6.53Z"/>
  <path class="cls-3" d="M271.07,195.73c0,3.61-2.92,6.53-6.53,6.53h-99.83c-3.61,0-6.53-2.92-6.53-6.53s2.92-6.53,6.53-6.53h99.83c3.61,0,6.53,2.92,6.53,6.53Z"/>
  <path class="cls-3" d="M271.07,228.07c0,3.61-2.92,6.53-6.53,6.53h-99.83c-3.61,0-6.53-2.92-6.53-6.53s2.92-6.53,6.53-6.53h99.83c3.61,0,6.53,2.92,6.53,6.53Z"/>
  <path class="cls-3" d="M419.64,180.26l-52.06-61.01c-3.44-4.03-8.47-6.35-13.77-6.35s-10.33,2.32-13.77,6.35l-52.06,61.01c-4.63,5.43-5.65,12.85-2.66,19.33,2.99,6.49,9.29,10.52,16.43,10.52h19.01v93.43c0,10.29,8.37,18.65,18.65,18.65h28.79c10.28,0,18.65-8.37,18.65-18.65v-93.43h19.01c7.14,0,13.44-4.03,16.43-10.52,2.99-6.49,1.97-13.9-2.66-19.33ZM410.45,194.12c-.41.88-1.67,2.93-4.58,2.93h-32.07v106.48c0,3.08-2.51,5.59-5.59,5.59h-28.79c-3.08,0-5.59-2.51-5.59-5.59v-106.48h-32.07c-2.91,0-4.17-2.05-4.58-2.93-.4-.88-1.14-3.17.74-5.38l52.06-61.01c1.32-1.54,2.97-1.77,3.84-1.77s2.52.23,3.84,1.77l52.06,61.01c1.89,2.21,1.15,4.5.74,5.38Z"/>
  <path class="cls-1" d="M410.45,194.12c-.41.88-1.67,2.93-4.58,2.93h-32.07v106.48c0,3.08-2.51,5.59-5.59,5.59h-28.79c-3.08,0-5.59-2.51-5.59-5.59v-106.48h-32.07c-2.91,0-4.17-2.05-4.58-2.93-.4-.88-1.14-3.17.74-5.38l52.06-61.01c1.32-1.54,2.97-1.77,3.84-1.77s2.52.23,3.84,1.77l52.06,61.01c1.89,2.21,1.15,4.5.74,5.38Z"/>
</svg>