<?xml version="1.0" encoding="UTF-8"?>
<svg id="Layer_1" data-name="Layer 1" xmlns="http://www.w3.org/2000/svg" viewBox="0 0 460 460">
  <defs>
    <style>
      .cls-1 {
        fill: #f6921e;
      }

      .cls-2 {
        fill: #f1f2f2;
      }

      .cls-3 {
        fill: #3f3f3e;
      }
    </style>
  </defs>
  <path class="cls-3" d="M111.69,165.67h-35.53c-3.2,0-5.8,3.09-5.8,6.91v31.7c0,3.82,2.6,6.91,5.8,6.91h35.53c3.2,0,5.8-3.09,5.8-6.91v-31.7c0-3.82-2.6-6.91-5.8-6.91ZM108.99,202.68h-30.12v-28.5h30.12v28.5Z"/>
  <path class="cls-3" d="M167.58,165.67h-35.53c-3.2,0-5.8,3.09-5.8,6.91v31.7c0,3.82,2.6,6.91,5.8,6.91h35.53c3.2,0,5.8-3.09,5.8-6.91v-31.7c0-3.82-2.6-6.91-5.8-6.91ZM164.87,202.68h-30.12v-28.5h30.12v28.5Z"/>
  <path class="cls-3" d="M223.47,165.67h-35.53c-3.2,0-5.8,3.09-5.8,6.91v31.7c0,3.82,2.6,6.91,5.8,6.91h35.53c3.2,0,5.8-3.09,5.8-6.91v-31.7c0-3.82-2.6-6.91-5.8-6.91ZM220.76,202.68h-30.12v-28.5h30.12v28.5Z"/>
  <path class="cls-3" d="M279.35,165.67h-35.53c-3.2,0-5.8,3.09-5.8,6.91v31.7c0,3.82,2.6,6.91,5.8,6.91h35.53c3.2,0,5.8-3.09,5.8-6.91v-31.7c0-3.82-2.6-6.91-5.8-6.91ZM276.65,202.68h-30.12v-28.5h30.12v28.5Z"/>
  <path class="cls-3" d="M111.69,222.24h-35.53c-3.2,0-5.8,3.09-5.8,6.9v31.7c0,3.82,2.6,6.91,5.8,6.91h35.53c3.2,0,5.8-3.09,5.8-6.91v-31.7c0-3.81-2.6-6.9-5.8-6.9ZM108.99,259.24h-30.12v-28.49h30.12v28.49Z"/>
  <path class="cls-3" d="M167.58,222.24h-35.53c-3.2,0-5.8,3.09-5.8,6.9v31.7c0,3.82,2.6,6.91,5.8,6.91h35.53c3.2,0,5.8-3.09,5.8-6.91v-31.7c0-3.81-2.6-6.9-5.8-6.9ZM164.87,259.24h-30.12v-28.49h30.12v28.49Z"/>
  <path class="cls-3" d="M111.69,278.8h-35.53c-3.2,0-5.8,3.09-5.8,6.91v31.7c0,3.82,2.6,6.91,5.8,6.91h35.53c3.2,0,5.8-3.09,5.8-6.91v-31.7c0-3.82-2.6-6.91-5.8-6.91ZM108.99,315.81h-30.12v-28.5h30.12v28.5Z"/>
  <path class="cls-3" d="M167.58,278.8h-35.53c-3.2,0-5.8,3.09-5.8,6.91v31.7c0,3.82,2.6,6.91,5.8,6.91h35.53c3.2,0,5.8-3.09,5.8-6.91v-31.7c0-3.82-2.6-6.91-5.8-6.91ZM164.87,315.81h-30.12v-28.5h30.12v28.5Z"/>
  <path class="cls-3" d="M428.16,311.4c-2.07-2.17-4.99-3.42-7.99-3.42h-17.04c-5.82,0-10.64,4.52-10.98,10.29-2.16,37.09-32.99,66.15-70.17,66.15-19.12,0-37.02-7.58-50.39-21.34-3.3-3.39-6.21-7.04-8.72-10.92h11.03c20.11,0,36.47-16.36,36.47-36.47v-70.9c4.38-.74,8.89-1.07,13.48-.95,17.39.45,33.5,7.07,46,18.77l-6.26,5.35c-3.87,3.3-5.45,8.39-4.12,13.3,1.33,4.91,5.26,8.51,10.26,9.42l45.96,8.31c3.87.7,7.79-.36,10.78-2.91,2.99-2.55,4.65-6.27,4.57-10.19l-1.03-46.69c-.11-5.09-3.06-9.53-7.7-11.6-4.63-2.08-9.92-1.32-13.78,1.98l-8.87,7.57c-20.25-20.58-47.13-32.03-76.36-32.37h-1.29c-3.92,0-7.81.21-11.63.62v-76.97c0-20.11-16.36-36.46-36.47-36.46h-.28v-10.39c0-12.5-10.17-22.67-22.67-22.67s-22.68,10.17-22.68,22.67v10.39h-99.54v-10.39c0-12.5-10.17-22.67-22.67-22.67s-22.67,10.17-22.67,22.67v10.39h-1.77c-20.11,0-36.47,16.35-36.47,36.46v187.24c0,20.11,16.36,36.47,36.47,36.47h137.82c5.28,14.23,13.56,27.31,24.52,38.49,20.75,21.15,48.46,32.79,78.01,32.79s55.04-10.77,75.48-30.31c20.38-19.48,32.36-45.64,33.71-73.67.15-2.97-.95-5.92-3.01-8.07ZM298.08,315.69c0,13.34-10.84,24.18-24.18,24.18h-17.37c-1.97-4.99-3.36-10.2-4.13-15.56h26.95c3.2,0,5.8-3.09,5.8-6.91v-31.7c0-3.82-2.6-6.91-5.8-6.91h-18.13c2.31-3.95,4.98-7.65,7.99-11.05h10.14c3.2,0,5.8-3.09,5.8-6.91v-6.55c4.06-2.51,8.39-4.61,12.92-6.26v67.67ZM251.69,315.81c-.03-1.24-.03-2.48,0-3.71.25-8.76,2.11-17.12,5.29-24.79h19.65v28.5h-24.96ZM240.56,81.6c0-5.72,4.66-10.38,10.39-10.38s10.38,4.66,10.38,10.38v29.14c0,5.72-4.66,10.38-10.38,10.38s-10.39-4.66-10.39-10.38v-29.14ZM95.68,81.6c0-5.72,4.65-10.38,10.38-10.38s10.38,4.66,10.38,10.38v29.14c0,5.72-4.66,10.38-10.38,10.38s-10.38-4.66-10.38-10.38v-29.14ZM57.44,128.45c0-13.33,10.85-24.17,24.18-24.17h1.77v6.46c0,12.5,10.17,22.67,22.67,22.67s22.67-10.17,22.67-22.67v-6.46h99.54v6.46c0,12.5,10.17,22.67,22.68,22.67s22.67-10.17,22.67-22.67v-6.46h.28c13.34,0,24.18,10.84,24.18,24.17v18.43H57.44v-18.43ZM187.94,222.24c-3.2,0-5.8,3.09-5.8,6.9v31.7c0,3.82,2.6,6.91,5.8,6.91h35.07c-1.69,3.58-3.2,7.27-4.49,11.05h-30.58c-3.2,0-5.8,3.09-5.8,6.91v31.7c0,3.82,2.6,6.91,5.8,6.91h25.17c.48,5.28,1.34,10.47,2.57,15.56H81.62c-13.33,0-24.18-10.84-24.18-24.18v-156.52h240.64v48.28c-12.68,2.85-24.55,7.92-35.18,14.79h-19.08c-3.2,0-5.8,3.09-5.8,6.9v15.12c-3.19,3.8-6.11,7.83-8.75,12.04v-27.16c0-3.81-2.6-6.9-5.8-6.9h-35.53ZM220.76,230.75v28.49h-30.12v-28.49h30.12ZM215.99,287.31c-2.02,7.93-3.17,16.2-3.33,24.72-.03,1.27-.03,2.52,0,3.78h-22.02v-28.5h25.34ZM251.44,230.75c-1.68,1.41-3.32,2.88-4.91,4.41v-4.41h4.91ZM321.97,411.16c-26.22,0-50.81-10.34-69.24-29.12-8.63-8.79-15.39-18.92-20.07-29.88-1.71-3.99-3.14-8.09-4.29-12.29-1.43-5.2-2.42-10.53-2.96-15.97-.38-3.84-.54-7.73-.46-11.66.18-9.3,1.67-18.28,4.31-26.77,2.33-7.5,5.55-14.61,9.53-21.21,2.33-3.87,4.92-7.55,7.74-11.04,7.24-8.93,16.02-16.56,25.94-22.48,3.67-2.19,7.5-4.15,11.46-5.84,4.55-1.96,9.28-3.57,14.15-4.82,4.01-1.02,8.1-1.8,12.29-2.29,3.81-.47,7.69-.71,11.63-.71h1.14c27.75.32,53.11,11.92,71.42,32.64l4.01,4.53,17.93-15.32c.11-.09.35-.3.78-.11.43.19.43.5.43.65l1.03,46.7c0,.23-.09.43-.26.57-.18.15-.38.22-.61.17l-45.95-8.31c-.15-.03-.46-.09-.59-.53-.11-.45.12-.66.24-.76l16.03-13.7-4.2-4.69c-15.27-17.05-36.31-26.76-59.23-27.36-4.69-.12-9.3.15-13.8.79-4.21.6-8.31,1.5-12.29,2.71-4.47,1.36-8.8,3.09-12.92,5.16-2.94,1.47-5.78,3.11-8.51,4.91-6.03,3.97-11.52,8.72-16.32,14.1-2.4,2.68-4.62,5.52-6.66,8.51-2.39,3.5-4.52,7.19-6.35,11.05-4.77,10.02-7.58,21.17-7.91,32.95-.1,3.57.03,7.11.37,10.61.59,6,1.82,11.87,3.68,17.53,1.38,4.23,3.11,8.34,5.18,12.29,3.68,7.05,8.41,13.61,14.13,19.49,15.7,16.15,36.73,25.05,59.2,25.05,43.25,0,79.18-33.47,82.36-76.44h14.49c-3.2,51.08-45.47,90.89-96.85,90.89Z"/>
  <path class="cls-2" d="M251.44,230.75c-1.68,1.41-3.32,2.88-4.91,4.41v-4.41h4.91Z"/>
  <path class="cls-2" d="M261.33,81.6v29.14c0,5.72-4.66,10.38-10.38,10.38s-10.39-4.66-10.39-10.38v-29.14c0-5.72,4.66-10.38,10.39-10.38s10.38,4.66,10.38,10.38Z"/>
  <path class="cls-2" d="M116.44,81.6v29.14c0,5.72-4.66,10.38-10.38,10.38s-10.38-4.66-10.38-10.38v-29.14c0-5.72,4.65-10.38,10.38-10.38s10.38,4.66,10.38,10.38Z"/>
  <path class="cls-1" d="M298.08,128.45v18.43H57.44v-18.43c0-13.33,10.85-24.17,24.18-24.17h1.77v6.46c0,12.5,10.17,22.67,22.67,22.67s22.67-10.17,22.67-22.67v-6.46h99.54v6.46c0,12.5,10.17,22.67,22.68,22.67s22.67-10.17,22.67-22.67v-6.46h.28c13.34,0,24.18,10.84,24.18,24.17Z"/>
  <rect class="cls-2" x="190.64" y="230.75" width="30.12" height="28.49"/>
  <path class="cls-2" d="M215.99,287.31c-2.02,7.93-3.17,16.2-3.33,24.72-.03,1.27-.03,2.52,0,3.78h-22.02v-28.5h25.34Z"/>
  <path class="cls-1" d="M276.65,287.31v28.5h-24.96c-.03-1.24-.03-2.48,0-3.71.25-8.76,2.11-17.12,5.29-24.79h19.65Z"/>
  <path class="cls-2" d="M298.08,248.03v67.67c0,13.34-10.84,24.18-24.18,24.18h-17.37c-1.97-4.99-3.36-10.2-4.13-15.56h26.95c3.2,0,5.8-3.09,5.8-6.91v-31.7c0-3.82-2.6-6.91-5.8-6.91h-18.13c2.31-3.95,4.98-7.65,7.99-11.05h10.14c3.2,0,5.8-3.09,5.8-6.91v-6.55c4.06-2.51,8.39-4.61,12.92-6.26Z"/>
  <path class="cls-2" d="M57.44,159.17v156.52c0,13.34,10.85,24.18,24.18,24.18h134.07c-1.23-5.09-2.09-10.29-2.57-15.56h-25.17c-3.2,0-5.8-3.09-5.8-6.91v-31.7c0-3.82,2.6-6.91,5.8-6.91h30.58c1.29-3.78,2.8-7.47,4.49-11.05h-35.07c-3.2,0-5.8-3.09-5.8-6.91v-31.7c0-3.81,2.6-6.9,5.8-6.9h35.53c3.2,0,5.8,3.09,5.8,6.9v27.16c2.65-4.22,5.57-8.24,8.75-12.04v-15.12c0-3.81,2.6-6.9,5.8-6.9h19.08c10.63-6.86,22.5-11.94,35.18-14.79v-48.28H57.44ZM117.49,317.4c0,3.82-2.6,6.91-5.8,6.91h-35.53c-3.2,0-5.8-3.09-5.8-6.91v-31.7c0-3.82,2.6-6.91,5.8-6.91h35.53c3.2,0,5.8,3.09,5.8,6.91v31.7ZM117.49,260.84c0,3.82-2.6,6.91-5.8,6.91h-35.53c-3.2,0-5.8-3.09-5.8-6.91v-31.7c0-3.81,2.6-6.9,5.8-6.9h35.53c3.2,0,5.8,3.09,5.8,6.9v31.7ZM117.49,204.28c0,3.82-2.6,6.91-5.8,6.91h-35.53c-3.2,0-5.8-3.09-5.8-6.91v-31.7c0-3.82,2.6-6.91,5.8-6.91h35.53c3.2,0,5.8,3.09,5.8,6.91v31.7ZM173.38,317.4c0,3.82-2.6,6.91-5.8,6.91h-35.53c-3.2,0-5.8-3.09-5.8-6.91v-31.7c0-3.82,2.6-6.91,5.8-6.91h35.53c3.2,0,5.8,3.09,5.8,6.91v31.7ZM173.38,260.84c0,3.82-2.6,6.91-5.8,6.91h-35.53c-3.2,0-5.8-3.09-5.8-6.91v-31.7c0-3.81,2.6-6.9,5.8-6.9h35.53c3.2,0,5.8,3.09,5.8,6.9v31.7ZM173.38,204.28c0,3.82-2.6,6.91-5.8,6.91h-35.53c-3.2,0-5.8-3.09-5.8-6.91v-31.7c0-3.82,2.6-6.91,5.8-6.91h35.53c3.2,0,5.8,3.09,5.8,6.91v31.7ZM229.27,204.28c0,3.82-2.6,6.91-5.8,6.91h-35.53c-3.2,0-5.8-3.09-5.8-6.91v-31.7c0-3.82,2.6-6.91,5.8-6.91h35.53c3.2,0,5.8,3.09,5.8,6.91v31.7ZM285.16,204.28c0,3.82-2.6,6.91-5.8,6.91h-35.53c-3.2,0-5.8-3.09-5.8-6.91v-31.7c0-3.82,2.6-6.91,5.8-6.91h35.53c3.2,0,5.8,3.09,5.8,6.91v31.7Z"/>
  <rect class="cls-1" x="78.87" y="174.18" width="30.12" height="28.5"/>
  <rect class="cls-2" x="134.76" y="174.18" width="30.12" height="28.5"/>
  <rect class="cls-2" x="190.64" y="174.18" width="30.12" height="28.5"/>
  <rect class="cls-1" x="246.53" y="174.18" width="30.12" height="28.5"/>
  <rect class="cls-1" x="134.76" y="230.75" width="30.12" height="28.49"/>
  <rect class="cls-2" x="78.87" y="230.75" width="30.12" height="28.49"/>
  <rect class="cls-1" x="78.87" y="287.31" width="30.12" height="28.5"/>
  <rect class="cls-2" x="134.76" y="287.31" width="30.12" height="28.5"/>
  <path class="cls-1" d="M418.82,320.27c-3.2,51.08-45.47,90.89-96.85,90.89-26.22,0-50.81-10.34-69.24-29.12-8.63-8.79-15.39-18.92-20.07-29.88-1.71-3.99-3.14-8.09-4.29-12.29-1.43-5.2-2.42-10.53-2.96-15.97-.38-3.84-.54-7.73-.46-11.66.18-9.3,1.67-18.28,4.31-26.77,2.33-7.5,5.55-14.61,9.53-21.21,2.33-3.87,4.92-7.55,7.74-11.04,7.24-8.93,16.02-16.56,25.94-22.48,3.67-2.19,7.5-4.15,11.46-5.84,4.55-1.96,9.28-3.57,14.15-4.82,4.01-1.02,8.1-1.8,12.29-2.29,3.81-.47,7.69-.71,11.63-.71h1.14c27.75.32,53.11,11.92,71.42,32.64l4.01,4.53,17.93-15.32c.11-.09.35-.3.78-.11.43.19.43.5.43.65l1.03,46.7c0,.23-.09.43-.26.57-.18.15-.38.22-.61.17l-45.95-8.31c-.15-.03-.46-.09-.59-.53-.11-.45.12-.66.24-.76l16.03-13.7-4.2-4.69c-15.27-17.05-36.31-26.76-59.23-27.36-4.69-.12-9.3.15-13.8.79-4.21.6-8.31,1.5-12.29,2.71-4.47,1.36-8.8,3.09-12.92,5.16-2.94,1.47-5.78,3.11-8.51,4.91-6.03,3.97-11.52,8.72-16.32,14.1-2.4,2.68-4.62,5.52-6.66,8.51-2.39,3.5-4.52,7.19-6.35,11.05-4.77,10.02-7.58,21.17-7.91,32.95-.1,3.57.03,7.11.37,10.61.59,6,1.82,11.87,3.68,17.53,1.38,4.23,3.11,8.34,5.18,12.29,3.68,7.05,8.41,13.61,14.13,19.49,15.7,16.15,36.73,25.05,59.2,25.05,43.25,0,79.18-33.47,82.36-76.44h14.49Z"/>
</svg>