<svg id="Group_57" data-name="Group 57" xmlns="http://www.w3.org/2000/svg" xmlns:xlink="http://www.w3.org/1999/xlink" width="170.815" height="186" viewBox="0 0 170.815 186">
  <defs>
    <clipPath id="clip-path">
      <rect id="Rectangle_84" data-name="Rectangle 84" width="170.815" height="186" fill="none"/>
    </clipPath>
  </defs>
  <g id="Group_56" data-name="Group 56" clip-path="url(#clip-path)">
    <path id="Path_169" data-name="Path 169" d="M170.813,147.094a40.905,40.905,0,0,1-80.235,9.071H19.421A19.443,19.443,0,0,1,0,136.743V37.023A19.448,19.448,0,0,1,19.421,17.6h.942V12.073a12.073,12.073,0,0,1,24.145,0V17.6H97.523V12.073a12.077,12.077,0,0,1,24.153,0V17.6h.145a19.45,19.45,0,0,1,19.429,19.421v68.726a40.514,40.514,0,0,1,19.308,12.2l5.3-4.523a2.725,2.725,0,0,1,4.491,2.02l.41,18.511a2.728,2.728,0,0,1-3.211,2.745l-18.222-3.3a2.727,2.727,0,0,1-1.288-4.757l4.467-3.807a30.191,30.191,0,0,0-11.252-7.9v19.8a19.445,19.445,0,0,1-19.429,19.421H101.749a30.3,30.3,0,0,0,58.456-9.28,1.927,1.927,0,0,1,1.924-1.795h6.761a1.927,1.927,0,0,1,1.924,2" fill="#333"/>
    <path id="Path_170" data-name="Path 170" d="M136.282,66.33V117.4a40.974,40.974,0,0,0-45.643,39.856,39.964,39.964,0,0,0,.241,5.312H21A12.889,12.889,0,0,1,8.126,149.688V66.33Z" transform="translate(-1.586 -12.945)" fill="#f1f2f2"/>
    <path id="Path_171" data-name="Path 171" d="M106.946,120.487l12.218-7.284-4.33-16.177-14.206-.2c-.612-.749-1.264-1.465-1.956-2.165s-1.425-1.344-2.165-1.956l-.2-14.206L80.129,74.16,72.845,86.386a29.738,29.738,0,0,0-5.61,1.489l-12.411-6.93L42.977,92.784l6.938,12.411a29.925,29.925,0,0,0-1.5,5.61L36.2,118.1l4.33,16.177,14.206.193a27.558,27.558,0,0,0,1.964,2.165,28.969,28.969,0,0,0,2.157,1.964l.2,14.2,16.177,4.338,7.292-12.218a29.926,29.926,0,0,0,5.61-1.5l9.449,5.28a40.865,40.865,0,0,1,10.471-17.932l-2.608-4.668a29.762,29.762,0,0,0,1.5-5.61m-19.2,5.232a14.239,14.239,0,1,1,0-20.137,14.267,14.267,0,0,1,0,20.137" transform="translate(-7.065 -14.473)" fill="#f6921e"/>
    <path id="Path_172" data-name="Path 172" d="M140.355,13.659V29.177a5.529,5.529,0,1,1-11.059,0V13.659a5.529,5.529,0,1,1,11.059,0" transform="translate(-25.233 -1.587)" fill="#f1f2f2"/>
    <path id="Path_173" data-name="Path 173" d="M44.485,13.659V29.177a5.529,5.529,0,0,1-11.059,0V13.659a5.529,5.529,0,0,1,11.059,0" transform="translate(-6.523 -1.587)" fill="#f1f2f2"/>
    <path id="Path_174" data-name="Path 174" d="M158.858,142.99v21.586a12.9,12.9,0,0,1-12.878,12.878H124.145a29.928,29.928,0,0,1-.322-5.4,30.308,30.308,0,0,1,35.035-29.063" transform="translate(-24.162 -27.832)" fill="#f1f2f2"/>
    <path id="Path_175" data-name="Path 175" d="M136.282,42.878V52.7H8.126V42.878A12.889,12.889,0,0,1,21,30h.942v3.445a12.073,12.073,0,1,0,24.145,0V30H99.106v3.445a12.077,12.077,0,0,0,24.153,0V30h.145a12.9,12.9,0,0,1,12.878,12.878" transform="translate(-1.586 -5.855)" fill="#f28e22"/>
  </g>
</svg>
