<?xml version="1.0" encoding="UTF-8"?>
<svg id="Layer_1" data-name="Layer 1" xmlns="http://www.w3.org/2000/svg" viewBox="0 0 460 460">
  <defs>
    <style>
      .cls-1 {
        fill: #f6921e;
      }

      .cls-2 {
        fill: #f1f2f2;
      }

      .cls-3 {
        fill: #333;
      }
    </style>
  </defs>
  <path class="cls-3" d="M360.79,340.02c-1.97,2.86-5.34,4.33-8.78,3.86l-30.97-4.22-17.7,32.91c-1.59,2.97-4.67,4.82-8.04,4.83h-.04c-3.36,0-6.44-1.82-8.05-4.76l-55.72-101.61-55.72,101.61c-1.61,2.95-4.7,4.76-8.04,4.76h-.04c-3.37-.01-6.45-1.86-8.04-4.83l-15.49-28.78v37.27c0,11.03-8.98,20.02-20.02,20.02h-18.48c-11.04,0-20.02-8.99-20.02-20.02v-75.43h-8.53c-7.73,0-14.53-4.36-17.77-11.37-3.22-7-2.12-15,2.9-20.87l37.78-44.28c3.72-4.36,9.13-6.86,14.87-6.86s11.15,2.5,14.87,6.86l16.07,18.82,9.62-17.96c-16.41-18.16-26.41-42.23-26.41-68.58,0-56.48,45.96-102.44,102.45-102.44s102.44,45.96,102.44,102.44c0,26.35-9.99,50.42-26.41,68.59l53.81,100.49c1.65,3.05,1.43,6.72-.55,9.57Z"/>
  <path class="cls-1" d="M277.71,207.13c0,1.95-.79,3.71-2.07,4.97-1.28,1.28-3.03,2.07-4.97,2.07h-78.26c-3.9,0-7.05-3.15-7.05-7.04,0-1.95.79-3.71,2.07-4.97,1.28-1.28,3.04-2.07,4.99-2.07h78.26c3.88,0,7.04,3.15,7.04,7.04Z"/>
  <path class="cls-1" d="M292.44,134.96l-14.17,51.11c-1.01,3.7-4.38,6.25-8.21,6.25h-77.09c-3.83,0-7.19-2.55-8.21-6.25l-14.16-51.11c-1.36-4.87,4.07-8.79,8.26-5.99l25.83,17.21c2.53,1.7,5.97.67,7.17-2.13l14.66-34.33c1.88-4.41,8.15-4.41,10.03.01l14.62,34.31c1.18,2.8,4.63,3.84,7.17,2.15l25.82-17.21c4.2-2.8,9.62,1.12,8.28,5.99Z"/>
  <path class="cls-2" d="M231.49,72.29c-49.14,0-89.09,39.97-89.09,89.08s39.95,89.09,89.09,89.09,89.08-39.97,89.08-89.09-39.97-89.08-89.08-89.08ZM275.65,212.1c-1.28,1.28-3.03,2.07-4.97,2.07h-78.26c-3.9,0-7.05-3.15-7.05-7.04,0-1.95.79-3.71,2.07-4.97,1.28-1.28,3.04-2.07,4.99-2.07h78.26c3.88,0,7.04,3.15,7.04,7.04,0,1.95-.79,3.71-2.07,4.97ZM292.44,134.96l-14.17,51.11c-1.01,3.7-4.38,6.25-8.21,6.25h-77.09c-3.83,0-7.19-2.55-8.21-6.25l-14.16-51.11c-1.36-4.87,4.07-8.79,8.26-5.99l25.83,17.21c2.53,1.7,5.97.67,7.17-2.13l14.66-34.33c1.88-4.41,8.15-4.41,10.03.01l14.62,34.31c1.18,2.8,4.63,3.84,7.17,2.15l25.82-17.21c4.2-2.8,9.62,1.12,8.28,5.99Z"/>
  <path class="cls-2" d="M345.7,329.54l-23.64-3.22c-5.03-.68-10.02,1.86-12.41,6.32l-14.44,26.83-52.77-96.24c20.86-2.21,39.88-10.73,55.09-23.61h.01l48.15,89.92Z"/>
  <path class="cls-2" d="M220.53,263.23l-52.79,96.24-14.42-26.83c-1.88-3.5-5.34-5.82-9.17-6.32v-20.7h8.53c7.71,0,14.53-4.36,17.75-11.37,3.24-7,2.13-15-2.87-20.87l-12.41-14.56,10.28-19.21c15.23,12.88,34.23,21.4,55.1,23.62Z"/>
  <path class="cls-1" d="M158.31,288.67c-.39.84-1.95,3.59-5.63,3.59h-21.87v88.79c0,3.67-2.99,6.67-6.67,6.67h-18.48c-3.67,0-6.67-3-6.67-6.67v-88.79h-21.87c-3.68,0-5.24-2.75-5.63-3.59-.39-.86-1.47-3.82.92-6.63l37.77-44.27c1.63-1.9,3.66-2.17,4.72-2.17s3.09.28,4.71,2.17l19.45,22.79,9.3,10.91,9.04,10.57c2.38,2.82,1.3,5.78.91,6.63Z"/>
</svg>