<svg id="Group_61" data-name="Group 61" xmlns="http://www.w3.org/2000/svg" xmlns:xlink="http://www.w3.org/1999/xlink" width="154.971" height="173.892" viewBox="0 0 154.971 173.892">
  <defs>
    <clipPath id="clip-path">
      <rect id="Rectangle_86" data-name="Rectangle 86" width="154.971" height="173.892" fill="none"/>
    </clipPath>
  </defs>
  <g id="Group_60" data-name="Group 60" clip-path="url(#clip-path)">
    <path id="Path_188" data-name="Path 188" d="M154.13,142.863a4.63,4.63,0,0,1-4.461,1.96l-15.738-2.147-9,16.728a4.646,4.646,0,0,1-4.087,2.455h-.02a4.662,4.662,0,0,1-4.093-2.421l-28.32-51.643-28.32,51.643a4.651,4.651,0,0,1-4.087,2.421h-.02A4.646,4.646,0,0,1,51.9,159.4l-7.873-14.628v18.942a10.187,10.187,0,0,1-10.173,10.173H24.464A10.187,10.187,0,0,1,14.29,163.719V125.379H9.956A9.934,9.934,0,0,1,2.4,108.992L21.6,86.485a9.939,9.939,0,0,1,15.116,0l8.167,9.565,4.889-9.13a52.065,52.065,0,1,1,77.288.007L154.411,138a4.623,4.623,0,0,1-.281,4.863" transform="translate(0)" fill="#333"/>
    <path id="Path_189" data-name="Path 189" d="M144.072,110.838a3.586,3.586,0,0,1-3.579,3.578H100.716a3.58,3.58,0,0,1-3.585-3.578,3.585,3.585,0,0,1,3.585-3.578h39.777a3.579,3.579,0,0,1,3.579,3.578" transform="translate(-32.163 -35.517)" fill="#f6921e"/>
    <path id="Path_190" data-name="Path 190" d="M147.788,50.587l-7.2,25.979a4.325,4.325,0,0,1-4.174,3.177H97.228a4.331,4.331,0,0,1-4.174-3.177l-7.2-25.979a2.766,2.766,0,0,1,4.2-3.043l13.13,8.749a2.468,2.468,0,0,0,3.645-1.084l7.451-17.451a2.771,2.771,0,0,1,5.1.007L126.812,55.2a2.468,2.468,0,0,0,3.645,1.09l13.123-8.749a2.77,2.77,0,0,1,4.207,3.043" transform="translate(-28.395 -11.947)" fill="#f6921e"/>
    <path id="Path_191" data-name="Path 191" d="M109.773,10.15a45.279,45.279,0,1,0,45.276,45.276A45.328,45.328,0,0,0,109.773,10.15m22.44,71.06a3.558,3.558,0,0,1-2.528,1.05H89.908a3.578,3.578,0,1,1,0-7.157h39.778a3.576,3.576,0,0,1,2.528,6.107M140.749,42l-7.2,25.979a4.325,4.325,0,0,1-4.174,3.177H90.189a4.331,4.331,0,0,1-4.174-3.177L78.818,42a2.766,2.766,0,0,1,4.2-3.043l13.13,8.749a2.468,2.468,0,0,0,3.645-1.084l7.451-17.451a2.771,2.771,0,0,1,5.1.007l7.431,17.437a2.468,2.468,0,0,0,3.645,1.09l13.123-8.749A2.77,2.77,0,0,1,140.749,42" transform="translate(-21.355 -3.361)" fill="#f1f2f2"/>
    <path id="Path_192" data-name="Path 192" d="M192.99,183l-12.013-1.639a6.235,6.235,0,0,0-6.307,3.211l-7.337,13.638L140.511,149.3a51.711,51.711,0,0,0,28-12h.007Z" transform="translate(-46.528 -45.465)" fill="#f1f2f2"/>
    <path id="Path_193" data-name="Path 193" d="M104.641,149.3,77.813,198.21l-7.331-13.638a6.217,6.217,0,0,0-4.662-3.211V170.84h4.334a9.942,9.942,0,0,0,7.565-16.387l-6.307-7.4,5.224-9.765A51.789,51.789,0,0,0,104.641,149.3" transform="translate(-21.795 -45.461)" fill="#f1f2f2"/>
    <path id="Path_194" data-name="Path 194" d="M54.584,161.215a3.111,3.111,0,0,1-2.863,1.826H40.6V208.17a3.4,3.4,0,0,1-3.391,3.391H27.823a3.4,3.4,0,0,1-3.391-3.391V163.041H13.315a3.147,3.147,0,0,1-2.395-5.2l19.2-22.5a3.157,3.157,0,0,1,4.8,0L44.8,146.928l4.729,5.545,4.6,5.371a3.117,3.117,0,0,1,.462,3.371" transform="translate(-3.362 -44.451)" fill="#f6921e"/>
  </g>
</svg>
