<?xml version="1.0" encoding="UTF-8"?>
<svg id="Layer_1" data-name="Layer 1" xmlns="http://www.w3.org/2000/svg" viewBox="0 0 460 460">
  <defs>
    <style>
      .cls-1 {
        fill: #f6921e;
      }

      .cls-2 {
        fill: #f1f2f2;
      }

      .cls-3 {
        fill: #3f3f3e;
      }
    </style>
  </defs>
  <path class="cls-3" d="M270.9,86.28h-16.78v-7.43c0-10.98-8.94-19.92-19.93-19.92h-60.94c-10.98,0-19.93,8.94-19.93,19.92v7.43h-15.02c-17.82,0-32.32,14.5-32.32,32.32v217.04c0,12.68,7.34,23.67,17.99,28.97v17.98c0,10.19,8.3,18.48,18.49,18.48h18.79c10.19,0,18.48-8.29,18.48-18.48v-14.63h45.96v14.63c0,10.19,8.3,18.48,18.48,18.48h18.8c10.18,0,18.48-8.29,18.48-18.48v-16.4c12.65-4.39,21.76-16.42,21.76-30.54V118.6c0-17.82-14.51-32.32-32.32-32.32ZM166.3,78.85c0-3.82,3.13-6.94,6.95-6.94h60.94c3.83,0,6.95,3.12,6.95,6.94v7.43h-74.84v-7.43ZM166.76,382.59c0,3.04-2.47,5.5-5.5,5.5h-18.79c-3.05,0-5.51-2.47-5.51-5.5v-14.66c.45.02.9.03,1.35.03h28.46v14.63ZM268.48,382.59c0,3.04-2.47,5.5-5.5,5.5h-18.8c-3.04,0-5.5-2.47-5.5-5.5v-14.63h29.8v14.63ZM290.24,335.64c0,10.66-8.68,19.34-19.34,19.34h-132.6c-10.66,0-19.34-8.68-19.34-19.34V118.6c0-10.66,8.68-19.34,19.34-19.34h132.6c10.66,0,19.34,8.68,19.34,19.34v217.04Z"/>
  <path class="cls-1" d="M241.13,78.85v7.43h-74.84v-7.43c0-3.82,3.13-6.94,6.95-6.94h60.94c3.83,0,6.95,3.12,6.95,6.94Z"/>
  <path class="cls-2" d="M166.76,367.96v14.63c0,3.04-2.47,5.5-5.5,5.5h-18.79c-3.05,0-5.51-2.47-5.51-5.5v-14.66c.45.02.9.03,1.35.03h28.46Z"/>
  <path class="cls-2" d="M268.48,367.96v14.63c0,3.04-2.47,5.5-5.5,5.5h-18.8c-3.04,0-5.5-2.47-5.5-5.5v-14.63h29.8Z"/>
  <path class="cls-2" d="M270.9,99.26h-132.6c-10.66,0-19.34,8.68-19.34,19.34v217.04c0,10.66,8.68,19.34,19.34,19.34h132.6c10.66,0,19.34-8.68,19.34-19.34V118.6c0-10.66-8.68-19.34-19.34-19.34ZM166.8,171.4l29.67-51.41c1.67-2.9,4.78-4.69,8.13-4.69s6.45,1.8,8.13,4.69l29.67,51.4c7.88,13.64,8,30.03.33,43.84-7.52,13.54-21.16,21.93-36.5,22.45-.53.02-1.08.03-1.63.03s-1.1,0-1.65-.03c-15.33-.52-28.98-8.91-36.48-22.45-7.67-13.81-7.55-30.2.33-43.83ZM254.11,312.77c0,8.47-6.9,15.37-15.37,15.37h-70.05c-8.48,0-15.38-6.9-15.38-15.37v-38.39c0-8.48,6.9-15.37,15.38-15.37h70.05c8.47,0,15.37,6.89,15.37,15.37v38.39Z"/>
  <path class="cls-3" d="M238.75,259.02h-70.05c-8.48,0-15.38,6.89-15.38,15.37v38.39c0,8.47,6.9,15.37,15.38,15.37h70.05c8.47,0,15.37-6.9,15.37-15.37v-38.39c0-8.48-6.9-15.37-15.37-15.37ZM241.13,312.77c0,1.31-1.07,2.39-2.39,2.39h-70.05c-1.32,0-2.4-1.08-2.4-2.39v-38.39c0-1.32,1.08-2.39,2.4-2.39h70.05c1.32,0,2.39,1.07,2.39,2.39v38.39Z"/>
  <path class="cls-1" d="M241.13,274.38v38.39c0,1.31-1.07,2.39-2.39,2.39h-70.05c-1.32,0-2.4-1.08-2.4-2.39v-38.39c0-1.32,1.08-2.39,2.4-2.39h70.05c1.32,0,2.39,1.07,2.39,2.39Z"/>
  <path class="cls-3" d="M242.4,171.39l-29.67-51.4c-1.68-2.9-4.79-4.69-8.13-4.69s-6.46,1.8-8.13,4.69l-29.67,51.41c-7.88,13.63-8,30.02-.33,43.83,7.51,13.54,21.16,21.93,36.48,22.45.55.02,1.1.03,1.65.03s1.1,0,1.63-.03c15.35-.52,28.99-8.91,36.5-22.45,7.67-13.81,7.55-30.2-.33-43.84ZM231.38,208.94c-5.28,9.51-14.85,15.41-25.6,15.77-.78.03-1.57.03-2.38,0-10.74-.36-20.31-6.26-25.59-15.77-5.43-9.8-5.35-21.41.22-31.05l26.57-46.01,26.56,46c5.57,9.66,5.66,21.27.22,31.06Z"/>
  <path class="cls-1" d="M231.38,208.94c-5.28,9.51-14.85,15.41-25.6,15.77-.78.03-1.57.03-2.38,0-10.74-.36-20.31-6.26-25.59-15.77-5.43-9.8-5.35-21.41.22-31.05l26.57-46.01,26.56,46c5.57,9.66,5.66,21.27.22,31.06Z"/>
  <path class="cls-3" d="M409.74,221.95l-51.75-60.65c-3.42-4-8.42-6.31-13.69-6.31s-10.26,2.31-13.69,6.31l-51.75,60.65c-4.6,5.4-5.62,12.77-2.65,19.22,2.98,6.45,9.24,10.45,16.34,10.45h18.9v92.88c0,10.22,8.32,18.54,18.54,18.54h28.62c10.22,0,18.54-8.32,18.54-18.54v-92.88h18.9c7.1,0,13.36-4,16.34-10.45,2.98-6.45,1.96-13.82-2.65-19.22ZM400.6,235.73c-.41.88-1.66,2.92-4.55,2.92h-31.88v105.86c0,3.07-2.5,5.56-5.56,5.56h-28.62c-3.07,0-5.56-2.5-5.56-5.56v-105.86h-31.88c-2.9,0-4.14-2.04-4.55-2.92-.4-.88-1.14-3.16.74-5.35l51.75-60.65c1.31-1.53,2.96-1.76,3.81-1.76s2.51.23,3.81,1.76l51.75,60.65c1.88,2.2,1.14,4.47.74,5.35Z"/>
  <path class="cls-1" d="M400.6,235.73c-.41.88-1.66,2.92-4.55,2.92h-31.88v105.86c0,3.07-2.5,5.56-5.56,5.56h-28.62c-3.07,0-5.56-2.5-5.56-5.56v-105.86h-31.88c-2.9,0-4.14-2.04-4.55-2.92-.4-.88-1.14-3.16.74-5.35l51.75-60.65c1.31-1.53,2.96-1.76,3.81-1.76s2.51.23,3.81,1.76l51.75,60.65c1.88,2.2,1.14,4.47.74,5.35Z"/>
</svg>