<?xml version="1.0" encoding="UTF-8"?>
<svg id="Layer_1" data-name="Layer 1" xmlns="http://www.w3.org/2000/svg" viewBox="0 0 460 460">
  <defs>
    <style>
      .cls-1 {
        fill: #f6921e;
      }

      .cls-2 {
        fill: #f1f2f2;
      }

      .cls-3 {
        fill: #3f3f3e;
      }
    </style>
  </defs>
  <path class="cls-3" d="M373.36,381.79c-3.63-31.96-11.82-88.21-25.82-105.83-15.12-19.03-46.49-27.83-59.02-30.69v-.12s-11.85-18.87-11.85-18.87c7.41-10.81,11.78-22.1,13.86-28.37,6.11-2.8,10.94-11.11,15.08-25.94,2.97-10.59,1.95-18.5-2.99-23.51-1.66-1.68-3.54-2.8-5.47-3.53.71-1.05,1.39-2.11,2.04-3.13l.87-1.37.13-1.61c.13-1.49,2.86-36.7-18.91-60.4-12.5-13.6-30.28-20.5-52.87-20.5s-40.11,6.9-52.09,20.51c-20.95,23.8-16.7,59.18-16.51,60.66l.15,1.17.55,1.04c.55,1.05,1.24,2.33,2.05,3.72-1.83.74-3.62,1.81-5.2,3.42-4.94,5.01-5.94,12.92-2.99,23.51,4.14,14.82,8.96,23.13,15.08,25.94,2.06,6.24,6.44,17.55,13.86,28.38l-11.84,18.86v.12c-12.53,2.85-43.91,11.66-59.03,30.69-14,17.62-22.18,73.87-25.82,105.83-.59,5.15,1.06,10.32,4.51,14.2,3.45,3.87,8.41,6.09,13.6,6.09h250.49c5.19,0,10.15-2.23,13.61-6.09,3.45-3.88,5.09-9.05,4.5-14.2ZM276.84,260.41l2.49,24.45-18.55-10.88,16.06-13.57ZM186.26,87.07c9.37-10.61,23.56-15.99,42.16-15.99s33.23,5.44,43.12,16.18c11.11,12.06,14.42,28.53,15.33,39.32-11.96-6.33-32.91-15.13-57.02-15.13s-45.46,9.02-57.26,15.37c.38-10.78,2.89-27.56,13.66-39.75ZM284.32,140.23c-4.08,5.52-8.37,10.18-10.45,11.19-1.39-.32-4.5-1.88-7.04-3.15-8.12-4.04-20.33-10.11-36.3-10.27l-.18-.02h-.1c-.12.01-.24,0-.37,0-15.72,0-27.16,5.68-35.52,9.83-3.59,1.78-7.3,3.62-9.03,3.66-2.05-.42-6.33-5.22-10.07-11.02,9.31-5.41,30.4-15.85,54.62-15.85s44.87,10.14,54.46,15.63ZM181.68,192.9c-1.03-3.28-3.52-5.86-6.67-6.94-.47-.33-3.96-3.28-7.94-17.53-1.77-6.34-1.29-9.74-.32-10.72.77-.8,2.7-.98,4.4-.86,4.09,4.37,8.94,7.78,14.1,7.78,4.79,0,9.49-2.33,14.95-5.04,5.08-2.51,10.99-5.43,18.12-7.1l11.71-1.31,11.44,1.29c7.83,1.77,14.33,5.01,19.51,7.59,5.13,2.56,9.19,4.57,13.19,4.57,4.38,0,9.03-3.16,13.4-7.62,1.69-.31,4.69-.34,5.7.69.97.97,1.47,4.37-.31,10.73-3.99,14.26-7.48,17.19-7.94,17.53-3.15,1.08-5.64,3.66-6.66,6.91-3.58,11.24-17.67,47.9-48.33,47.9s-44.74-36.66-48.33-47.87ZM183.17,260.41l16.05,13.57-18.54,10.88,2.49-24.45ZM223.43,388.92h-72.33v-62.85c0-3.63-2.95-6.58-6.58-6.58s-6.58,2.95-6.58,6.58v62.85h-33.19c-1.98,0-3.22-1.06-3.79-1.7s-1.48-1.98-1.25-3.95c5.82-51.24,14.44-88.3,23.04-99.14,11.05-13.91,34.44-21.62,47.3-24.96l-2.63,25.84c-.47,4.68,1.69,9.15,5.65,11.69,3.95,2.54,8.92,2.64,12.97.26l23.74-13.94,13.63,11.98v93.91ZM211.34,266.87l-.09.05-24.77-20.92,5.61-8.94c9.31,9.55,21.72,16.86,37.91,16.86s28.6-7.31,37.9-16.86l5.61,8.94-24.77,20.92-.08-.05-18.66,16.42-18.66-16.42ZM359.04,387.22c-.57.64-1.81,1.7-3.8,1.7h-35.62v-62.85c0-3.63-2.95-6.58-6.58-6.58s-6.58,2.95-6.58,6.58v62.85h-69.88v-93.91l13.62-11.98,23.74,13.94c4.06,2.38,9.03,2.28,12.98-.26,3.95-2.54,6.11-7.01,5.64-11.69l-2.63-25.84c12.87,3.34,36.26,11.05,47.3,24.97,8.61,10.83,17.23,47.89,23.05,99.13.22,1.96-.69,3.31-1.25,3.95Z"/>
  <path class="cls-1" d="M223.43,295.01v93.91h-72.33v-62.85c0-3.63-2.95-6.58-6.58-6.58s-6.58,2.95-6.58,6.58v62.85h-33.19c-1.98,0-3.22-1.06-3.79-1.7s-1.48-1.98-1.25-3.95c5.82-51.24,14.44-88.3,23.04-99.14,11.05-13.91,34.44-21.62,47.3-24.96l-2.63,25.84c-.47,4.68,1.69,9.15,5.65,11.69,3.95,2.54,8.92,2.64,12.97.26l23.74-13.94,13.63,11.98Z"/>
  <path class="cls-1" d="M360.3,383.28c-5.83-51.24-14.44-88.3-23.05-99.13-11.04-13.92-34.43-21.63-47.3-24.97l2.63,25.84c.48,4.68-1.69,9.15-5.64,11.69-3.96,2.54-8.93,2.64-12.98.26l-23.74-13.94-13.62,11.98v93.91h69.88v-62.85c0-3.63,2.95-6.58,6.58-6.58s6.58,2.95,6.58,6.58v62.85h35.62c1.98,0,3.23-1.06,3.8-1.7.57-.64,1.48-1.98,1.25-3.95ZM298.01,353.26c0,9.5-6.72,17.24-14.98,17.24h-15.9c-8.26,0-14.98-7.73-14.98-17.24v-30.97h45.86v30.97Z"/>
  <polygon class="cls-1" points="279.33 284.86 260.78 273.98 276.84 260.41 279.33 284.86"/>
  <polygon class="cls-1" points="199.22 273.98 180.68 284.86 183.17 260.41 199.22 273.98"/>
  <path class="cls-2" d="M273.51,246l-24.77,20.92-.08-.05-18.66,16.42-18.66-16.42-.09.05-24.77-20.92,5.61-8.94c9.31,9.55,21.72,16.86,37.91,16.86s28.6-7.31,37.9-16.86l5.61,8.94Z"/>
  <path class="cls-2" d="M292.93,168.43c-3.99,14.26-7.48,17.19-7.94,17.53-3.15,1.08-5.64,3.66-6.66,6.91-3.58,11.24-17.67,47.9-48.33,47.9s-44.74-36.66-48.33-47.87c-1.03-3.28-3.52-5.86-6.67-6.94-.47-.33-3.96-3.28-7.94-17.53-1.77-6.34-1.29-9.74-.32-10.72.77-.8,2.7-.98,4.4-.86,4.09,4.37,8.94,7.78,14.1,7.78,4.79,0,9.49-2.33,14.95-5.04,5.08-2.51,10.99-5.43,18.12-7.1l11.71-1.31,11.44,1.29c7.83,1.77,14.33,5.01,19.51,7.59,5.13,2.56,9.19,4.57,13.19,4.57,4.38,0,9.03-3.16,13.4-7.62,1.69-.31,4.69-.34,5.7.69.97.97,1.47,4.37-.31,10.73Z"/>
  <path class="cls-1" d="M284.32,140.23c-4.08,5.52-8.37,10.18-10.45,11.19-1.39-.32-4.5-1.88-7.04-3.15-8.12-4.04-20.33-10.11-36.3-10.27l-.18-.02h-.1c-.12.01-.24,0-.37,0-15.72,0-27.16,5.68-35.52,9.83-3.59,1.78-7.3,3.62-9.03,3.66-2.05-.42-6.33-5.22-10.07-11.02,9.31-5.41,30.4-15.85,54.62-15.85s44.87,10.14,54.46,15.63Z"/>
  <path class="cls-1" d="M286.88,126.58c-11.96-6.33-32.91-15.13-57.02-15.13s-45.46,9.02-57.26,15.37c.38-10.78,2.89-27.56,13.66-39.75,9.37-10.61,23.56-15.99,42.16-15.99s33.23,5.44,43.12,16.18c11.11,12.06,14.42,28.53,15.33,39.32Z"/>
  <path class="cls-3" d="M252.15,322.29v30.97c0,9.5,6.72,17.24,14.98,17.24h15.9c8.26,0,14.98-7.73,14.98-17.24v-30.97h-45.86ZM287.88,353.26c0,3.8-2.27,7.11-4.86,7.11h-15.9c-2.59,0-4.86-3.32-4.86-7.11v-20.85h25.62v20.85Z"/>
  <path class="cls-1" d="M287.88,332.41v20.85c0,3.8-2.27,7.11-4.86,7.11h-15.9c-2.59,0-4.86-3.32-4.86-7.11v-20.85h25.62Z"/>
</svg>