<svg xmlns="http://www.w3.org/2000/svg" width="330.829" height="25" viewBox="0 0 330.829 25">
  <g id="Group_20" data-name="Group 20" transform="translate(0 0)">
    <path id="Path_47" data-name="Path 47" d="M11,0,0,25H8.089l11-25Z" fill="#f28e22"/>
    <path id="Path_48" data-name="Path 48" d="M26.589,0,15.584,25h8.094l11-25Z" fill="#f28e22"/>
    <path id="Path_49" data-name="Path 49" d="M42.177,0,31.172,25h8.094l11-25Z" fill="#f28e22"/>
    <path id="Path_50" data-name="Path 50" d="M57.76,0l-11,25h8.088l11-25Z" fill="#f28e22"/>
    <path id="Path_51" data-name="Path 51" d="M73.349,0,62.344,25h8.094l11-25Z" fill="#f28e22"/>
    <path id="Path_52" data-name="Path 52" d="M88.937,0,77.932,25h8.094l11-25Z" fill="#f28e22"/>
    <path id="Path_53" data-name="Path 53" d="M104.521,0l-11,25h8.094l11-25Z" fill="#f28e22"/>
    <path id="Path_54" data-name="Path 54" d="M120.109,0,109.1,25H117.2l11-25Z" fill="#f28e22"/>
    <path id="Path_55" data-name="Path 55" d="M135.7,0,124.692,25h8.094l11-25Z" fill="#f28e22"/>
    <path id="Path_56" data-name="Path 56" d="M151.286,0,140.281,25h8.094l11-25Z" fill="#f28e22"/>
    <path id="Path_57" data-name="Path 57" d="M166.87,0l-11,25h8.088l11-25Z" fill="#f28e22"/>
    <path id="Path_58" data-name="Path 58" d="M182.458,0,171.453,25h8.094l11-25Z" fill="#f28e22"/>
    <path id="Path_59" data-name="Path 59" d="M198.047,0,187.042,25h8.094l11-25Z" fill="#f28e22"/>
    <path id="Path_60" data-name="Path 60" d="M213.63,0l-11,25h8.089l11-25Z" fill="#f28e22"/>
    <path id="Path_61" data-name="Path 61" d="M229.219,0,218.214,25h8.094l11-25Z" fill="#f28e22"/>
    <path id="Path_62" data-name="Path 62" d="M244.8,0,233.8,25h8.094l11-25Z" fill="#f28e22"/>
    <path id="Path_63" data-name="Path 63" d="M260.391,0,249.386,25h8.094l11-25Z" fill="#f28e22"/>
    <path id="Path_64" data-name="Path 64" d="M275.974,0l-11,25h8.089l11-25Z" fill="#f28e22"/>
    <path id="Path_65" data-name="Path 65" d="M291.562,0,280.557,25h8.094l11-25Z" fill="#f28e22"/>
    <path id="Path_66" data-name="Path 66" d="M307.151,0,296.146,25h8.094l11-25Z" fill="#f28e22"/>
    <path id="Path_67" data-name="Path 67" d="M322.735,0l-11,25h8.094l11-25Z" fill="#f28e22"/>
  </g>
</svg>
